<svg width="25" height="22" viewBox="0 0 25 22" fill="none" xmlns="http://www.w3.org/2000/svg">
<path fill-rule="evenodd" clip-rule="evenodd" d="M7.26245 1.84556C4.00884 2.69968 2.1002 3.22242 2.01841 3.28186C1.94766 3.33323 1.84912 3.44912 1.79937 3.53936C1.7124 3.69716 1.70898 4.01115 1.70898 11.8176V19.9319H0.854492H0V20.716V21.5H12.5H25V20.716V19.9319H19.165H13.3301V13.5646V7.19736H17.5046H21.6792L21.6917 11.4858L21.7041 15.7742L22.4982 15.7873L23.2924 15.8003L23.2795 10.9559C23.2667 6.12457 23.2663 6.11103 23.1645 5.97727C23.1083 5.90347 22.9896 5.79504 22.9009 5.73621L22.7395 5.6293H17.5542H12.3689L12.1537 5.7383C12.0008 5.81576 11.9067 5.90803 11.8286 6.05724L11.7188 6.26717V13.0996V19.9319H7.51953H3.32031V12.2123V4.49255L3.50342 4.44574C3.88105 4.34914 11.5514 2.34473 11.6333 2.32121C11.7125 2.2985 11.7188 2.36103 11.7188 3.17899V4.06124H12.5244H13.3301V2.59567C13.3301 1.15747 13.328 1.12625 13.2176 0.923209C13.0901 0.68857 12.7764 0.495793 12.529 0.50007C12.4459 0.501495 10.076 1.10696 7.26245 1.84556ZM5.61523 6.43709V7.19736H7.51953H9.42383V6.43709V5.67682H7.51953H5.61523V6.43709ZM5.61523 9.97711V10.7611H7.51953H9.42383V9.97711V9.19308H7.51953H5.61523V9.97711ZM15.5762 9.97711V10.7611H17.4805H19.3848V9.97711V9.19308H17.4805H15.5762V9.97711ZM5.61523 13.5409V14.3249H7.51953H9.42383V13.5409V12.7569H7.51953H5.61523V13.5409ZM15.5762 13.5409V14.3249H17.4805H19.3848V13.5409V12.7569H17.4805H15.5762V13.5409ZM5.61523 17.0809V17.8412H7.51953H9.42383V17.0809V16.3206H7.51953H5.61523V17.0809ZM15.5762 17.0809V17.8412H17.4805H19.3848V17.0809V16.3206H17.4805H15.5762V17.0809ZM21.7011 17.2376C21.6877 17.2716 21.683 17.5977 21.6904 17.9623L21.7041 18.6252L22.4976 18.6383L23.291 18.6514V17.9136V17.1759H22.5083C21.9116 17.1759 21.7197 17.1906 21.7011 17.2376Z" fill="#F2F2F2"/>
</svg>
