<svg width="24" height="20" viewBox="0 0 24 20" fill="none" xmlns="http://www.w3.org/2000/svg">
<mask id="path-1-outside-1_1708_19434" maskUnits="userSpaceOnUse" x="0" y="-0.5" width="24" height="21" fill="black">
<rect fill="white" y="-0.5" width="24" height="21"/>
<path fill-rule="evenodd" clip-rule="evenodd" d="M15.8617 0.528111C15.5902 0.596388 15.3841 0.712573 15.1714 0.917354C14.935 1.14494 14.8393 1.32413 14.7689 1.67134L14.7134 1.94524L13.7976 1.97014C12.6745 2.00067 12.7142 1.97726 12.6893 2.62407C12.668 3.17676 12.7359 3.4434 12.9676 3.71785C13.3093 4.12248 13.2015 4.10923 16.1671 4.11048C18.7259 4.11152 18.7977 4.10893 19.0032 4.00809C19.4159 3.8056 19.5999 3.47148 19.6434 2.84544C19.6723 2.4309 19.614 2.11118 19.4953 2.03309C19.4635 2.01217 19.0301 1.98384 18.5322 1.97014L17.6269 1.94524L17.5705 1.69624C17.4551 1.18658 17.1731 0.816159 16.7599 0.631348C16.4877 0.509585 16.1086 0.46601 15.8617 0.528111ZM16.5049 1.42363C16.8327 1.62622 16.8859 2.07462 16.6181 2.37841C16.5038 2.50809 16.4372 2.53702 16.2086 2.5562C15.9506 2.57791 15.9251 2.56944 15.7458 2.40301C15.5686 2.23832 15.5562 2.20839 15.5562 1.94524C15.5562 1.68369 15.5693 1.65157 15.7397 1.4932C15.8888 1.3547 15.9626 1.32278 16.1327 1.32293C16.2562 1.32303 16.4091 1.36442 16.5049 1.42363ZM9.92659 2.51576C9.71375 2.5811 9.56165 2.70669 9.4488 2.91023L9.34125 3.1042V10.9809C9.34125 19.6237 9.319 18.9979 9.63579 19.268C9.71867 19.3387 9.86871 19.4197 9.96918 19.448C10.0905 19.4822 12.183 19.4988 16.1949 19.4976C22.6046 19.4955 22.4596 19.5006 22.7131 19.2682C22.7682 19.2176 22.8552 19.0931 22.9064 18.9915C22.9965 18.8126 22.9994 18.5619 22.9993 10.9736C22.9993 2.19031 23.0328 2.96541 22.6388 2.64599L22.4501 2.49305L21.3566 2.47726L20.2631 2.46143L20.2309 2.90057C20.2131 3.14205 20.1851 3.40132 20.1685 3.47661L20.1384 3.61357H21.0039H21.8694V10.9841V18.3546H16.1458H10.4221V10.9841V3.61357H11.3122H12.2022L12.1672 3.50151C12.1479 3.43986 12.1206 3.18219 12.1065 2.92881L12.0808 2.46815L11.0672 2.47243C10.5098 2.47477 9.99645 2.49429 9.92659 2.51576ZM13.7331 4.97074C13.6819 4.99783 13.4074 5.25286 13.1229 5.53742L12.6057 6.05485L12.3633 5.80535C12.0952 5.52945 11.8838 5.47641 11.7317 5.64688C11.5573 5.8422 11.6229 6.00555 12.0513 6.44205C12.6376 7.03966 12.621 7.04314 13.5072 6.13712C14.0953 5.53587 14.2051 5.39992 14.2051 5.27327C14.2051 5.03677 13.935 4.86361 13.7331 4.97074ZM14.9523 6.48956L14.9666 6.87551L17.8285 6.88682L20.6903 6.89812V6.50086V6.1036H17.8141H14.938L14.9523 6.48956ZM5.6225 6.99573C5.22572 7.11077 4.82075 7.36227 4.53289 7.67233C4.40574 7.80928 4.03049 8.36391 3.69901 8.90489L3.09628 9.88846H2.30809C1.37044 9.88846 1.24747 9.92675 1.08357 10.27C0.953226 10.543 0.976907 10.8367 1.14375 11.0168C1.21553 11.0942 1.41598 11.1883 1.68821 11.2723C1.92522 11.3454 2.11913 11.4254 2.11913 11.45C2.11913 11.4746 2.00947 11.6767 1.8755 11.8992C1.60897 12.3418 1.42207 12.9234 1.32942 13.5986C1.2454 14.211 1.20767 19.0146 1.28544 19.2049C1.39353 19.4695 1.52323 19.5 2.53914 19.5C3.28175 19.5 3.48711 19.4847 3.623 19.4194C3.82404 19.3227 3.83564 19.2799 3.85111 18.5787L3.86325 18.0309L6.30747 18.018L8.75169 18.005V17.5075V17.01H7.99366C7.07901 17.01 7.08127 17.0112 7.08127 16.512C7.08127 16.0127 7.07901 16.0139 7.99366 16.0139H8.75169V13.7231V11.4323L6.13551 11.4315C4.69659 11.4311 3.49502 11.4143 3.46529 11.3942C3.35618 11.3203 3.29732 11.1424 3.34232 11.0225C3.38428 10.9106 4.3942 9.24394 4.8518 8.53144C4.97054 8.34658 5.16146 8.12621 5.27608 8.04175C5.70744 7.72392 5.6989 7.72541 7.27779 7.69772L8.72713 7.67233L8.74147 7.28637L8.75582 6.90041L7.34126 6.90395C6.142 6.90699 5.88043 6.92093 5.6225 6.99573ZM13.1879 8.45385L12.638 9.01132L12.3682 8.75265C12.1991 8.5906 12.0549 8.49404 11.9819 8.49404C11.8111 8.49404 11.6504 8.66844 11.6504 8.85385C11.6504 8.98383 11.72 9.08119 12.0588 9.42461C12.3845 9.75464 12.4965 9.83866 12.611 9.83866C12.7304 9.83866 12.8767 9.7151 13.4799 9.10474C14.2447 8.33069 14.2943 8.24683 14.1286 8.00714C14.0767 7.93194 14.0017 7.89643 13.895 7.89643C13.7603 7.89643 13.6592 7.97616 13.1879 8.45385ZM14.9421 9.46515V9.83866H17.8162H20.6903V9.46515V9.09165H17.8162H14.9421V9.46515ZM13.2066 11.3761C12.9018 11.6809 12.6412 11.9303 12.6276 11.9303C12.614 11.9303 12.496 11.8294 12.3655 11.7062C12.1006 11.4562 11.8778 11.4095 11.7317 11.5732C11.557 11.7688 11.6228 11.9295 12.0567 12.3671C12.643 12.9584 12.6168 12.9639 13.5032 12.0653C14.0944 11.466 14.2049 11.3305 14.2036 11.2063C14.2015 11.0098 14.1053 10.8916 13.9162 10.8533C13.77 10.8237 13.728 10.8546 13.2066 11.3761ZM14.9421 12.4034V12.7769H17.8162H20.6903V12.4034V12.0299H17.8162H14.9421V12.4034ZM4.20534 13.348C4.63665 13.5059 5.03702 13.6666 5.09499 13.7051C5.25451 13.8111 5.37989 14.1321 5.34192 14.3374C5.3005 14.5613 5.14073 14.7636 4.93743 14.8497C4.73934 14.9336 3.22515 14.9456 2.94073 14.8655C2.36282 14.7028 2.08597 13.9488 2.4202 13.4478C2.57933 13.2094 2.96731 13.0127 3.22456 13.04C3.33264 13.0515 3.77398 13.1901 4.20534 13.348ZM13.7747 13.8278C13.7136 13.8509 13.4292 14.1065 13.1427 14.3959L12.6217 14.922L12.36 14.6712C12.0816 14.4042 11.9464 14.3652 11.7596 14.4979C11.6828 14.5523 11.6504 14.6262 11.6504 14.7462C11.6504 14.8914 11.7038 14.972 12.0066 15.2833C12.374 15.6611 12.5155 15.7649 12.6629 15.7649C12.71 15.7649 13.0762 15.4354 13.4768 15.0325C14.1069 14.3989 14.2051 14.279 14.2051 14.1438C14.2051 13.9088 13.9863 13.7481 13.7747 13.8278ZM14.9421 15.3665V15.7649H17.8162H20.6903V15.3665V14.9681H17.8162H14.9421V15.3665Z"/>
</mask>
<path fill-rule="evenodd" clip-rule="evenodd" d="M15.8617 0.528111C15.5902 0.596388 15.3841 0.712573 15.1714 0.917354C14.935 1.14494 14.8393 1.32413 14.7689 1.67134L14.7134 1.94524L13.7976 1.97014C12.6745 2.00067 12.7142 1.97726 12.6893 2.62407C12.668 3.17676 12.7359 3.4434 12.9676 3.71785C13.3093 4.12248 13.2015 4.10923 16.1671 4.11048C18.7259 4.11152 18.7977 4.10893 19.0032 4.00809C19.4159 3.8056 19.5999 3.47148 19.6434 2.84544C19.6723 2.4309 19.614 2.11118 19.4953 2.03309C19.4635 2.01217 19.0301 1.98384 18.5322 1.97014L17.6269 1.94524L17.5705 1.69624C17.4551 1.18658 17.1731 0.816159 16.7599 0.631348C16.4877 0.509585 16.1086 0.46601 15.8617 0.528111ZM16.5049 1.42363C16.8327 1.62622 16.8859 2.07462 16.6181 2.37841C16.5038 2.50809 16.4372 2.53702 16.2086 2.5562C15.9506 2.57791 15.9251 2.56944 15.7458 2.40301C15.5686 2.23832 15.5562 2.20839 15.5562 1.94524C15.5562 1.68369 15.5693 1.65157 15.7397 1.4932C15.8888 1.3547 15.9626 1.32278 16.1327 1.32293C16.2562 1.32303 16.4091 1.36442 16.5049 1.42363ZM9.92659 2.51576C9.71375 2.5811 9.56165 2.70669 9.4488 2.91023L9.34125 3.1042V10.9809C9.34125 19.6237 9.319 18.9979 9.63579 19.268C9.71867 19.3387 9.86871 19.4197 9.96918 19.448C10.0905 19.4822 12.183 19.4988 16.1949 19.4976C22.6046 19.4955 22.4596 19.5006 22.7131 19.2682C22.7682 19.2176 22.8552 19.0931 22.9064 18.9915C22.9965 18.8126 22.9994 18.5619 22.9993 10.9736C22.9993 2.19031 23.0328 2.96541 22.6388 2.64599L22.4501 2.49305L21.3566 2.47726L20.2631 2.46143L20.2309 2.90057C20.2131 3.14205 20.1851 3.40132 20.1685 3.47661L20.1384 3.61357H21.0039H21.8694V10.9841V18.3546H16.1458H10.4221V10.9841V3.61357H11.3122H12.2022L12.1672 3.50151C12.1479 3.43986 12.1206 3.18219 12.1065 2.92881L12.0808 2.46815L11.0672 2.47243C10.5098 2.47477 9.99645 2.49429 9.92659 2.51576ZM13.7331 4.97074C13.6819 4.99783 13.4074 5.25286 13.1229 5.53742L12.6057 6.05485L12.3633 5.80535C12.0952 5.52945 11.8838 5.47641 11.7317 5.64688C11.5573 5.8422 11.6229 6.00555 12.0513 6.44205C12.6376 7.03966 12.621 7.04314 13.5072 6.13712C14.0953 5.53587 14.2051 5.39992 14.2051 5.27327C14.2051 5.03677 13.935 4.86361 13.7331 4.97074ZM14.9523 6.48956L14.9666 6.87551L17.8285 6.88682L20.6903 6.89812V6.50086V6.1036H17.8141H14.938L14.9523 6.48956ZM5.6225 6.99573C5.22572 7.11077 4.82075 7.36227 4.53289 7.67233C4.40574 7.80928 4.03049 8.36391 3.69901 8.90489L3.09628 9.88846H2.30809C1.37044 9.88846 1.24747 9.92675 1.08357 10.27C0.953226 10.543 0.976907 10.8367 1.14375 11.0168C1.21553 11.0942 1.41598 11.1883 1.68821 11.2723C1.92522 11.3454 2.11913 11.4254 2.11913 11.45C2.11913 11.4746 2.00947 11.6767 1.8755 11.8992C1.60897 12.3418 1.42207 12.9234 1.32942 13.5986C1.2454 14.211 1.20767 19.0146 1.28544 19.2049C1.39353 19.4695 1.52323 19.5 2.53914 19.5C3.28175 19.5 3.48711 19.4847 3.623 19.4194C3.82404 19.3227 3.83564 19.2799 3.85111 18.5787L3.86325 18.0309L6.30747 18.018L8.75169 18.005V17.5075V17.01H7.99366C7.07901 17.01 7.08127 17.0112 7.08127 16.512C7.08127 16.0127 7.07901 16.0139 7.99366 16.0139H8.75169V13.7231V11.4323L6.13551 11.4315C4.69659 11.4311 3.49502 11.4143 3.46529 11.3942C3.35618 11.3203 3.29732 11.1424 3.34232 11.0225C3.38428 10.9106 4.3942 9.24394 4.8518 8.53144C4.97054 8.34658 5.16146 8.12621 5.27608 8.04175C5.70744 7.72392 5.6989 7.72541 7.27779 7.69772L8.72713 7.67233L8.74147 7.28637L8.75582 6.90041L7.34126 6.90395C6.142 6.90699 5.88043 6.92093 5.6225 6.99573ZM13.1879 8.45385L12.638 9.01132L12.3682 8.75265C12.1991 8.5906 12.0549 8.49404 11.9819 8.49404C11.8111 8.49404 11.6504 8.66844 11.6504 8.85385C11.6504 8.98383 11.72 9.08119 12.0588 9.42461C12.3845 9.75464 12.4965 9.83866 12.611 9.83866C12.7304 9.83866 12.8767 9.7151 13.4799 9.10474C14.2447 8.33069 14.2943 8.24683 14.1286 8.00714C14.0767 7.93194 14.0017 7.89643 13.895 7.89643C13.7603 7.89643 13.6592 7.97616 13.1879 8.45385ZM14.9421 9.46515V9.83866H17.8162H20.6903V9.46515V9.09165H17.8162H14.9421V9.46515ZM13.2066 11.3761C12.9018 11.6809 12.6412 11.9303 12.6276 11.9303C12.614 11.9303 12.496 11.8294 12.3655 11.7062C12.1006 11.4562 11.8778 11.4095 11.7317 11.5732C11.557 11.7688 11.6228 11.9295 12.0567 12.3671C12.643 12.9584 12.6168 12.9639 13.5032 12.0653C14.0944 11.466 14.2049 11.3305 14.2036 11.2063C14.2015 11.0098 14.1053 10.8916 13.9162 10.8533C13.77 10.8237 13.728 10.8546 13.2066 11.3761ZM14.9421 12.4034V12.7769H17.8162H20.6903V12.4034V12.0299H17.8162H14.9421V12.4034ZM4.20534 13.348C4.63665 13.5059 5.03702 13.6666 5.09499 13.7051C5.25451 13.8111 5.37989 14.1321 5.34192 14.3374C5.3005 14.5613 5.14073 14.7636 4.93743 14.8497C4.73934 14.9336 3.22515 14.9456 2.94073 14.8655C2.36282 14.7028 2.08597 13.9488 2.4202 13.4478C2.57933 13.2094 2.96731 13.0127 3.22456 13.04C3.33264 13.0515 3.77398 13.1901 4.20534 13.348ZM13.7747 13.8278C13.7136 13.8509 13.4292 14.1065 13.1427 14.3959L12.6217 14.922L12.36 14.6712C12.0816 14.4042 11.9464 14.3652 11.7596 14.4979C11.6828 14.5523 11.6504 14.6262 11.6504 14.7462C11.6504 14.8914 11.7038 14.972 12.0066 15.2833C12.374 15.6611 12.5155 15.7649 12.6629 15.7649C12.71 15.7649 13.0762 15.4354 13.4768 15.0325C14.1069 14.3989 14.2051 14.279 14.2051 14.1438C14.2051 13.9088 13.9863 13.7481 13.7747 13.8278ZM14.9421 15.3665V15.7649H17.8162H20.6903V15.3665V14.9681H17.8162H14.9421V15.3665Z" fill="#F2F2F2"/>
<path fill-rule="evenodd" clip-rule="evenodd" d="M15.8617 0.528111C15.5902 0.596388 15.3841 0.712573 15.1714 0.917354C14.935 1.14494 14.8393 1.32413 14.7689 1.67134L14.7134 1.94524L13.7976 1.97014C12.6745 2.00067 12.7142 1.97726 12.6893 2.62407C12.668 3.17676 12.7359 3.4434 12.9676 3.71785C13.3093 4.12248 13.2015 4.10923 16.1671 4.11048C18.7259 4.11152 18.7977 4.10893 19.0032 4.00809C19.4159 3.8056 19.5999 3.47148 19.6434 2.84544C19.6723 2.4309 19.614 2.11118 19.4953 2.03309C19.4635 2.01217 19.0301 1.98384 18.5322 1.97014L17.6269 1.94524L17.5705 1.69624C17.4551 1.18658 17.1731 0.816159 16.7599 0.631348C16.4877 0.509585 16.1086 0.46601 15.8617 0.528111ZM16.5049 1.42363C16.8327 1.62622 16.8859 2.07462 16.6181 2.37841C16.5038 2.50809 16.4372 2.53702 16.2086 2.5562C15.9506 2.57791 15.9251 2.56944 15.7458 2.40301C15.5686 2.23832 15.5562 2.20839 15.5562 1.94524C15.5562 1.68369 15.5693 1.65157 15.7397 1.4932C15.8888 1.3547 15.9626 1.32278 16.1327 1.32293C16.2562 1.32303 16.4091 1.36442 16.5049 1.42363ZM9.92659 2.51576C9.71375 2.5811 9.56165 2.70669 9.4488 2.91023L9.34125 3.1042V10.9809C9.34125 19.6237 9.319 18.9979 9.63579 19.268C9.71867 19.3387 9.86871 19.4197 9.96918 19.448C10.0905 19.4822 12.183 19.4988 16.1949 19.4976C22.6046 19.4955 22.4596 19.5006 22.7131 19.2682C22.7682 19.2176 22.8552 19.0931 22.9064 18.9915C22.9965 18.8126 22.9994 18.5619 22.9993 10.9736C22.9993 2.19031 23.0328 2.96541 22.6388 2.64599L22.4501 2.49305L21.3566 2.47726L20.2631 2.46143L20.2309 2.90057C20.2131 3.14205 20.1851 3.40132 20.1685 3.47661L20.1384 3.61357H21.0039H21.8694V10.9841V18.3546H16.1458H10.4221V10.9841V3.61357H11.3122H12.2022L12.1672 3.50151C12.1479 3.43986 12.1206 3.18219 12.1065 2.92881L12.0808 2.46815L11.0672 2.47243C10.5098 2.47477 9.99645 2.49429 9.92659 2.51576ZM13.7331 4.97074C13.6819 4.99783 13.4074 5.25286 13.1229 5.53742L12.6057 6.05485L12.3633 5.80535C12.0952 5.52945 11.8838 5.47641 11.7317 5.64688C11.5573 5.8422 11.6229 6.00555 12.0513 6.44205C12.6376 7.03966 12.621 7.04314 13.5072 6.13712C14.0953 5.53587 14.2051 5.39992 14.2051 5.27327C14.2051 5.03677 13.935 4.86361 13.7331 4.97074ZM14.9523 6.48956L14.9666 6.87551L17.8285 6.88682L20.6903 6.89812V6.50086V6.1036H17.8141H14.938L14.9523 6.48956ZM5.6225 6.99573C5.22572 7.11077 4.82075 7.36227 4.53289 7.67233C4.40574 7.80928 4.03049 8.36391 3.69901 8.90489L3.09628 9.88846H2.30809C1.37044 9.88846 1.24747 9.92675 1.08357 10.27C0.953226 10.543 0.976907 10.8367 1.14375 11.0168C1.21553 11.0942 1.41598 11.1883 1.68821 11.2723C1.92522 11.3454 2.11913 11.4254 2.11913 11.45C2.11913 11.4746 2.00947 11.6767 1.8755 11.8992C1.60897 12.3418 1.42207 12.9234 1.32942 13.5986C1.2454 14.211 1.20767 19.0146 1.28544 19.2049C1.39353 19.4695 1.52323 19.5 2.53914 19.5C3.28175 19.5 3.48711 19.4847 3.623 19.4194C3.82404 19.3227 3.83564 19.2799 3.85111 18.5787L3.86325 18.0309L6.30747 18.018L8.75169 18.005V17.5075V17.01H7.99366C7.07901 17.01 7.08127 17.0112 7.08127 16.512C7.08127 16.0127 7.07901 16.0139 7.99366 16.0139H8.75169V13.7231V11.4323L6.13551 11.4315C4.69659 11.4311 3.49502 11.4143 3.46529 11.3942C3.35618 11.3203 3.29732 11.1424 3.34232 11.0225C3.38428 10.9106 4.3942 9.24394 4.8518 8.53144C4.97054 8.34658 5.16146 8.12621 5.27608 8.04175C5.70744 7.72392 5.6989 7.72541 7.27779 7.69772L8.72713 7.67233L8.74147 7.28637L8.75582 6.90041L7.34126 6.90395C6.142 6.90699 5.88043 6.92093 5.6225 6.99573ZM13.1879 8.45385L12.638 9.01132L12.3682 8.75265C12.1991 8.5906 12.0549 8.49404 11.9819 8.49404C11.8111 8.49404 11.6504 8.66844 11.6504 8.85385C11.6504 8.98383 11.72 9.08119 12.0588 9.42461C12.3845 9.75464 12.4965 9.83866 12.611 9.83866C12.7304 9.83866 12.8767 9.7151 13.4799 9.10474C14.2447 8.33069 14.2943 8.24683 14.1286 8.00714C14.0767 7.93194 14.0017 7.89643 13.895 7.89643C13.7603 7.89643 13.6592 7.97616 13.1879 8.45385ZM14.9421 9.46515V9.83866H17.8162H20.6903V9.46515V9.09165H17.8162H14.9421V9.46515ZM13.2066 11.3761C12.9018 11.6809 12.6412 11.9303 12.6276 11.9303C12.614 11.9303 12.496 11.8294 12.3655 11.7062C12.1006 11.4562 11.8778 11.4095 11.7317 11.5732C11.557 11.7688 11.6228 11.9295 12.0567 12.3671C12.643 12.9584 12.6168 12.9639 13.5032 12.0653C14.0944 11.466 14.2049 11.3305 14.2036 11.2063C14.2015 11.0098 14.1053 10.8916 13.9162 10.8533C13.77 10.8237 13.728 10.8546 13.2066 11.3761ZM14.9421 12.4034V12.7769H17.8162H20.6903V12.4034V12.0299H17.8162H14.9421V12.4034ZM4.20534 13.348C4.63665 13.5059 5.03702 13.6666 5.09499 13.7051C5.25451 13.8111 5.37989 14.1321 5.34192 14.3374C5.3005 14.5613 5.14073 14.7636 4.93743 14.8497C4.73934 14.9336 3.22515 14.9456 2.94073 14.8655C2.36282 14.7028 2.08597 13.9488 2.4202 13.4478C2.57933 13.2094 2.96731 13.0127 3.22456 13.04C3.33264 13.0515 3.77398 13.1901 4.20534 13.348ZM13.7747 13.8278C13.7136 13.8509 13.4292 14.1065 13.1427 14.3959L12.6217 14.922L12.36 14.6712C12.0816 14.4042 11.9464 14.3652 11.7596 14.4979C11.6828 14.5523 11.6504 14.6262 11.6504 14.7462C11.6504 14.8914 11.7038 14.972 12.0066 15.2833C12.374 15.6611 12.5155 15.7649 12.6629 15.7649C12.71 15.7649 13.0762 15.4354 13.4768 15.0325C14.1069 14.3989 14.2051 14.279 14.2051 14.1438C14.2051 13.9088 13.9863 13.7481 13.7747 13.8278ZM14.9421 15.3665V15.7649H17.8162H20.6903V15.3665V14.9681H17.8162H14.9421V15.3665Z" stroke="#F2F2F2" stroke-width="0.2" stroke-linejoin="round" mask="url(#path-1-outside-1_1708_19434)"/>
</svg>
