<svg width="18" height="20" viewBox="0 0 18 20" fill="none" xmlns="http://www.w3.org/2000/svg">
<mask id="path-1-outside-1_1708_19603" maskUnits="userSpaceOnUse" x="0" y="0" width="18" height="20" fill="black">
<rect fill="white" width="18" height="20"/>
<path fill-rule="evenodd" clip-rule="evenodd" d="M2.02033 1.04356C1.60937 1.14933 1.30973 1.38771 1.12642 1.75471L1.01207 1.98359L1.00266 8.38129C0.995547 13.2044 1.00213 14.8188 1.02943 14.9408C1.16975 15.5677 1.72535 15.9703 2.45044 15.9703H2.69111L2.68247 15.6247L2.67379 15.279L2.40918 15.2638C2.10293 15.2462 1.94826 15.1711 1.82364 14.9795L1.75061 14.8672V8.47942V2.0916L1.84293 1.96632C1.8937 1.8974 1.99627 1.81022 2.07086 1.7726L2.20651 1.70415H7.41857C12.0534 1.70415 12.6433 1.70918 12.7447 1.74968C12.9886 1.84711 13.1193 2.0486 13.1204 2.32921L13.1211 2.49835H13.4903H13.8596V2.29553C13.8596 1.68185 13.4141 1.15571 12.7887 1.03079C12.673 1.00764 11.1116 0.998756 7.40356 1.00014C3.01121 1.00176 2.15583 1.00867 2.02033 1.04356ZM4.43392 3.23633C4.06064 3.32093 3.70864 3.59499 3.54243 3.9304L3.4431 4.13086V11.0874V18.044L3.51532 18.2151C3.61429 18.4496 3.89854 18.7366 4.14638 18.8523C4.25365 18.9023 4.42871 18.9531 4.55091 18.9697C4.68228 18.9875 6.0664 18.9991 8.09914 18.9994L11.432 19L14.216 16.3776L17 13.7552L16.9915 8.98717L16.983 4.21911L16.9077 4.03544C16.7677 3.694 16.4883 3.422 16.1368 3.28499L15.9675 3.21901L10.2592 3.21442C6.95902 3.21177 4.50155 3.22101 4.43392 3.23633ZM15.9149 3.96623C16.0527 4.03377 16.152 4.13151 16.1963 4.24308C16.219 4.30041 16.2291 5.70926 16.2291 8.82366V13.3214L14.0666 13.3295L11.9042 13.3377L11.6973 13.435C11.315 13.615 11.0445 13.9503 10.9697 14.3372C10.9478 14.4505 10.9362 15.1644 10.9362 16.4022V18.294H7.802C5.48538 18.294 4.64052 18.285 4.56319 18.2596C4.40317 18.2068 4.29535 18.1186 4.22771 17.985C4.16684 17.8648 4.16626 17.8003 4.16626 11.1066C4.16626 5.09246 4.17146 4.33768 4.21358 4.24129C4.27734 4.09545 4.34295 4.02985 4.48937 3.96558C4.60735 3.91378 4.84411 3.91152 10.2066 3.9109C15.6455 3.91028 15.8039 3.91181 15.9149 3.96623ZM8.60359 5.78318C8.34741 5.90384 8.3504 6.27475 8.60848 6.39182C8.70213 6.4343 8.89002 6.43992 10.2177 6.4398C11.6712 6.43971 11.7243 6.43774 11.8228 6.38032C11.88 6.34697 11.9457 6.27296 11.9728 6.21131C12.0379 6.0632 11.9806 5.89669 11.8318 5.80112L11.7272 5.73396L10.2162 5.73464C8.88365 5.73523 8.6932 5.74097 8.60359 5.78318ZM5.92995 8.17392C5.80865 8.24463 5.76643 8.31702 5.76643 8.45436C5.76643 8.59193 5.83191 8.71059 5.93771 8.76471C6.05446 8.82445 7.41039 8.82786 7.52597 8.76874C7.68996 8.68485 7.76153 8.41256 7.65706 8.27001C7.55354 8.1287 7.48002 8.11656 6.72961 8.11667C6.08917 8.11676 6.01944 8.12176 5.92995 8.17392ZM8.57639 8.17392C8.4557 8.24425 8.41286 8.31699 8.41286 8.4515C8.41286 8.58678 8.46484 8.69164 8.56377 8.75591C8.63827 8.8043 8.82066 8.80839 11.2747 8.81666C13.0235 8.82257 13.9425 8.81533 14.0153 8.79509C14.2523 8.72926 14.3591 8.47968 14.2334 8.28534C14.1979 8.23042 14.1332 8.16997 14.0897 8.15103C14.0312 8.12553 13.3166 8.11659 11.3425 8.11667C8.7549 8.11676 8.67148 8.1185 8.57639 8.17392ZM5.96645 10.2508C5.91567 10.2757 5.85022 10.3253 5.82096 10.3609C5.75341 10.4431 5.74972 10.6692 5.81446 10.7575C5.91783 10.8986 5.99202 10.911 6.73576 10.911C7.4795 10.911 7.55369 10.8986 7.65706 10.7575C7.6838 10.721 7.7051 10.6316 7.7051 10.5557C7.7051 10.405 7.6205 10.2875 7.47347 10.2341C7.4294 10.2181 7.09309 10.2051 6.72607 10.2052C6.18515 10.2053 6.04129 10.214 5.96645 10.2508ZM8.61289 10.2508C8.4709 10.3206 8.41431 10.4088 8.41354 10.5614C8.41277 10.7157 8.4833 10.8242 8.61953 10.8781C8.68249 10.903 9.41753 10.9099 11.3925 10.9041L14.0797 10.8962L14.1851 10.7864C14.3508 10.6135 14.3203 10.4085 14.1085 10.2721L14.0044 10.205L11.3548 10.2052C9.02678 10.2054 8.694 10.2109 8.61289 10.2508ZM15.6752 14.0099C15.6752 14.0285 11.7351 17.7201 11.7044 17.7303C11.6593 17.7452 11.665 14.5922 11.7104 14.4197C11.7526 14.2595 11.93 14.0744 12.0813 14.0327C12.1737 14.0072 15.6752 13.9851 15.6752 14.0099Z"/>
</mask>
<path fill-rule="evenodd" clip-rule="evenodd" d="M2.02033 1.04356C1.60937 1.14933 1.30973 1.38771 1.12642 1.75471L1.01207 1.98359L1.00266 8.38129C0.995547 13.2044 1.00213 14.8188 1.02943 14.9408C1.16975 15.5677 1.72535 15.9703 2.45044 15.9703H2.69111L2.68247 15.6247L2.67379 15.279L2.40918 15.2638C2.10293 15.2462 1.94826 15.1711 1.82364 14.9795L1.75061 14.8672V8.47942V2.0916L1.84293 1.96632C1.8937 1.8974 1.99627 1.81022 2.07086 1.7726L2.20651 1.70415H7.41857C12.0534 1.70415 12.6433 1.70918 12.7447 1.74968C12.9886 1.84711 13.1193 2.0486 13.1204 2.32921L13.1211 2.49835H13.4903H13.8596V2.29553C13.8596 1.68185 13.4141 1.15571 12.7887 1.03079C12.673 1.00764 11.1116 0.998756 7.40356 1.00014C3.01121 1.00176 2.15583 1.00867 2.02033 1.04356ZM4.43392 3.23633C4.06064 3.32093 3.70864 3.59499 3.54243 3.9304L3.4431 4.13086V11.0874V18.044L3.51532 18.2151C3.61429 18.4496 3.89854 18.7366 4.14638 18.8523C4.25365 18.9023 4.42871 18.9531 4.55091 18.9697C4.68228 18.9875 6.0664 18.9991 8.09914 18.9994L11.432 19L14.216 16.3776L17 13.7552L16.9915 8.98717L16.983 4.21911L16.9077 4.03544C16.7677 3.694 16.4883 3.422 16.1368 3.28499L15.9675 3.21901L10.2592 3.21442C6.95902 3.21177 4.50155 3.22101 4.43392 3.23633ZM15.9149 3.96623C16.0527 4.03377 16.152 4.13151 16.1963 4.24308C16.219 4.30041 16.2291 5.70926 16.2291 8.82366V13.3214L14.0666 13.3295L11.9042 13.3377L11.6973 13.435C11.315 13.615 11.0445 13.9503 10.9697 14.3372C10.9478 14.4505 10.9362 15.1644 10.9362 16.4022V18.294H7.802C5.48538 18.294 4.64052 18.285 4.56319 18.2596C4.40317 18.2068 4.29535 18.1186 4.22771 17.985C4.16684 17.8648 4.16626 17.8003 4.16626 11.1066C4.16626 5.09246 4.17146 4.33768 4.21358 4.24129C4.27734 4.09545 4.34295 4.02985 4.48937 3.96558C4.60735 3.91378 4.84411 3.91152 10.2066 3.9109C15.6455 3.91028 15.8039 3.91181 15.9149 3.96623ZM8.60359 5.78318C8.34741 5.90384 8.3504 6.27475 8.60848 6.39182C8.70213 6.4343 8.89002 6.43992 10.2177 6.4398C11.6712 6.43971 11.7243 6.43774 11.8228 6.38032C11.88 6.34697 11.9457 6.27296 11.9728 6.21131C12.0379 6.0632 11.9806 5.89669 11.8318 5.80112L11.7272 5.73396L10.2162 5.73464C8.88365 5.73523 8.6932 5.74097 8.60359 5.78318ZM5.92995 8.17392C5.80865 8.24463 5.76643 8.31702 5.76643 8.45436C5.76643 8.59193 5.83191 8.71059 5.93771 8.76471C6.05446 8.82445 7.41039 8.82786 7.52597 8.76874C7.68996 8.68485 7.76153 8.41256 7.65706 8.27001C7.55354 8.1287 7.48002 8.11656 6.72961 8.11667C6.08917 8.11676 6.01944 8.12176 5.92995 8.17392ZM8.57639 8.17392C8.4557 8.24425 8.41286 8.31699 8.41286 8.4515C8.41286 8.58678 8.46484 8.69164 8.56377 8.75591C8.63827 8.8043 8.82066 8.80839 11.2747 8.81666C13.0235 8.82257 13.9425 8.81533 14.0153 8.79509C14.2523 8.72926 14.3591 8.47968 14.2334 8.28534C14.1979 8.23042 14.1332 8.16997 14.0897 8.15103C14.0312 8.12553 13.3166 8.11659 11.3425 8.11667C8.7549 8.11676 8.67148 8.1185 8.57639 8.17392ZM5.96645 10.2508C5.91567 10.2757 5.85022 10.3253 5.82096 10.3609C5.75341 10.4431 5.74972 10.6692 5.81446 10.7575C5.91783 10.8986 5.99202 10.911 6.73576 10.911C7.4795 10.911 7.55369 10.8986 7.65706 10.7575C7.6838 10.721 7.7051 10.6316 7.7051 10.5557C7.7051 10.405 7.6205 10.2875 7.47347 10.2341C7.4294 10.2181 7.09309 10.2051 6.72607 10.2052C6.18515 10.2053 6.04129 10.214 5.96645 10.2508ZM8.61289 10.2508C8.4709 10.3206 8.41431 10.4088 8.41354 10.5614C8.41277 10.7157 8.4833 10.8242 8.61953 10.8781C8.68249 10.903 9.41753 10.9099 11.3925 10.9041L14.0797 10.8962L14.1851 10.7864C14.3508 10.6135 14.3203 10.4085 14.1085 10.2721L14.0044 10.205L11.3548 10.2052C9.02678 10.2054 8.694 10.2109 8.61289 10.2508ZM15.6752 14.0099C15.6752 14.0285 11.7351 17.7201 11.7044 17.7303C11.6593 17.7452 11.665 14.5922 11.7104 14.4197C11.7526 14.2595 11.93 14.0744 12.0813 14.0327C12.1737 14.0072 15.6752 13.9851 15.6752 14.0099Z" fill="#F2F2F2"/>
<path fill-rule="evenodd" clip-rule="evenodd" d="M2.02033 1.04356C1.60937 1.14933 1.30973 1.38771 1.12642 1.75471L1.01207 1.98359L1.00266 8.38129C0.995547 13.2044 1.00213 14.8188 1.02943 14.9408C1.16975 15.5677 1.72535 15.9703 2.45044 15.9703H2.69111L2.68247 15.6247L2.67379 15.279L2.40918 15.2638C2.10293 15.2462 1.94826 15.1711 1.82364 14.9795L1.75061 14.8672V8.47942V2.0916L1.84293 1.96632C1.8937 1.8974 1.99627 1.81022 2.07086 1.7726L2.20651 1.70415H7.41857C12.0534 1.70415 12.6433 1.70918 12.7447 1.74968C12.9886 1.84711 13.1193 2.0486 13.1204 2.32921L13.1211 2.49835H13.4903H13.8596V2.29553C13.8596 1.68185 13.4141 1.15571 12.7887 1.03079C12.673 1.00764 11.1116 0.998756 7.40356 1.00014C3.01121 1.00176 2.15583 1.00867 2.02033 1.04356ZM4.43392 3.23633C4.06064 3.32093 3.70864 3.59499 3.54243 3.9304L3.4431 4.13086V11.0874V18.044L3.51532 18.2151C3.61429 18.4496 3.89854 18.7366 4.14638 18.8523C4.25365 18.9023 4.42871 18.9531 4.55091 18.9697C4.68228 18.9875 6.0664 18.9991 8.09914 18.9994L11.432 19L14.216 16.3776L17 13.7552L16.9915 8.98717L16.983 4.21911L16.9077 4.03544C16.7677 3.694 16.4883 3.422 16.1368 3.28499L15.9675 3.21901L10.2592 3.21442C6.95902 3.21177 4.50155 3.22101 4.43392 3.23633ZM15.9149 3.96623C16.0527 4.03377 16.152 4.13151 16.1963 4.24308C16.219 4.30041 16.2291 5.70926 16.2291 8.82366V13.3214L14.0666 13.3295L11.9042 13.3377L11.6973 13.435C11.315 13.615 11.0445 13.9503 10.9697 14.3372C10.9478 14.4505 10.9362 15.1644 10.9362 16.4022V18.294H7.802C5.48538 18.294 4.64052 18.285 4.56319 18.2596C4.40317 18.2068 4.29535 18.1186 4.22771 17.985C4.16684 17.8648 4.16626 17.8003 4.16626 11.1066C4.16626 5.09246 4.17146 4.33768 4.21358 4.24129C4.27734 4.09545 4.34295 4.02985 4.48937 3.96558C4.60735 3.91378 4.84411 3.91152 10.2066 3.9109C15.6455 3.91028 15.8039 3.91181 15.9149 3.96623ZM8.60359 5.78318C8.34741 5.90384 8.3504 6.27475 8.60848 6.39182C8.70213 6.4343 8.89002 6.43992 10.2177 6.4398C11.6712 6.43971 11.7243 6.43774 11.8228 6.38032C11.88 6.34697 11.9457 6.27296 11.9728 6.21131C12.0379 6.0632 11.9806 5.89669 11.8318 5.80112L11.7272 5.73396L10.2162 5.73464C8.88365 5.73523 8.6932 5.74097 8.60359 5.78318ZM5.92995 8.17392C5.80865 8.24463 5.76643 8.31702 5.76643 8.45436C5.76643 8.59193 5.83191 8.71059 5.93771 8.76471C6.05446 8.82445 7.41039 8.82786 7.52597 8.76874C7.68996 8.68485 7.76153 8.41256 7.65706 8.27001C7.55354 8.1287 7.48002 8.11656 6.72961 8.11667C6.08917 8.11676 6.01944 8.12176 5.92995 8.17392ZM8.57639 8.17392C8.4557 8.24425 8.41286 8.31699 8.41286 8.4515C8.41286 8.58678 8.46484 8.69164 8.56377 8.75591C8.63827 8.8043 8.82066 8.80839 11.2747 8.81666C13.0235 8.82257 13.9425 8.81533 14.0153 8.79509C14.2523 8.72926 14.3591 8.47968 14.2334 8.28534C14.1979 8.23042 14.1332 8.16997 14.0897 8.15103C14.0312 8.12553 13.3166 8.11659 11.3425 8.11667C8.7549 8.11676 8.67148 8.1185 8.57639 8.17392ZM5.96645 10.2508C5.91567 10.2757 5.85022 10.3253 5.82096 10.3609C5.75341 10.4431 5.74972 10.6692 5.81446 10.7575C5.91783 10.8986 5.99202 10.911 6.73576 10.911C7.4795 10.911 7.55369 10.8986 7.65706 10.7575C7.6838 10.721 7.7051 10.6316 7.7051 10.5557C7.7051 10.405 7.6205 10.2875 7.47347 10.2341C7.4294 10.2181 7.09309 10.2051 6.72607 10.2052C6.18515 10.2053 6.04129 10.214 5.96645 10.2508ZM8.61289 10.2508C8.4709 10.3206 8.41431 10.4088 8.41354 10.5614C8.41277 10.7157 8.4833 10.8242 8.61953 10.8781C8.68249 10.903 9.41753 10.9099 11.3925 10.9041L14.0797 10.8962L14.1851 10.7864C14.3508 10.6135 14.3203 10.4085 14.1085 10.2721L14.0044 10.205L11.3548 10.2052C9.02678 10.2054 8.694 10.2109 8.61289 10.2508ZM15.6752 14.0099C15.6752 14.0285 11.7351 17.7201 11.7044 17.7303C11.6593 17.7452 11.665 14.5922 11.7104 14.4197C11.7526 14.2595 11.93 14.0744 12.0813 14.0327C12.1737 14.0072 15.6752 13.9851 15.6752 14.0099Z" stroke="#F2F2F2" stroke-width="0.6" stroke-linejoin="round" mask="url(#path-1-outside-1_1708_19603)"/>
</svg>
