<svg width="22" height="22" viewBox="0 0 22 22" fill="none" xmlns="http://www.w3.org/2000/svg">
<path fill-rule="evenodd" clip-rule="evenodd" d="M15.2123 0.159225C14.0677 0.756628 13.2091 1.72507 12.8267 2.85017L12.7372 3.11333L9.20387 3.13902C5.26812 3.16766 5.51283 3.14649 4.78601 3.52116C4.37034 3.73544 3.76682 4.31541 3.54903 4.70988C3.46697 4.85848 3.01518 5.88336 2.54502 6.98739L1.69024 8.99472L1.39541 9.19514C0.807066 9.59512 0.400537 10.1232 0.152679 10.8094C0.0274233 11.1563 0.0219199 11.2154 0.00501598 12.3979C-0.00854643 13.3496 0.00393484 13.7041 0.0604449 13.9733C0.211941 14.6947 0.629771 15.362 1.21055 15.8101L1.54283 16.0664L1.5674 17.6708L1.59197 19.2753L1.7244 19.5262C1.92051 19.8979 2.06862 20.0509 2.41254 20.2373L2.72217 20.4052H4.7123H6.70244L7.01207 20.2373C7.35599 20.0509 7.5041 19.8979 7.70021 19.5262L7.83264 19.2753L7.84837 17.8875L7.86404 16.4998H11.0056H14.147V17.8036C14.147 19.244 14.1942 19.624 14.4389 20.1573C14.9458 21.2621 16.0883 22 17.2919 22C18.457 22 19.5786 21.3098 20.0861 20.2807C20.4507 19.5414 20.435 19.8441 20.436 13.5013L20.4368 7.8256L20.687 7.5818C22.2007 6.10629 22.4401 3.50628 21.2248 1.7404C20.8093 1.13666 20.065 0.499314 19.3803 0.160993C18.9482 -0.0524532 18.6809 -0.053534 18.4048 0.157014C18.081 0.403963 18.0782 0.42322 18.0782 2.42018V4.21755L17.685 4.41513L17.2919 4.61271L16.9005 4.41596L16.5091 4.21922L16.4951 2.35573C16.4817 0.561653 16.4774 0.48718 16.3798 0.356656C16.2146 0.135546 16.0363 0.0307147 15.7845 0.00679102C15.5832 -0.0123676 15.497 0.0106228 15.2123 0.159225ZM19.9416 2.67489C20.2973 3.20657 20.4123 3.60762 20.4123 4.31688C20.4123 5.28974 20.1449 5.88862 19.3681 6.6555C19.1181 6.90231 18.9084 7.11261 18.9022 7.12287C18.896 7.13314 18.8794 9.87164 18.8653 13.2084L18.8398 19.2753L18.7181 19.5209C18.5622 19.8357 18.267 20.1299 17.9553 20.281C17.7546 20.3783 17.6331 20.4003 17.2919 20.4007C16.9331 20.4011 16.8382 20.3825 16.6179 20.2681C16.2785 20.0919 16.0301 19.8361 15.8728 19.5006L15.744 19.2262L15.7195 13.2079C15.6954 7.29525 15.6932 7.18693 15.5966 7.03597C15.5426 6.95148 15.384 6.79232 15.2442 6.68223C14.9521 6.45223 14.5939 5.97361 14.4204 5.5813C14.2738 5.24985 14.1467 4.65564 14.1479 4.30666C14.1498 3.72439 14.4338 2.89502 14.7657 2.50202L14.9087 2.33279L14.9333 3.66038L14.9578 4.98797L15.0952 5.16796C15.2807 5.41088 16.9967 6.28186 17.2898 6.28186C17.431 6.28186 17.7172 6.16362 18.4055 5.82107C18.9146 5.56764 19.3795 5.30787 19.4385 5.24386C19.6334 5.03238 19.6506 4.89709 19.6506 3.57682C19.6506 2.87611 19.6601 2.30277 19.6716 2.30277C19.6832 2.30277 19.8047 2.47024 19.9416 2.67489ZM12.6569 5.11565C12.8129 6.03953 13.3042 7.00714 13.9214 7.60616L14.147 7.82516V8.2325V8.63984H8.84412H3.54122L4.21619 7.07179C4.58744 6.20935 4.95107 5.42523 5.02429 5.32929C5.21062 5.08504 5.46354 4.90343 5.76054 4.80061C5.99602 4.71911 6.2541 4.71351 9.30348 4.72358L12.5925 4.73444L12.6569 5.11565ZM14.147 12.5708V14.9297L8.4346 14.9165L2.72217 14.9032L2.47121 14.7708C2.09938 14.5748 1.94636 14.4267 1.75987 14.0829L1.59197 13.7734V12.5698C1.59197 11.388 1.59418 11.3618 1.71363 11.1206C1.92395 10.6961 2.33087 10.364 2.77131 10.2575C2.85239 10.2379 5.44507 10.2196 8.53288 10.2168L14.147 10.2118V12.5708ZM4.34376 11.0405C3.89153 11.1592 3.49449 11.4847 3.28697 11.9066C3.12108 12.2439 3.1168 12.8775 3.27818 13.2099C3.44672 13.5571 3.64652 13.766 3.98382 13.9478C4.26868 14.1014 4.32951 14.1153 4.7123 14.1143C5.06724 14.1134 5.16768 14.0936 5.38094 13.9829C5.75125 13.7905 5.90545 13.6417 6.0914 13.2969C6.24387 13.0142 6.25837 12.9512 6.25837 12.5698C6.25837 12.1882 6.24392 12.1255 6.09076 11.8415C5.81464 11.3297 5.38753 11.0547 4.81614 11.0209C4.63742 11.0103 4.42484 11.0191 4.34376 11.0405ZM8.32158 11.852C7.99598 11.9958 7.8091 12.3717 7.87873 12.7428C7.92178 12.9721 8.16694 13.2436 8.39003 13.309C8.50762 13.3434 9.17581 13.3564 10.3229 13.3464C12.0045 13.3319 12.0817 13.3271 12.2117 13.2299C12.4696 13.0374 12.55 12.8804 12.55 12.5698C12.55 12.2592 12.4696 12.1022 12.2117 11.9097C12.0812 11.8122 12.0082 11.8079 10.2738 11.7971C8.85022 11.7882 8.43995 11.7997 8.32158 11.852ZM6.28476 17.6788V18.8577H4.7123H3.13985V17.6788V16.4998H4.7123H6.28476V17.6788ZM16.948 18.1597C16.5896 18.3555 16.4359 18.759 16.5779 19.1309C16.703 19.4582 16.9399 19.6192 17.2968 19.6192C17.6023 19.6192 17.7607 19.5374 17.9523 19.281C18.0943 19.0907 18.0943 18.6248 17.9523 18.4345C17.6991 18.0955 17.2769 17.9799 16.948 18.1597Z" fill="#F2F2F2"/>
</svg>
