<svg width="20" height="20" viewBox="0 0 20 20" fill="none" xmlns="http://www.w3.org/2000/svg">
<path d="M17.328 2.20476L17.3279 2.20475C17.3068 2.19755 17.2503 2.18753 17.0583 2.17978C16.8714 2.17225 16.5674 2.16692 16.0626 2.16325C15.0536 2.15593 13.2476 2.15528 9.98499 2.15653C9.37977 2.15677 8.82385 2.15685 8.3131 2.15693C5.42101 2.15738 3.97758 2.15761 3.2363 2.18277C2.79505 2.19775 2.6181 2.22161 2.5337 2.25239C2.49844 2.26525 2.48352 2.27798 2.46956 2.29312C2.46228 2.30102 2.4558 2.30901 2.44665 2.3203C2.44401 2.32356 2.44114 2.3271 2.43798 2.33098C2.42474 2.3472 2.40853 2.36649 2.38755 2.38748C2.38755 2.38748 2.38755 2.38749 2.38755 2.38749L17.328 2.20476ZM17.328 2.20476C17.4085 2.23222 17.5255 2.30795 17.6093 2.39178C17.6296 2.41204 17.6483 2.42877 17.6642 2.44291L17.6688 2.447C17.6831 2.45965 17.694 2.46928 17.704 2.47922C17.7235 2.49849 17.738 2.51691 17.7512 2.54821C17.7816 2.62033 17.8059 2.75982 17.8208 3.09915C17.8462 3.67746 17.844 4.78897 17.8396 7.01909C17.8389 7.37528 17.8382 7.76001 17.8374 8.17565L17.8282 13.5133L17.763 13.6353C17.7267 13.7032 17.6407 13.8106 17.5768 13.8667L17.6428 13.9419M17.328 2.20476L17.6428 13.9419M17.6428 13.9419L17.5768 13.8667C17.56 13.8815 17.5456 13.8944 17.5329 13.9059C17.487 13.9472 17.4619 13.9698 17.421 13.9896C17.37 14.0142 17.2902 14.0347 17.1165 14.0491C16.8026 14.0751 16.2251 14.0788 15.057 14.0865C14.9305 14.0873 14.797 14.0882 14.6562 14.0891C13.4465 14.0973 12.7925 14.1028 12.43 14.1136C12.2495 14.119 12.1373 14.1257 12.0637 14.1354C11.9886 14.1453 11.9433 14.1595 11.9032 14.1858C11.8791 14.2016 11.859 14.2253 11.8435 14.2456C11.8261 14.2683 11.8065 14.2974 11.7846 14.3327C11.7405 14.4035 11.683 14.5055 11.6084 14.6445C11.4592 14.923 11.2385 15.3564 10.9162 16.001C10.6808 16.472 10.4584 16.9099 10.2899 17.2359C10.2056 17.399 10.135 17.5338 10.0829 17.6306C10.0569 17.6791 10.0357 17.7176 10.02 17.7452C10.0121 17.7591 10.006 17.7696 10.0014 17.7771C10.0009 17.7779 10.0004 17.7786 10 17.7793C9.99958 17.7786 9.99912 17.7779 9.99862 17.7771C9.99404 17.7696 9.98785 17.7591 9.97997 17.7452C9.96426 17.7176 9.94313 17.6791 9.91708 17.6306C9.86504 17.5338 9.79437 17.399 9.71009 17.2359C9.54157 16.9099 9.31922 16.472 9.08378 16.001C8.76153 15.3564 8.54084 14.923 8.39156 14.6445C8.31702 14.5055 8.25945 14.4035 8.21543 14.3327C8.19346 14.2974 8.17391 14.2683 8.15654 14.2456C8.141 14.2253 8.12089 14.2016 8.09683 14.1858C8.05674 14.1595 8.01136 14.1453 7.9363 14.1354C7.86269 14.1257 7.75052 14.119 7.56998 14.1136C7.2075 14.1028 6.55352 14.0973 5.34378 14.0891C4.13853 14.081 3.48653 14.0754 3.11941 14.0646C2.74576 14.0536 2.68368 14.0366 2.64025 14.017L2.64023 14.017M17.6428 13.9419L2.64023 14.017M2.64023 14.017C2.48473 13.947 2.32444 13.7956 2.23579 13.6316M2.64023 14.017L2.23579 13.6316M9.53409 4.73643C9.5635 4.66048 9.6348 4.57673 9.72808 4.51071C9.82246 4.44391 9.92343 4.4065 10 4.4065C10.0097 4.4065 10.0365 4.41054 10.0761 4.42177C10.1131 4.43231 10.1532 4.44682 10.1866 4.46223C10.3304 4.52862 10.4244 4.62665 10.4667 4.73836C10.4662 4.73712 10.4662 4.73729 10.4666 4.73939C10.4673 4.74308 10.4691 4.75274 10.4712 4.77121C10.4741 4.79629 10.4769 4.83018 10.4796 4.87233C10.4848 4.95645 10.4891 5.06934 10.4924 5.20203C10.4989 5.46717 10.5015 5.80809 10.5003 6.14905C10.4991 6.49002 10.4942 6.83018 10.4858 7.09378C10.4816 7.22571 10.4765 7.33762 10.4707 7.42056C10.4678 7.46214 10.4648 7.49533 10.4617 7.51964C10.4589 7.54196 10.4568 7.55007 10.457 7.55014C10.4571 7.55014 10.4571 7.55007 10.4572 7.54994C10.4311 7.61122 10.3756 7.68042 10.3045 7.73852C10.2323 7.79746 10.1554 7.83569 10.0956 7.8458L10.0956 7.84581C9.86321 7.88509 9.614 7.74323 9.53345 7.53058C9.53378 7.53147 9.53396 7.53196 9.53402 7.53194C9.53424 7.53189 9.53241 7.52382 9.53007 7.50162C9.52752 7.47746 9.52503 7.44441 9.52267 7.40305C9.51797 7.32054 9.51401 7.2089 9.51084 7.07725C9.50448 6.81418 9.50131 6.47418 9.50134 6.13382C9.50136 5.79347 9.50458 5.4535 9.51097 5.19052C9.51417 5.05891 9.51814 4.94732 9.52285 4.86487C9.52522 4.82354 9.52771 4.79053 9.53026 4.76641C9.53261 4.74433 9.53442 4.7363 9.5342 4.73625C9.53418 4.73624 9.53414 4.7363 9.53409 4.73643ZM9.53409 4.73643C9.53384 4.73707 9.53359 4.73772 9.53335 4.73836L9.53333 4.73839C9.53371 4.73741 9.53395 4.73673 9.53409 4.73643ZM2.23579 13.6316L2.17176 13.513L2.23579 13.6316ZM10.1999 11.307L10.1645 11.4006C9.76157 11.2483 9.35664 11.7014 9.5609 12.102L10.1999 11.307ZM10.1999 11.307L10.1645 11.4006C10.4426 11.5057 10.5725 11.8404 10.4391 12.102M10.1999 11.307L10.4391 12.102M10.4391 12.102C10.3897 12.1989 10.3371 12.2566 10.2746 12.2922C10.211 12.3284 10.1259 12.348 10 12.348C9.87409 12.348 9.78902 12.3284 9.72535 12.2922C9.66286 12.2566 9.61033 12.1989 9.5609 12.102L10.4391 12.102ZM2.42128 0.973243L2.42127 0.973246C2.05427 1.06942 1.77597 1.23521 1.4908 1.52444L1.49079 1.52444C1.20663 1.81267 1.07052 2.05158 0.97213 2.43649C0.934791 2.58255 0.917705 2.69591 0.908893 3.41667C0.90005 4.13997 0.899771 5.48436 0.90007 8.1007C0.900102 8.37557 0.900108 8.63708 0.900114 8.88593C0.900169 11.3232 0.900196 12.5452 0.92498 13.2028C0.938602 13.5642 0.959851 13.7635 0.995443 13.9029C1.02542 14.0204 1.06621 14.0955 1.11129 14.1786C1.121 14.1964 1.13091 14.2147 1.14095 14.2338L1.22948 14.1873L1.14095 14.2338C1.38175 14.6922 1.83527 15.074 2.33637 15.2417L2.36811 15.1469L2.33637 15.2417C2.39519 15.2614 2.44677 15.2779 2.52812 15.2902C2.60698 15.3021 2.7123 15.31 2.88072 15.3157C3.21776 15.3271 3.82306 15.3305 5.00828 15.3365L7.35639 15.3484L8.07861 16.795C8.28502 17.2084 8.48983 17.6085 8.65361 17.9201C8.81522 18.2276 8.94139 18.4579 8.98808 18.5236C9.25671 18.9018 9.62386 19.1 10 19.1C10.3761 19.1 10.7433 18.9018 11.0119 18.5236C11.0586 18.4579 11.1848 18.2276 11.3464 17.9201C11.5102 17.6085 11.715 17.2084 11.9214 16.795L12.6436 15.3484L14.9917 15.336C15.1003 15.3355 15.2042 15.3349 15.3038 15.3344C16.432 15.3287 17.0032 15.3258 17.34 15.2965C17.5255 15.2804 17.6468 15.2558 17.754 15.2158C17.8422 15.1829 17.919 15.1398 18.0086 15.0896C18.0253 15.0803 18.0424 15.0707 18.0601 15.0609L18.0116 14.9734C18.4645 14.7223 18.8417 14.2122 18.9489 13.7057L19.0468 13.7265C19.0468 13.7265 19.0468 13.7264 19.0468 13.7264C19.0594 13.6667 19.068 13.5656 19.0747 13.385C19.0815 13.202 19.0865 12.9304 19.0902 12.5247C19.0975 11.7132 19.0997 10.3615 19.0999 8.1007C19.1002 5.48109 19.1 4.13678 19.0911 3.4142C19.0823 2.69409 19.0651 2.58219 19.0276 2.43551C18.9309 2.05735 18.7691 1.78154 18.4754 1.48989C18.1901 1.20646 17.9509 1.07041 17.5633 0.971203L17.5632 0.971199C17.4156 0.933424 17.2993 0.916542 16.3413 0.907961C15.3786 0.899338 13.5564 0.899489 9.98556 0.900438C6.45257 0.901388 4.62982 0.902372 3.65913 0.911325C2.6941 0.920226 2.56132 0.93656 2.42128 0.973243ZM8.2853 4.5461L8.38321 4.56641L8.28529 4.5461C8.27697 4.58623 8.27123 4.65167 8.26679 4.73636C8.26223 4.82325 8.25879 4.93671 8.25641 5.07667C8.25165 5.3567 8.25109 5.74558 8.25466 6.24564C8.25991 6.97862 8.26284 7.35503 8.27482 7.57281C8.28083 7.68226 8.28932 7.75616 8.30273 7.81738C8.31639 7.87972 8.33451 7.9257 8.35507 7.97674C8.54834 8.45653 8.98785 8.87343 9.46721 9.0282L9.49794 8.93304L9.46722 9.0282C9.61848 9.07703 9.81256 9.09963 10.0024 9.09917C10.1924 9.09872 10.3874 9.07517 10.5405 9.02578L10.5098 8.93061L10.5405 9.02578C11.0148 8.8728 11.452 8.45571 11.6449 7.97674C11.6655 7.9257 11.6836 7.87972 11.6973 7.81738C11.7107 7.75616 11.7192 7.68226 11.7252 7.57281C11.7372 7.35503 11.7401 6.97862 11.7453 6.24564C11.7489 5.74558 11.7484 5.3567 11.7436 5.07667C11.7412 4.93671 11.7378 4.82325 11.7332 4.73636C11.7288 4.65167 11.723 4.58623 11.7147 4.5461L11.6168 4.56641L11.7147 4.54609C11.5917 3.9531 11.1332 3.45038 10.5372 3.24657L10.5371 3.24657C10.4381 3.21271 10.28 3.18713 10.1318 3.17328C9.98486 3.15955 9.82891 3.15556 9.73578 3.17271C9.64397 3.18961 9.50959 3.2335 9.38379 3.28245C9.25808 3.33137 9.12984 3.38967 9.05186 3.43892L9.10526 3.52347L9.05185 3.43892C8.68459 3.6709 8.3737 4.12001 8.2853 4.5461ZM8.46221 11.0318L8.55046 11.0788L8.4622 11.0318C8.10795 11.6966 8.20154 12.4954 8.70128 13.0425L8.77512 12.9751L8.70129 13.0425C9.05534 13.4301 9.48254 13.6208 10 13.6208C11.1455 13.6208 11.9831 12.5444 11.6953 11.4391C11.4567 10.5224 10.5122 9.94622 9.60191 10.1671C9.13851 10.2796 8.67763 10.6275 8.46221 11.0318Z" fill="#F2F2F2" stroke="#F2F2F2" stroke-width="0.2"/>
</svg>
