<svg width="20" height="20" viewBox="0 0 20 20" fill="none" xmlns="http://www.w3.org/2000/svg">
<path d="M15.8333 2.50008C14.455 2.50008 13.3333 3.62175 13.3333 5.00008C13.3333 5.41841 13.4467 5.80675 13.6283 6.15425L12.6983 7.23925C12.1482 6.86557 11.4984 6.66609 10.8333 6.66675C10.2175 6.66675 9.64583 6.84675 9.15 7.13841L7.97167 5.96008C8.20574 5.53877 8.33011 5.06537 8.33333 4.58341C8.33333 2.97508 7.025 1.66675 5.41667 1.66675C3.80833 1.66675 2.5 2.97508 2.5 4.58341C2.5 6.19175 3.80833 7.50008 5.41667 7.50008C5.9175 7.50008 6.38167 7.36175 6.79333 7.13841L7.97167 8.31675C7.66643 8.82545 7.50353 9.40684 7.5 10.0001C7.5 10.8309 7.81667 11.5826 8.32083 12.1676L6.91083 13.5776L6.93167 13.5984C6.59097 13.4264 6.21501 13.3356 5.83333 13.3334C4.455 13.3334 3.33333 14.4551 3.33333 15.8334C3.33333 17.2117 4.455 18.3334 5.83333 18.3334C7.21167 18.3334 8.33333 17.2117 8.33333 15.8334C8.33333 15.4367 8.2325 15.0676 8.06833 14.7351L8.08917 14.7559L9.7175 13.1276C10.0683 13.2526 10.44 13.3334 10.8333 13.3334C12.6717 13.3334 14.1667 11.8384 14.1667 10.0001C14.1631 9.48242 14.0378 8.97286 13.8008 8.51258L14.845 7.29425C15.1483 7.42592 15.4817 7.50008 15.8333 7.50008C17.2117 7.50008 18.3333 6.37841 18.3333 5.00008C18.3333 3.62175 17.2117 2.50008 15.8333 2.50008V2.50008ZM5.83333 16.6667C5.61232 16.6667 5.40036 16.579 5.24408 16.4227C5.0878 16.2664 5 16.0544 5 15.8334C5 15.6124 5.0878 15.4004 5.24408 15.2442C5.40036 15.0879 5.61232 15.0001 5.83333 15.0001C6.05435 15.0001 6.26631 15.0879 6.42259 15.2442C6.57887 15.4004 6.66667 15.6124 6.66667 15.8334C6.66667 16.0544 6.57887 16.2664 6.42259 16.4227C6.26631 16.579 6.05435 16.6667 5.83333 16.6667ZM4.16667 4.58341C4.16667 3.89425 4.7275 3.33341 5.41667 3.33341C6.10583 3.33341 6.66667 3.89425 6.66667 4.58341C6.66667 5.27258 6.10583 5.83341 5.41667 5.83341C4.7275 5.83341 4.16667 5.27258 4.16667 4.58341ZM10.8333 11.6667C9.91417 11.6667 9.16667 10.9192 9.16667 10.0001C9.16667 9.08092 9.91417 8.33342 10.8333 8.33342C11.7525 8.33342 12.5 9.08092 12.5 10.0001C12.5 10.9192 11.7525 11.6667 10.8333 11.6667ZM15.8333 5.83341C15.6123 5.83341 15.4004 5.74562 15.2441 5.58934C15.0878 5.43306 15 5.2211 15 5.00008C15 4.77907 15.0878 4.56711 15.2441 4.41083C15.4004 4.25455 15.6123 4.16675 15.8333 4.16675C16.0543 4.16675 16.2663 4.25455 16.4226 4.41083C16.5789 4.56711 16.6667 4.77907 16.6667 5.00008C16.6667 5.2211 16.5789 5.43306 16.4226 5.58934C16.2663 5.74562 16.0543 5.83341 15.8333 5.83341Z" fill="#F2F2F2"/>
</svg>
