<svg width="18" height="20" viewBox="0 0 18 20" fill="none" xmlns="http://www.w3.org/2000/svg">
<path fill-rule="evenodd" clip-rule="evenodd" d="M15.99 17.9939H13V10.9939C13 10.4409 12.552 9.99385 12 9.99385H6C5.447 9.99385 5 10.4409 5 10.9939V17.9939H2L2.006 9.57685L8.998 2.42585L16 9.61785L15.99 17.9939ZM7 17.9939H11V11.9939H7V17.9939ZM17.424 8.17885L9.715 0.294854C9.338 -0.0901465 8.662 -0.0901465 8.285 0.294854L0.575 8.17985C0.21 8.55485 0 9.07885 0 9.61785V17.9939C0 19.0969 0.847 19.9939 1.888 19.9939H6H12H16.111C17.152 19.9939 18 19.0969 18 17.9939V9.61785C18 9.07885 17.79 8.55485 17.424 8.17885Z" fill="#F2F2F2"/>
</svg>
