<svg width="20" height="18" viewBox="0 0 20 18" fill="none" xmlns="http://www.w3.org/2000/svg">
<path d="M2.85415 0.424084L2.85416 0.424083C2.89723 0.415507 2.98619 0.409696 3.09896 0.404581C3.21775 0.399192 3.3777 0.394131 3.5735 0.389425C3.96528 0.380008 4.5034 0.371948 5.14865 0.365615C6.43929 0.352948 8.16037 0.347173 10.0005 0.351339C10.3532 0.352135 10.6882 0.352817 11.0065 0.353465C14.0151 0.359591 15.5296 0.362675 16.3627 0.429941C16.8239 0.467179 17.0956 0.525087 17.3016 0.624576C17.4686 0.705201 17.588 0.812772 17.7195 0.931098C17.7486 0.957314 17.7783 0.984058 17.8092 1.01115C18.1242 1.28709 18.3314 1.55462 18.461 1.9443C18.5876 2.3248 18.6374 2.81384 18.6606 3.5248C18.6724 3.88601 18.6766 4.17679 18.6685 4.40994C18.6604 4.64157 18.6398 4.8255 18.598 4.9691C18.5553 5.11562 18.4873 5.23076 18.3783 5.30958C18.2726 5.386 18.1464 5.41478 18.0161 5.42748C17.8814 5.44062 17.7474 5.43692 17.63 5.38022C17.5059 5.32022 17.4251 5.21356 17.3723 5.07395C17.3211 4.9385 17.2921 4.76152 17.2748 4.5399C17.2573 4.31637 17.2513 4.03651 17.2511 3.68999C17.2508 2.66902 17.219 2.49428 17.0876 2.27945L17.0875 2.2794C17.0681 2.24764 17.0513 2.21929 17.0362 2.19379C16.9671 2.07745 16.9333 2.02054 16.851 1.97016C16.7453 1.90541 16.5497 1.85151 16.0965 1.81722C15.2726 1.75489 13.6959 1.76102 10.5212 1.77337C10.2353 1.77448 9.93648 1.77564 9.62409 1.77681L2.85442 1.80204L2.58791 2.0679L2.32154 2.33361L2.29616 8.95249L2.27078 15.5707L2.59681 15.8958L2.59683 15.8958L2.92317 16.2214H4.61357C5.56065 16.2214 6.15401 16.2394 6.52236 16.3047C6.70695 16.3375 6.85182 16.3846 6.95933 16.4594C7.07397 16.5392 7.13538 16.6427 7.16524 16.7614M2.85415 0.424084L6.63471 17.4676L6.67112 17.6131C7.0378 17.5214 7.25759 17.1284 7.16524 16.7614M2.85415 0.424084C1.90314 0.613495 1.1119 1.45289 0.929409 2.44805C0.910931 2.54876 0.897303 2.77796 0.886347 3.11361C0.875208 3.45487 0.866604 3.91894 0.860568 4.49932C0.848494 5.66026 0.84667 7.28949 0.855591 9.33839C0.856842 9.62607 0.857992 9.90149 0.859093 10.1652C0.871407 13.1158 0.877612 14.6023 0.952128 15.4214C0.992808 15.8686 1.05506 16.1367 1.16103 16.3407C1.2494 16.5109 1.36679 16.6306 1.49625 16.7626C1.52054 16.7874 1.54525 16.8126 1.57028 16.8386L1.67845 16.7347L2.85415 0.424084ZM7.16524 16.7614L7.01977 16.798L7.16523 16.7614C7.16523 16.7614 7.16524 16.7614 7.16524 16.7614ZM11.4031 6.82728L11.4031 6.8273C11.0036 7.68112 11.183 8.74621 11.8455 9.43694L11.7373 9.54077L11.8455 9.43694C12.8006 10.4327 14.3908 10.3995 15.3298 9.3578C15.5553 9.10757 15.7012 8.87988 15.792 8.62618C15.8833 8.37144 15.9224 8.08085 15.921 7.69988C15.9177 6.81286 15.3781 5.98882 14.55 5.61361L11.4031 6.82728ZM11.4031 6.82728C11.513 6.5922 11.7133 6.32558 11.9476 6.09093C12.1825 5.85574 12.4396 5.66483 12.6555 5.57113L12.6556 5.57111M11.4031 6.82728L12.6556 5.57111M12.6556 5.57111C12.8468 5.48807 13.2064 5.44488 13.5913 5.45318M12.6556 5.57111L13.5913 5.45318M13.5913 5.45318C13.9748 5.46146 14.3433 5.52001 14.55 5.6136L13.5913 5.45318ZM3.21506 9.62726C3.21114 9.4584 3.27878 9.29303 3.40383 9.15518C3.45495 9.09881 3.51537 9.0529 3.6113 9.02025C3.69928 8.99031 3.81419 8.97257 3.97317 8.96057C4.29205 8.9365 4.83658 8.93282 5.80851 8.93282C6.73396 8.93282 7.23627 8.94197 7.52632 8.96903C7.67142 8.98256 7.77416 9.00139 7.85411 9.03065C7.94037 9.06222 7.99271 9.10328 8.03847 9.14461C8.03848 9.14462 8.03849 9.14463 8.0385 9.14464L7.93796 9.25595L3.21506 9.62726ZM3.21506 9.62726C3.21901 9.79699 3.29505 9.95604 3.4309 10.0787C3.54863 10.185 3.71213 10.2243 4.03719 10.2464C4.3702 10.269 4.91581 10.274 5.84153 10.274H5.90432C6.83379 10.2741 7.3184 10.2741 7.58615 10.2546C7.72211 10.2447 7.81976 10.2289 7.89616 10.1968C7.9811 10.161 8.02788 10.1097 8.06556 10.0682L3.21506 9.62726ZM3.21503 6.2179C3.21111 6.04904 3.27874 5.88367 3.40379 5.74582C3.4038 5.74581 3.4038 5.74581 3.4038 5.7458L3.5149 5.84659L3.21503 6.2179ZM3.21503 6.2179C3.21897 6.38763 3.29501 6.54668 3.43087 6.66934M3.21503 6.2179L3.43087 6.66934M3.43087 6.66934C3.54859 6.77568 3.71209 6.81498 4.03715 6.83702M3.43087 6.66934L4.03715 6.83702M4.03715 6.83702C4.37016 6.8596 4.91578 6.86469 5.84149 6.86469M4.03715 6.83702L5.84149 6.86469M5.84149 6.86469H5.89458M5.84149 6.86469H5.89458M5.89458 6.86469C6.83879 6.86469 7.49469 6.8647 7.9329 6.84546M5.89458 6.86469L7.9329 6.84546M7.9329 6.84546C8.15565 6.83568 8.32889 6.8207 8.45797 6.79661M7.9329 6.84546L8.45797 6.79661M8.45797 6.79661C8.57788 6.77422 8.69551 6.73843 8.76773 6.65881M8.45797 6.79661L8.76773 6.65881M8.76773 6.65881C8.89279 6.52096 8.96043 6.35559 8.9565 6.18672M8.76773 6.65881L8.9565 6.18672M8.9565 6.18672C8.95256 6.01699 8.87652 5.85794 8.74067 5.73528L8.9565 6.18672ZM8.24937 16.2663L8.2494 16.2664L16.1149 10.3096C16.6448 9.74447 16.9784 9.08727 17.1139 8.34157L17.2615 8.3684C17.2615 8.36839 17.2615 8.36839 17.2615 8.36838C17.6036 6.48662 16.3194 4.59099 14.4133 4.14338L14.4133 4.14338C14.0699 4.06276 13.791 4.02187 13.5107 4.02562C13.2302 4.02937 12.9555 4.07771 12.6205 4.16752C11.574 4.44804 10.6952 5.17335 10.1813 6.17463C10.058 6.41492 9.98277 6.5838 9.94234 6.81316C9.90322 7.03516 9.89759 7.30952 9.89759 7.75914C9.89759 8.22142 9.90198 8.49545 9.94628 8.72781C9.99161 8.96559 10.0776 9.15448 10.2224 9.44809C10.398 9.80422 10.7178 10.2575 10.9444 10.4617C11.0468 10.554 11.1391 10.6422 11.205 10.7097C11.2057 10.7104 11.2064 10.7111 11.2071 10.7118C11.1258 10.7608 11.0119 10.8234 10.8853 10.8874C10.1075 11.2806 9.41139 11.9681 8.90217 12.7701C8.3929 13.5721 8.06337 14.4998 8.03075 15.3817C8.02118 15.6401 8.02145 15.8204 8.04864 15.9515C8.06298 16.0207 8.08571 16.0817 8.12176 16.1365C8.15781 16.1912 8.20218 16.2319 8.24937 16.2663ZM16.069 10.7651L15.9478 10.7071L9.24957 15.2792L9.39851 15.297C9.39851 15.297 9.39851 15.297 9.39851 15.297C9.57201 13.8456 10.4324 12.6388 11.765 11.9818L11.7097 11.8697L11.765 11.9818C12.0876 11.8228 12.2698 11.7426 12.478 11.695C12.689 11.6468 12.9328 11.6307 13.3812 11.6142C14.5175 11.5722 15.2252 11.7672 16.0008 12.3223C17.0367 13.0638 17.5798 14.0424 17.7756 15.5612C17.8234 15.9318 17.9574 16.2284 18.1825 16.3608C18.4301 16.5064 18.7087 16.4152 18.9408 16.1837C19.0395 16.0852 19.1119 15.9915 19.1383 15.8369C19.1614 15.7017 19.1475 15.5248 19.1197 15.2658L18.9706 15.2818L19.1197 15.2658C18.997 14.1226 18.563 13.0736 17.8545 12.212C17.4203 11.6838 16.6068 11.0225 16.069 10.7651Z" fill="#F2F2F2" stroke="#F2F2F2" stroke-width="0.3"/>
</svg>
