<svg width="21" height="22" viewBox="0 0 21 22" fill="none" xmlns="http://www.w3.org/2000/svg">
<mask id="path-1-outside-1_1708_19551" maskUnits="userSpaceOnUse" x="0" y="-0.0588379" width="21" height="22" fill="black">
<rect fill="white" y="-0.0588379" width="21" height="22"/>
<path fill-rule="evenodd" clip-rule="evenodd" d="M9.58788 1.03953C9.51654 1.11547 9.48869 1.2208 9.46428 1.50762C9.42791 1.93474 9.38577 2.07369 9.29262 2.07369C9.25611 2.07369 9.04411 2.15142 8.82147 2.24647C8.49252 2.38686 8.40385 2.40937 8.34795 2.36661C8.31017 2.3377 8.15438 2.21094 8.0018 2.08497C7.57741 1.73462 7.56624 1.73806 6.86255 2.43471C6.40733 2.88539 6.27797 3.03893 6.27797 3.12854C6.27797 3.20657 6.37535 3.36063 6.58053 3.60709L6.88309 3.97055L6.77041 4.18692C6.70843 4.30592 6.61418 4.52086 6.561 4.66455L6.46433 4.92581L6.14026 4.96078C5.60288 5.01874 5.5289 5.03602 5.43983 5.1242C5.36128 5.20197 5.35433 5.27464 5.35433 6.01637C5.35433 6.80303 5.35697 6.82655 5.45637 6.92496C5.53888 7.00664 5.62522 7.03164 5.90719 7.0555C6.48957 7.10479 6.47291 7.09661 6.56171 7.37699C6.60503 7.51371 6.68754 7.71798 6.74512 7.83093C6.80265 7.94388 6.84975 8.05553 6.84975 8.07904C6.84975 8.10256 6.75435 8.23545 6.63775 8.3744C6.32904 8.74226 6.26482 8.85229 6.29328 8.96446C6.3293 9.10655 7.4737 10.2164 7.58418 10.2164C7.67976 10.2164 7.7851 10.1451 8.1721 9.81862L8.41687 9.61213L8.67158 9.73933C8.81162 9.80926 9.0314 9.89931 9.15992 9.93941C9.42303 10.0215 9.41555 10.0051 9.46956 10.6201C9.5142 11.129 9.5179 11.1308 10.5283 11.1308C11.5591 11.1308 11.4937 11.1827 11.5807 10.2971C11.6081 10.0192 11.6144 10.0067 11.7403 9.98178C11.8124 9.9675 12.0338 9.88045 12.2324 9.78831L12.5934 9.62084L12.9638 9.92217C13.4583 10.3243 13.4449 10.3278 14.1619 9.61409C14.8508 8.92836 14.8486 8.93816 14.4368 8.4479C14.2796 8.26066 14.1509 8.09154 14.1509 8.07208C14.1509 8.05265 14.2081 7.92459 14.2779 7.78756C14.3477 7.65057 14.4304 7.45401 14.4616 7.35081C14.4928 7.24762 14.5494 7.14712 14.5875 7.12748C14.6256 7.10788 14.8329 7.07762 15.0481 7.06029C15.3755 7.03395 15.4563 7.01209 15.5429 6.92635C15.6441 6.8262 15.6464 6.80621 15.6464 6.01637C15.6464 5.0942 15.6344 5.0608 15.2867 5.01704C15.1821 5.00384 14.9706 4.97794 14.8166 4.95943L14.5367 4.92581L14.4398 4.66455C14.3866 4.52086 14.2923 4.30592 14.2303 4.18692L14.1176 3.97055L14.4202 3.60709C14.6226 3.3639 14.7227 3.20614 14.7227 3.13037C14.7227 3.04341 14.5878 2.88226 14.1421 2.43654C13.4408 1.73544 13.4466 1.73705 12.9887 2.10835C12.8176 2.24717 12.6535 2.37523 12.6242 2.39296C12.5949 2.41068 12.4761 2.37798 12.3603 2.32032C12.2445 2.26267 12.0274 2.17167 11.8778 2.11806L11.6059 2.02066L11.5787 1.73148C11.5005 0.898008 11.5595 0.941552 10.508 0.941552C9.70597 0.941552 9.67712 0.944643 9.58788 1.03953ZM10.9597 1.82331C11.029 2.49415 11.0453 2.5205 11.4529 2.62422C11.5943 2.66014 11.9124 2.78942 12.16 2.91148C12.6792 3.16738 12.6598 3.16934 13.0859 2.81829C13.2341 2.69615 13.3717 2.59622 13.3916 2.59622C13.4115 2.59622 13.5538 2.72215 13.7079 2.87607L13.9881 3.15589L13.7176 3.49131C13.5689 3.67576 13.4473 3.86822 13.4476 3.91904C13.4477 3.96985 13.5456 4.2039 13.6651 4.43925C13.7845 4.67457 13.9061 4.97293 13.9354 5.10225C14.0044 5.40767 14.0944 5.49881 14.3574 5.52951C14.4737 5.54309 14.6727 5.56652 14.7997 5.58154L15.0306 5.60893V6.03509V6.46126L14.6125 6.4923C14.3216 6.5139 14.1692 6.54525 14.1114 6.59546C14.0657 6.63513 13.9851 6.81453 13.9323 6.99415C13.8795 7.17377 13.7487 7.48219 13.6418 7.67953C13.5347 7.87691 13.4472 8.07717 13.4472 8.12459C13.4472 8.17196 13.5743 8.3653 13.7295 8.55419L14.0119 8.89758L13.7097 9.1945L13.4075 9.49139L13.0792 9.2225C12.8607 9.04354 12.7122 8.95362 12.6352 8.95362C12.5715 8.95362 12.3768 9.03039 12.2026 9.12427C12.0284 9.21811 11.712 9.348 11.4995 9.41288C11.2516 9.48856 11.0972 9.5604 11.0686 9.61327C11.0315 9.68198 10.9417 10.2804 10.9405 10.4668C10.9403 10.5066 10.8242 10.5212 10.508 10.5212H10.0758L10.0315 10.0881C10.0071 9.84984 9.96182 9.62467 9.93081 9.58766C9.89976 9.55065 9.7332 9.47906 9.56061 9.42855C9.38802 9.37804 9.07754 9.25055 8.8706 9.14517C8.66366 9.03984 8.44282 8.95362 8.37979 8.95362C8.30414 8.95362 8.15781 9.04245 7.94933 9.21488C7.7756 9.35858 7.62095 9.47615 7.60565 9.47615C7.56364 9.47615 7.02568 8.93982 7.02568 8.89793C7.02568 8.8779 7.14444 8.72184 7.28958 8.55114C7.60327 8.1822 7.61475 8.10068 7.40222 7.75142C7.31905 7.61469 7.18649 7.30792 7.10767 7.0697C7.01539 6.7908 6.93222 6.61575 6.87407 6.57813C6.82442 6.54599 6.60072 6.50611 6.37693 6.48943L5.97009 6.45912V6.034V5.60893L6.17901 5.58455C6.29394 5.57118 6.49296 5.54775 6.6213 5.53251C6.90807 5.49846 6.99472 5.41451 7.06531 5.10225C7.09456 4.97293 7.21618 4.67457 7.33563 4.43925C7.45509 4.2039 7.55295 3.96985 7.55313 3.91904C7.55335 3.86822 7.43178 3.67571 7.28303 3.49122L7.01258 3.1558L7.31131 2.85774L7.61009 2.55968L7.95694 2.83924C8.14774 2.99295 8.34557 3.11874 8.39659 3.11874C8.44766 3.11874 8.58524 3.06035 8.70241 2.98898C8.9393 2.84468 9.35252 2.66689 9.55471 2.6223C9.9517 2.53478 9.99314 2.47547 10.0391 1.9293L10.0709 1.55117H10.5012H10.9316L10.9597 1.82331ZM9.85842 3.05021C8.97326 3.24938 8.16252 3.87253 7.77793 4.64931C7.52555 5.15908 7.44783 5.48775 7.45008 6.03618C7.45223 6.5679 7.53233 6.91599 7.75686 7.36971C8.32059 8.50882 9.59601 9.19355 10.8626 9.03705C11.6051 8.9453 12.1264 8.68983 12.6828 8.14514C12.9813 7.85283 13.0753 7.72486 13.242 7.38312C13.5002 6.85402 13.5998 6.38131 13.5671 5.83962C13.4921 4.59444 12.6484 3.52187 11.4362 3.13041C11.0135 2.9939 10.2754 2.95637 9.85842 3.05021ZM11.0943 3.66491C12.182 3.94538 12.9601 4.92551 12.9627 6.01833C12.9636 6.35057 12.8272 6.8876 12.6675 7.18117C12.478 7.5293 12.0408 7.96156 11.6985 8.13896C11.2714 8.36034 10.9382 8.44468 10.4971 8.44311C9.3209 8.43889 8.34557 7.63707 8.09892 6.47162C7.84214 5.25831 8.68046 3.96206 9.91296 3.6667C10.2593 3.58371 10.7763 3.58292 11.0943 3.66491ZM11.5559 5.02357C11.5197 5.03716 11.1962 5.32925 10.8372 5.67268L10.1844 6.29714L9.82609 5.97069C9.43745 5.61668 9.30071 5.56917 9.13687 5.73138C8.95395 5.91247 9.01064 6.02538 9.54794 6.55022C9.93433 6.92761 10.0737 7.03769 10.1652 7.03769C10.2583 7.03769 10.455 6.87523 11.0922 6.27223C11.5371 5.85121 11.9125 5.4773 11.9264 5.44133C12.0174 5.20654 11.7806 4.93949 11.5559 5.02357ZM14.5248 12.6994C14.2385 12.7401 14.0867 12.8057 13.3058 13.2261L12.6553 13.5762L11.6108 13.5605C10.4627 13.5432 10.5342 13.5568 9.7266 13.2028C9.12188 12.9376 8.75743 12.8622 8.08128 12.8622C7.35644 12.8622 6.98531 12.9472 6.34395 13.2603C6.01786 13.4195 5.78492 13.5769 5.44317 13.869C4.96974 14.2737 4.57987 14.5221 4.52212 14.4559C4.50418 14.4352 4.42325 14.1966 4.34228 13.9255C4.24305 13.5933 4.16582 13.4124 4.10516 13.3704C4.03167 13.3194 3.75743 13.308 2.60389 13.308C1.24433 13.308 1.189 13.3113 1.09628 13.3968C1.03395 13.4543 1 13.5374 1 13.6327C1 13.7661 1.80313 20.4064 1.86031 20.7456C1.87364 20.8247 1.92303 20.9276 1.97009 20.9742C2.05234 21.0556 2.13402 21.0588 4.1257 21.0588C5.45259 21.0588 6.22598 21.0428 6.27986 21.0143C6.47919 20.9086 6.47374 20.8419 6.19009 19.92C6.04227 19.4393 5.92729 19.0402 5.93468 19.0332C6.05036 18.9215 7.59527 18.0029 7.72585 17.9682C7.88463 17.9258 8.13296 17.9617 9.85173 18.2752L11.7979 18.6302L12.4136 18.6088C12.9075 18.5917 13.106 18.5647 13.4167 18.4727C14.0556 18.2835 13.6428 18.547 18.8472 15.0073C19.9872 14.2319 20.0435 14.1794 19.9845 13.9467C19.9402 13.7719 19.6228 13.4603 19.3331 13.307C19.0924 13.1798 19.0032 13.1576 18.669 13.1416C18.3499 13.1263 18.2371 13.1396 18.019 13.2183L17.7553 13.3135L17.584 13.1792C17.154 12.842 16.5965 12.7545 16.1462 12.9534L15.9204 13.0531L15.6844 12.924C15.2941 12.7104 14.9357 12.641 14.5248 12.6994ZM15.1209 13.3337C15.1948 13.3479 15.2489 13.3781 15.2413 13.4008C15.2336 13.4235 15.0298 13.5469 14.7883 13.6751L14.3493 13.9081L14.0893 13.7781C13.8033 13.6352 13.8011 13.6442 14.1666 13.4556C14.5055 13.2808 14.709 13.2548 15.1209 13.3337ZM8.95373 13.5702C9.12575 13.6174 9.43838 13.7346 9.6484 13.8307C10.3529 14.1529 10.3161 14.1476 12.0178 14.1754L13.5572 14.2007L13.8071 14.3221C13.9445 14.389 14.119 14.5136 14.1949 14.5991C14.3333 14.7552 14.5362 15.1216 14.5001 15.1503C14.4895 15.1587 14.0157 15.1459 13.4472 15.1219C12.3672 15.0762 11.3548 15.1208 11.163 15.2224C11.0362 15.2896 10.9863 15.4348 11.0388 15.5839C11.1075 15.7789 11.1868 15.795 11.7984 15.7379C12.233 15.6973 12.6394 15.6979 13.6545 15.7403L14.9541 15.7945L15.0583 15.6976C15.1157 15.6443 15.1626 15.5577 15.1626 15.5051C15.1626 15.4242 15.3977 15.2835 16.691 14.591C18.1299 13.8204 18.2356 13.7713 18.4962 13.7528C18.7807 13.7325 19.1056 13.816 19.2053 13.935C19.2421 13.9788 18.6551 14.3975 16.5547 15.8255C15.0709 16.8343 13.7597 17.7009 13.6411 17.7513C13.2591 17.9135 12.7518 18.0101 12.2817 18.0102C11.7768 18.0103 11.889 18.0269 9.66467 17.6212C7.90455 17.3001 7.80221 17.2914 7.4108 17.4271C7.32024 17.4585 6.91753 17.6908 6.51588 17.9434C6.11427 18.196 5.77102 18.4026 5.75317 18.4026C5.73535 18.4026 5.49674 17.6728 5.22299 16.7806C4.94924 15.8885 4.71877 15.139 4.71085 15.1151C4.70289 15.0911 4.82521 15.0146 4.98267 14.945C5.14866 14.8717 5.40909 14.6979 5.60261 14.5314C6.42562 13.8232 6.92795 13.5719 7.72941 13.4673C8.01055 13.4306 8.63665 13.4832 8.95373 13.5702ZM16.9937 13.5324C17.0631 13.5653 17.1173 13.6115 17.1142 13.6351C17.1111 13.6588 16.8142 13.8355 16.4544 14.0277C16.0947 14.22 15.6292 14.4698 15.42 14.5827L15.0397 14.7882L14.9261 14.5732L14.8125 14.3582L15.1305 14.1864C15.8859 13.7784 16.4207 13.4944 16.4821 13.4687C16.5769 13.4291 16.8466 13.4626 16.9937 13.5324ZM4.69102 17.1292C5.23337 18.8953 5.68574 20.3649 5.69634 20.3948C5.71151 20.4377 5.37056 20.4492 4.0855 20.4492H2.45544L2.43068 20.3077C2.39264 20.0903 1.65975 14.0938 1.65975 14.0001C1.65975 13.9215 1.708 13.9176 2.68235 13.9178L3.70496 13.9181L4.69102 17.1292ZM3.55841 18.8009C3.05172 19.0492 2.96679 19.7645 3.39937 20.1405C4.01482 20.6755 4.96006 20.0785 4.73839 19.2947C4.60006 18.8056 4.03303 18.5683 3.55841 18.8009ZM4.12126 19.4013C4.19313 19.5343 4.17532 19.6143 4.05683 19.6912C3.95496 19.7572 3.93877 19.7572 3.83691 19.6912C3.71908 19.6148 3.69106 19.4571 3.77973 19.3693C3.86334 19.2865 4.06967 19.3058 4.12126 19.4013Z"/>
</mask>
<path fill-rule="evenodd" clip-rule="evenodd" d="M9.58788 1.03953C9.51654 1.11547 9.48869 1.2208 9.46428 1.50762C9.42791 1.93474 9.38577 2.07369 9.29262 2.07369C9.25611 2.07369 9.04411 2.15142 8.82147 2.24647C8.49252 2.38686 8.40385 2.40937 8.34795 2.36661C8.31017 2.3377 8.15438 2.21094 8.0018 2.08497C7.57741 1.73462 7.56624 1.73806 6.86255 2.43471C6.40733 2.88539 6.27797 3.03893 6.27797 3.12854C6.27797 3.20657 6.37535 3.36063 6.58053 3.60709L6.88309 3.97055L6.77041 4.18692C6.70843 4.30592 6.61418 4.52086 6.561 4.66455L6.46433 4.92581L6.14026 4.96078C5.60288 5.01874 5.5289 5.03602 5.43983 5.1242C5.36128 5.20197 5.35433 5.27464 5.35433 6.01637C5.35433 6.80303 5.35697 6.82655 5.45637 6.92496C5.53888 7.00664 5.62522 7.03164 5.90719 7.0555C6.48957 7.10479 6.47291 7.09661 6.56171 7.37699C6.60503 7.51371 6.68754 7.71798 6.74512 7.83093C6.80265 7.94388 6.84975 8.05553 6.84975 8.07904C6.84975 8.10256 6.75435 8.23545 6.63775 8.3744C6.32904 8.74226 6.26482 8.85229 6.29328 8.96446C6.3293 9.10655 7.4737 10.2164 7.58418 10.2164C7.67976 10.2164 7.7851 10.1451 8.1721 9.81862L8.41687 9.61213L8.67158 9.73933C8.81162 9.80926 9.0314 9.89931 9.15992 9.93941C9.42303 10.0215 9.41555 10.0051 9.46956 10.6201C9.5142 11.129 9.5179 11.1308 10.5283 11.1308C11.5591 11.1308 11.4937 11.1827 11.5807 10.2971C11.6081 10.0192 11.6144 10.0067 11.7403 9.98178C11.8124 9.9675 12.0338 9.88045 12.2324 9.78831L12.5934 9.62084L12.9638 9.92217C13.4583 10.3243 13.4449 10.3278 14.1619 9.61409C14.8508 8.92836 14.8486 8.93816 14.4368 8.4479C14.2796 8.26066 14.1509 8.09154 14.1509 8.07208C14.1509 8.05265 14.2081 7.92459 14.2779 7.78756C14.3477 7.65057 14.4304 7.45401 14.4616 7.35081C14.4928 7.24762 14.5494 7.14712 14.5875 7.12748C14.6256 7.10788 14.8329 7.07762 15.0481 7.06029C15.3755 7.03395 15.4563 7.01209 15.5429 6.92635C15.6441 6.8262 15.6464 6.80621 15.6464 6.01637C15.6464 5.0942 15.6344 5.0608 15.2867 5.01704C15.1821 5.00384 14.9706 4.97794 14.8166 4.95943L14.5367 4.92581L14.4398 4.66455C14.3866 4.52086 14.2923 4.30592 14.2303 4.18692L14.1176 3.97055L14.4202 3.60709C14.6226 3.3639 14.7227 3.20614 14.7227 3.13037C14.7227 3.04341 14.5878 2.88226 14.1421 2.43654C13.4408 1.73544 13.4466 1.73705 12.9887 2.10835C12.8176 2.24717 12.6535 2.37523 12.6242 2.39296C12.5949 2.41068 12.4761 2.37798 12.3603 2.32032C12.2445 2.26267 12.0274 2.17167 11.8778 2.11806L11.6059 2.02066L11.5787 1.73148C11.5005 0.898008 11.5595 0.941552 10.508 0.941552C9.70597 0.941552 9.67712 0.944643 9.58788 1.03953ZM10.9597 1.82331C11.029 2.49415 11.0453 2.5205 11.4529 2.62422C11.5943 2.66014 11.9124 2.78942 12.16 2.91148C12.6792 3.16738 12.6598 3.16934 13.0859 2.81829C13.2341 2.69615 13.3717 2.59622 13.3916 2.59622C13.4115 2.59622 13.5538 2.72215 13.7079 2.87607L13.9881 3.15589L13.7176 3.49131C13.5689 3.67576 13.4473 3.86822 13.4476 3.91904C13.4477 3.96985 13.5456 4.2039 13.6651 4.43925C13.7845 4.67457 13.9061 4.97293 13.9354 5.10225C14.0044 5.40767 14.0944 5.49881 14.3574 5.52951C14.4737 5.54309 14.6727 5.56652 14.7997 5.58154L15.0306 5.60893V6.03509V6.46126L14.6125 6.4923C14.3216 6.5139 14.1692 6.54525 14.1114 6.59546C14.0657 6.63513 13.9851 6.81453 13.9323 6.99415C13.8795 7.17377 13.7487 7.48219 13.6418 7.67953C13.5347 7.87691 13.4472 8.07717 13.4472 8.12459C13.4472 8.17196 13.5743 8.3653 13.7295 8.55419L14.0119 8.89758L13.7097 9.1945L13.4075 9.49139L13.0792 9.2225C12.8607 9.04354 12.7122 8.95362 12.6352 8.95362C12.5715 8.95362 12.3768 9.03039 12.2026 9.12427C12.0284 9.21811 11.712 9.348 11.4995 9.41288C11.2516 9.48856 11.0972 9.5604 11.0686 9.61327C11.0315 9.68198 10.9417 10.2804 10.9405 10.4668C10.9403 10.5066 10.8242 10.5212 10.508 10.5212H10.0758L10.0315 10.0881C10.0071 9.84984 9.96182 9.62467 9.93081 9.58766C9.89976 9.55065 9.7332 9.47906 9.56061 9.42855C9.38802 9.37804 9.07754 9.25055 8.8706 9.14517C8.66366 9.03984 8.44282 8.95362 8.37979 8.95362C8.30414 8.95362 8.15781 9.04245 7.94933 9.21488C7.7756 9.35858 7.62095 9.47615 7.60565 9.47615C7.56364 9.47615 7.02568 8.93982 7.02568 8.89793C7.02568 8.8779 7.14444 8.72184 7.28958 8.55114C7.60327 8.1822 7.61475 8.10068 7.40222 7.75142C7.31905 7.61469 7.18649 7.30792 7.10767 7.0697C7.01539 6.7908 6.93222 6.61575 6.87407 6.57813C6.82442 6.54599 6.60072 6.50611 6.37693 6.48943L5.97009 6.45912V6.034V5.60893L6.17901 5.58455C6.29394 5.57118 6.49296 5.54775 6.6213 5.53251C6.90807 5.49846 6.99472 5.41451 7.06531 5.10225C7.09456 4.97293 7.21618 4.67457 7.33563 4.43925C7.45509 4.2039 7.55295 3.96985 7.55313 3.91904C7.55335 3.86822 7.43178 3.67571 7.28303 3.49122L7.01258 3.1558L7.31131 2.85774L7.61009 2.55968L7.95694 2.83924C8.14774 2.99295 8.34557 3.11874 8.39659 3.11874C8.44766 3.11874 8.58524 3.06035 8.70241 2.98898C8.9393 2.84468 9.35252 2.66689 9.55471 2.6223C9.9517 2.53478 9.99314 2.47547 10.0391 1.9293L10.0709 1.55117H10.5012H10.9316L10.9597 1.82331ZM9.85842 3.05021C8.97326 3.24938 8.16252 3.87253 7.77793 4.64931C7.52555 5.15908 7.44783 5.48775 7.45008 6.03618C7.45223 6.5679 7.53233 6.91599 7.75686 7.36971C8.32059 8.50882 9.59601 9.19355 10.8626 9.03705C11.6051 8.9453 12.1264 8.68983 12.6828 8.14514C12.9813 7.85283 13.0753 7.72486 13.242 7.38312C13.5002 6.85402 13.5998 6.38131 13.5671 5.83962C13.4921 4.59444 12.6484 3.52187 11.4362 3.13041C11.0135 2.9939 10.2754 2.95637 9.85842 3.05021ZM11.0943 3.66491C12.182 3.94538 12.9601 4.92551 12.9627 6.01833C12.9636 6.35057 12.8272 6.8876 12.6675 7.18117C12.478 7.5293 12.0408 7.96156 11.6985 8.13896C11.2714 8.36034 10.9382 8.44468 10.4971 8.44311C9.3209 8.43889 8.34557 7.63707 8.09892 6.47162C7.84214 5.25831 8.68046 3.96206 9.91296 3.6667C10.2593 3.58371 10.7763 3.58292 11.0943 3.66491ZM11.5559 5.02357C11.5197 5.03716 11.1962 5.32925 10.8372 5.67268L10.1844 6.29714L9.82609 5.97069C9.43745 5.61668 9.30071 5.56917 9.13687 5.73138C8.95395 5.91247 9.01064 6.02538 9.54794 6.55022C9.93433 6.92761 10.0737 7.03769 10.1652 7.03769C10.2583 7.03769 10.455 6.87523 11.0922 6.27223C11.5371 5.85121 11.9125 5.4773 11.9264 5.44133C12.0174 5.20654 11.7806 4.93949 11.5559 5.02357ZM14.5248 12.6994C14.2385 12.7401 14.0867 12.8057 13.3058 13.2261L12.6553 13.5762L11.6108 13.5605C10.4627 13.5432 10.5342 13.5568 9.7266 13.2028C9.12188 12.9376 8.75743 12.8622 8.08128 12.8622C7.35644 12.8622 6.98531 12.9472 6.34395 13.2603C6.01786 13.4195 5.78492 13.5769 5.44317 13.869C4.96974 14.2737 4.57987 14.5221 4.52212 14.4559C4.50418 14.4352 4.42325 14.1966 4.34228 13.9255C4.24305 13.5933 4.16582 13.4124 4.10516 13.3704C4.03167 13.3194 3.75743 13.308 2.60389 13.308C1.24433 13.308 1.189 13.3113 1.09628 13.3968C1.03395 13.4543 1 13.5374 1 13.6327C1 13.7661 1.80313 20.4064 1.86031 20.7456C1.87364 20.8247 1.92303 20.9276 1.97009 20.9742C2.05234 21.0556 2.13402 21.0588 4.1257 21.0588C5.45259 21.0588 6.22598 21.0428 6.27986 21.0143C6.47919 20.9086 6.47374 20.8419 6.19009 19.92C6.04227 19.4393 5.92729 19.0402 5.93468 19.0332C6.05036 18.9215 7.59527 18.0029 7.72585 17.9682C7.88463 17.9258 8.13296 17.9617 9.85173 18.2752L11.7979 18.6302L12.4136 18.6088C12.9075 18.5917 13.106 18.5647 13.4167 18.4727C14.0556 18.2835 13.6428 18.547 18.8472 15.0073C19.9872 14.2319 20.0435 14.1794 19.9845 13.9467C19.9402 13.7719 19.6228 13.4603 19.3331 13.307C19.0924 13.1798 19.0032 13.1576 18.669 13.1416C18.3499 13.1263 18.2371 13.1396 18.019 13.2183L17.7553 13.3135L17.584 13.1792C17.154 12.842 16.5965 12.7545 16.1462 12.9534L15.9204 13.0531L15.6844 12.924C15.2941 12.7104 14.9357 12.641 14.5248 12.6994ZM15.1209 13.3337C15.1948 13.3479 15.2489 13.3781 15.2413 13.4008C15.2336 13.4235 15.0298 13.5469 14.7883 13.6751L14.3493 13.9081L14.0893 13.7781C13.8033 13.6352 13.8011 13.6442 14.1666 13.4556C14.5055 13.2808 14.709 13.2548 15.1209 13.3337ZM8.95373 13.5702C9.12575 13.6174 9.43838 13.7346 9.6484 13.8307C10.3529 14.1529 10.3161 14.1476 12.0178 14.1754L13.5572 14.2007L13.8071 14.3221C13.9445 14.389 14.119 14.5136 14.1949 14.5991C14.3333 14.7552 14.5362 15.1216 14.5001 15.1503C14.4895 15.1587 14.0157 15.1459 13.4472 15.1219C12.3672 15.0762 11.3548 15.1208 11.163 15.2224C11.0362 15.2896 10.9863 15.4348 11.0388 15.5839C11.1075 15.7789 11.1868 15.795 11.7984 15.7379C12.233 15.6973 12.6394 15.6979 13.6545 15.7403L14.9541 15.7945L15.0583 15.6976C15.1157 15.6443 15.1626 15.5577 15.1626 15.5051C15.1626 15.4242 15.3977 15.2835 16.691 14.591C18.1299 13.8204 18.2356 13.7713 18.4962 13.7528C18.7807 13.7325 19.1056 13.816 19.2053 13.935C19.2421 13.9788 18.6551 14.3975 16.5547 15.8255C15.0709 16.8343 13.7597 17.7009 13.6411 17.7513C13.2591 17.9135 12.7518 18.0101 12.2817 18.0102C11.7768 18.0103 11.889 18.0269 9.66467 17.6212C7.90455 17.3001 7.80221 17.2914 7.4108 17.4271C7.32024 17.4585 6.91753 17.6908 6.51588 17.9434C6.11427 18.196 5.77102 18.4026 5.75317 18.4026C5.73535 18.4026 5.49674 17.6728 5.22299 16.7806C4.94924 15.8885 4.71877 15.139 4.71085 15.1151C4.70289 15.0911 4.82521 15.0146 4.98267 14.945C5.14866 14.8717 5.40909 14.6979 5.60261 14.5314C6.42562 13.8232 6.92795 13.5719 7.72941 13.4673C8.01055 13.4306 8.63665 13.4832 8.95373 13.5702ZM16.9937 13.5324C17.0631 13.5653 17.1173 13.6115 17.1142 13.6351C17.1111 13.6588 16.8142 13.8355 16.4544 14.0277C16.0947 14.22 15.6292 14.4698 15.42 14.5827L15.0397 14.7882L14.9261 14.5732L14.8125 14.3582L15.1305 14.1864C15.8859 13.7784 16.4207 13.4944 16.4821 13.4687C16.5769 13.4291 16.8466 13.4626 16.9937 13.5324ZM4.69102 17.1292C5.23337 18.8953 5.68574 20.3649 5.69634 20.3948C5.71151 20.4377 5.37056 20.4492 4.0855 20.4492H2.45544L2.43068 20.3077C2.39264 20.0903 1.65975 14.0938 1.65975 14.0001C1.65975 13.9215 1.708 13.9176 2.68235 13.9178L3.70496 13.9181L4.69102 17.1292ZM3.55841 18.8009C3.05172 19.0492 2.96679 19.7645 3.39937 20.1405C4.01482 20.6755 4.96006 20.0785 4.73839 19.2947C4.60006 18.8056 4.03303 18.5683 3.55841 18.8009ZM4.12126 19.4013C4.19313 19.5343 4.17532 19.6143 4.05683 19.6912C3.95496 19.7572 3.93877 19.7572 3.83691 19.6912C3.71908 19.6148 3.69106 19.4571 3.77973 19.3693C3.86334 19.2865 4.06967 19.3058 4.12126 19.4013Z" fill="#F2F2F2"/>
<path fill-rule="evenodd" clip-rule="evenodd" d="M9.58788 1.03953C9.51654 1.11547 9.48869 1.2208 9.46428 1.50762C9.42791 1.93474 9.38577 2.07369 9.29262 2.07369C9.25611 2.07369 9.04411 2.15142 8.82147 2.24647C8.49252 2.38686 8.40385 2.40937 8.34795 2.36661C8.31017 2.3377 8.15438 2.21094 8.0018 2.08497C7.57741 1.73462 7.56624 1.73806 6.86255 2.43471C6.40733 2.88539 6.27797 3.03893 6.27797 3.12854C6.27797 3.20657 6.37535 3.36063 6.58053 3.60709L6.88309 3.97055L6.77041 4.18692C6.70843 4.30592 6.61418 4.52086 6.561 4.66455L6.46433 4.92581L6.14026 4.96078C5.60288 5.01874 5.5289 5.03602 5.43983 5.1242C5.36128 5.20197 5.35433 5.27464 5.35433 6.01637C5.35433 6.80303 5.35697 6.82655 5.45637 6.92496C5.53888 7.00664 5.62522 7.03164 5.90719 7.0555C6.48957 7.10479 6.47291 7.09661 6.56171 7.37699C6.60503 7.51371 6.68754 7.71798 6.74512 7.83093C6.80265 7.94388 6.84975 8.05553 6.84975 8.07904C6.84975 8.10256 6.75435 8.23545 6.63775 8.3744C6.32904 8.74226 6.26482 8.85229 6.29328 8.96446C6.3293 9.10655 7.4737 10.2164 7.58418 10.2164C7.67976 10.2164 7.7851 10.1451 8.1721 9.81862L8.41687 9.61213L8.67158 9.73933C8.81162 9.80926 9.0314 9.89931 9.15992 9.93941C9.42303 10.0215 9.41555 10.0051 9.46956 10.6201C9.5142 11.129 9.5179 11.1308 10.5283 11.1308C11.5591 11.1308 11.4937 11.1827 11.5807 10.2971C11.6081 10.0192 11.6144 10.0067 11.7403 9.98178C11.8124 9.9675 12.0338 9.88045 12.2324 9.78831L12.5934 9.62084L12.9638 9.92217C13.4583 10.3243 13.4449 10.3278 14.1619 9.61409C14.8508 8.92836 14.8486 8.93816 14.4368 8.4479C14.2796 8.26066 14.1509 8.09154 14.1509 8.07208C14.1509 8.05265 14.2081 7.92459 14.2779 7.78756C14.3477 7.65057 14.4304 7.45401 14.4616 7.35081C14.4928 7.24762 14.5494 7.14712 14.5875 7.12748C14.6256 7.10788 14.8329 7.07762 15.0481 7.06029C15.3755 7.03395 15.4563 7.01209 15.5429 6.92635C15.6441 6.8262 15.6464 6.80621 15.6464 6.01637C15.6464 5.0942 15.6344 5.0608 15.2867 5.01704C15.1821 5.00384 14.9706 4.97794 14.8166 4.95943L14.5367 4.92581L14.4398 4.66455C14.3866 4.52086 14.2923 4.30592 14.2303 4.18692L14.1176 3.97055L14.4202 3.60709C14.6226 3.3639 14.7227 3.20614 14.7227 3.13037C14.7227 3.04341 14.5878 2.88226 14.1421 2.43654C13.4408 1.73544 13.4466 1.73705 12.9887 2.10835C12.8176 2.24717 12.6535 2.37523 12.6242 2.39296C12.5949 2.41068 12.4761 2.37798 12.3603 2.32032C12.2445 2.26267 12.0274 2.17167 11.8778 2.11806L11.6059 2.02066L11.5787 1.73148C11.5005 0.898008 11.5595 0.941552 10.508 0.941552C9.70597 0.941552 9.67712 0.944643 9.58788 1.03953ZM10.9597 1.82331C11.029 2.49415 11.0453 2.5205 11.4529 2.62422C11.5943 2.66014 11.9124 2.78942 12.16 2.91148C12.6792 3.16738 12.6598 3.16934 13.0859 2.81829C13.2341 2.69615 13.3717 2.59622 13.3916 2.59622C13.4115 2.59622 13.5538 2.72215 13.7079 2.87607L13.9881 3.15589L13.7176 3.49131C13.5689 3.67576 13.4473 3.86822 13.4476 3.91904C13.4477 3.96985 13.5456 4.2039 13.6651 4.43925C13.7845 4.67457 13.9061 4.97293 13.9354 5.10225C14.0044 5.40767 14.0944 5.49881 14.3574 5.52951C14.4737 5.54309 14.6727 5.56652 14.7997 5.58154L15.0306 5.60893V6.03509V6.46126L14.6125 6.4923C14.3216 6.5139 14.1692 6.54525 14.1114 6.59546C14.0657 6.63513 13.9851 6.81453 13.9323 6.99415C13.8795 7.17377 13.7487 7.48219 13.6418 7.67953C13.5347 7.87691 13.4472 8.07717 13.4472 8.12459C13.4472 8.17196 13.5743 8.3653 13.7295 8.55419L14.0119 8.89758L13.7097 9.1945L13.4075 9.49139L13.0792 9.2225C12.8607 9.04354 12.7122 8.95362 12.6352 8.95362C12.5715 8.95362 12.3768 9.03039 12.2026 9.12427C12.0284 9.21811 11.712 9.348 11.4995 9.41288C11.2516 9.48856 11.0972 9.5604 11.0686 9.61327C11.0315 9.68198 10.9417 10.2804 10.9405 10.4668C10.9403 10.5066 10.8242 10.5212 10.508 10.5212H10.0758L10.0315 10.0881C10.0071 9.84984 9.96182 9.62467 9.93081 9.58766C9.89976 9.55065 9.7332 9.47906 9.56061 9.42855C9.38802 9.37804 9.07754 9.25055 8.8706 9.14517C8.66366 9.03984 8.44282 8.95362 8.37979 8.95362C8.30414 8.95362 8.15781 9.04245 7.94933 9.21488C7.7756 9.35858 7.62095 9.47615 7.60565 9.47615C7.56364 9.47615 7.02568 8.93982 7.02568 8.89793C7.02568 8.8779 7.14444 8.72184 7.28958 8.55114C7.60327 8.1822 7.61475 8.10068 7.40222 7.75142C7.31905 7.61469 7.18649 7.30792 7.10767 7.0697C7.01539 6.7908 6.93222 6.61575 6.87407 6.57813C6.82442 6.54599 6.60072 6.50611 6.37693 6.48943L5.97009 6.45912V6.034V5.60893L6.17901 5.58455C6.29394 5.57118 6.49296 5.54775 6.6213 5.53251C6.90807 5.49846 6.99472 5.41451 7.06531 5.10225C7.09456 4.97293 7.21618 4.67457 7.33563 4.43925C7.45509 4.2039 7.55295 3.96985 7.55313 3.91904C7.55335 3.86822 7.43178 3.67571 7.28303 3.49122L7.01258 3.1558L7.31131 2.85774L7.61009 2.55968L7.95694 2.83924C8.14774 2.99295 8.34557 3.11874 8.39659 3.11874C8.44766 3.11874 8.58524 3.06035 8.70241 2.98898C8.9393 2.84468 9.35252 2.66689 9.55471 2.6223C9.9517 2.53478 9.99314 2.47547 10.0391 1.9293L10.0709 1.55117H10.5012H10.9316L10.9597 1.82331ZM9.85842 3.05021C8.97326 3.24938 8.16252 3.87253 7.77793 4.64931C7.52555 5.15908 7.44783 5.48775 7.45008 6.03618C7.45223 6.5679 7.53233 6.91599 7.75686 7.36971C8.32059 8.50882 9.59601 9.19355 10.8626 9.03705C11.6051 8.9453 12.1264 8.68983 12.6828 8.14514C12.9813 7.85283 13.0753 7.72486 13.242 7.38312C13.5002 6.85402 13.5998 6.38131 13.5671 5.83962C13.4921 4.59444 12.6484 3.52187 11.4362 3.13041C11.0135 2.9939 10.2754 2.95637 9.85842 3.05021ZM11.0943 3.66491C12.182 3.94538 12.9601 4.92551 12.9627 6.01833C12.9636 6.35057 12.8272 6.8876 12.6675 7.18117C12.478 7.5293 12.0408 7.96156 11.6985 8.13896C11.2714 8.36034 10.9382 8.44468 10.4971 8.44311C9.3209 8.43889 8.34557 7.63707 8.09892 6.47162C7.84214 5.25831 8.68046 3.96206 9.91296 3.6667C10.2593 3.58371 10.7763 3.58292 11.0943 3.66491ZM11.5559 5.02357C11.5197 5.03716 11.1962 5.32925 10.8372 5.67268L10.1844 6.29714L9.82609 5.97069C9.43745 5.61668 9.30071 5.56917 9.13687 5.73138C8.95395 5.91247 9.01064 6.02538 9.54794 6.55022C9.93433 6.92761 10.0737 7.03769 10.1652 7.03769C10.2583 7.03769 10.455 6.87523 11.0922 6.27223C11.5371 5.85121 11.9125 5.4773 11.9264 5.44133C12.0174 5.20654 11.7806 4.93949 11.5559 5.02357ZM14.5248 12.6994C14.2385 12.7401 14.0867 12.8057 13.3058 13.2261L12.6553 13.5762L11.6108 13.5605C10.4627 13.5432 10.5342 13.5568 9.7266 13.2028C9.12188 12.9376 8.75743 12.8622 8.08128 12.8622C7.35644 12.8622 6.98531 12.9472 6.34395 13.2603C6.01786 13.4195 5.78492 13.5769 5.44317 13.869C4.96974 14.2737 4.57987 14.5221 4.52212 14.4559C4.50418 14.4352 4.42325 14.1966 4.34228 13.9255C4.24305 13.5933 4.16582 13.4124 4.10516 13.3704C4.03167 13.3194 3.75743 13.308 2.60389 13.308C1.24433 13.308 1.189 13.3113 1.09628 13.3968C1.03395 13.4543 1 13.5374 1 13.6327C1 13.7661 1.80313 20.4064 1.86031 20.7456C1.87364 20.8247 1.92303 20.9276 1.97009 20.9742C2.05234 21.0556 2.13402 21.0588 4.1257 21.0588C5.45259 21.0588 6.22598 21.0428 6.27986 21.0143C6.47919 20.9086 6.47374 20.8419 6.19009 19.92C6.04227 19.4393 5.92729 19.0402 5.93468 19.0332C6.05036 18.9215 7.59527 18.0029 7.72585 17.9682C7.88463 17.9258 8.13296 17.9617 9.85173 18.2752L11.7979 18.6302L12.4136 18.6088C12.9075 18.5917 13.106 18.5647 13.4167 18.4727C14.0556 18.2835 13.6428 18.547 18.8472 15.0073C19.9872 14.2319 20.0435 14.1794 19.9845 13.9467C19.9402 13.7719 19.6228 13.4603 19.3331 13.307C19.0924 13.1798 19.0032 13.1576 18.669 13.1416C18.3499 13.1263 18.2371 13.1396 18.019 13.2183L17.7553 13.3135L17.584 13.1792C17.154 12.842 16.5965 12.7545 16.1462 12.9534L15.9204 13.0531L15.6844 12.924C15.2941 12.7104 14.9357 12.641 14.5248 12.6994ZM15.1209 13.3337C15.1948 13.3479 15.2489 13.3781 15.2413 13.4008C15.2336 13.4235 15.0298 13.5469 14.7883 13.6751L14.3493 13.9081L14.0893 13.7781C13.8033 13.6352 13.8011 13.6442 14.1666 13.4556C14.5055 13.2808 14.709 13.2548 15.1209 13.3337ZM8.95373 13.5702C9.12575 13.6174 9.43838 13.7346 9.6484 13.8307C10.3529 14.1529 10.3161 14.1476 12.0178 14.1754L13.5572 14.2007L13.8071 14.3221C13.9445 14.389 14.119 14.5136 14.1949 14.5991C14.3333 14.7552 14.5362 15.1216 14.5001 15.1503C14.4895 15.1587 14.0157 15.1459 13.4472 15.1219C12.3672 15.0762 11.3548 15.1208 11.163 15.2224C11.0362 15.2896 10.9863 15.4348 11.0388 15.5839C11.1075 15.7789 11.1868 15.795 11.7984 15.7379C12.233 15.6973 12.6394 15.6979 13.6545 15.7403L14.9541 15.7945L15.0583 15.6976C15.1157 15.6443 15.1626 15.5577 15.1626 15.5051C15.1626 15.4242 15.3977 15.2835 16.691 14.591C18.1299 13.8204 18.2356 13.7713 18.4962 13.7528C18.7807 13.7325 19.1056 13.816 19.2053 13.935C19.2421 13.9788 18.6551 14.3975 16.5547 15.8255C15.0709 16.8343 13.7597 17.7009 13.6411 17.7513C13.2591 17.9135 12.7518 18.0101 12.2817 18.0102C11.7768 18.0103 11.889 18.0269 9.66467 17.6212C7.90455 17.3001 7.80221 17.2914 7.4108 17.4271C7.32024 17.4585 6.91753 17.6908 6.51588 17.9434C6.11427 18.196 5.77102 18.4026 5.75317 18.4026C5.73535 18.4026 5.49674 17.6728 5.22299 16.7806C4.94924 15.8885 4.71877 15.139 4.71085 15.1151C4.70289 15.0911 4.82521 15.0146 4.98267 14.945C5.14866 14.8717 5.40909 14.6979 5.60261 14.5314C6.42562 13.8232 6.92795 13.5719 7.72941 13.4673C8.01055 13.4306 8.63665 13.4832 8.95373 13.5702ZM16.9937 13.5324C17.0631 13.5653 17.1173 13.6115 17.1142 13.6351C17.1111 13.6588 16.8142 13.8355 16.4544 14.0277C16.0947 14.22 15.6292 14.4698 15.42 14.5827L15.0397 14.7882L14.9261 14.5732L14.8125 14.3582L15.1305 14.1864C15.8859 13.7784 16.4207 13.4944 16.4821 13.4687C16.5769 13.4291 16.8466 13.4626 16.9937 13.5324ZM4.69102 17.1292C5.23337 18.8953 5.68574 20.3649 5.69634 20.3948C5.71151 20.4377 5.37056 20.4492 4.0855 20.4492H2.45544L2.43068 20.3077C2.39264 20.0903 1.65975 14.0938 1.65975 14.0001C1.65975 13.9215 1.708 13.9176 2.68235 13.9178L3.70496 13.9181L4.69102 17.1292ZM3.55841 18.8009C3.05172 19.0492 2.96679 19.7645 3.39937 20.1405C4.01482 20.6755 4.96006 20.0785 4.73839 19.2947C4.60006 18.8056 4.03303 18.5683 3.55841 18.8009ZM4.12126 19.4013C4.19313 19.5343 4.17532 19.6143 4.05683 19.6912C3.95496 19.7572 3.93877 19.7572 3.83691 19.6912C3.71908 19.6148 3.69106 19.4571 3.77973 19.3693C3.86334 19.2865 4.06967 19.3058 4.12126 19.4013Z" stroke="#F2F2F2" stroke-width="0.4" mask="url(#path-1-outside-1_1708_19551)"/>
</svg>
