<svg width="21" height="22" viewBox="0 0 21 22" fill="none" xmlns="http://www.w3.org/2000/svg">
<path fill-rule="evenodd" clip-rule="evenodd" d="M9.97646 0.757454C10.1959 0.647743 10.4542 0.647743 10.6736 0.757454L15.4375 3.13941C15.4438 3.14244 15.45 3.14557 15.4562 3.14877L20.2119 5.52664C20.3531 5.59529 20.4746 5.70691 20.5548 5.85425C20.5658 5.87451 20.576 5.89528 20.5852 5.91649C20.6313 6.02226 20.6521 6.1333 20.6499 6.24243V15.7727C20.6499 16.068 20.4831 16.3378 20.219 16.4699L10.687 21.2359C10.5913 21.2862 10.4838 21.3171 10.3698 21.3236C10.3549 21.3244 10.3399 21.3249 10.325 21.3249L10.3178 21.3248L10.3026 21.3245C10.2976 21.3244 10.2925 21.3242 10.2874 21.324C10.2846 21.3238 10.2817 21.3237 10.2789 21.3235C10.1652 21.3169 10.058 21.2859 9.96258 21.2356L0.43101 16.4699C0.166963 16.3378 0.000170708 16.068 0.000170708 15.7727V6.24297C-0.00227505 6.12632 0.0215117 6.00749 0.0744447 5.89522C0.0781242 5.88741 0.0819318 5.87966 0.0858655 5.87199C0.165864 5.71572 0.291565 5.59782 0.438466 5.52645L9.97646 0.757454ZM13.355 3.84093L10.325 2.32596L2.52235 6.22729L5.55229 7.74226L13.355 3.84093ZM7.29507 8.61365L15.0977 4.71232L18.1277 6.22729L10.325 10.1286L7.29507 8.61365ZM5.1974 9.30759C5.20126 9.30956 5.20514 9.3115 5.20903 9.31341L9.54561 11.4817V19.2844L1.55896 15.2911V7.48837L5.1974 9.30759ZM11.1044 19.2844V11.4817L19.0911 7.48837V15.2911L11.1044 19.2844Z" fill="#F2F2F2"/>
</svg>
