<svg width="19" height="20" viewBox="0 0 19 20" fill="none" xmlns="http://www.w3.org/2000/svg">
<path d="M11.6629 1.59472C11.6846 1.56818 11.7116 1.54621 11.7422 1.53015C11.7729 1.51408 11.8066 1.50425 11.8412 1.50126C11.8759 1.49826 11.9109 1.50217 11.9439 1.51274C11.977 1.5233 12.0076 1.54031 12.0337 1.56272L12.9796 2.37473L10.0022 5.99979H11.9751L14.1381 3.36775L15.8347 4.82477C15.8849 4.86794 15.9157 4.92848 15.9207 4.99349C15.9257 5.0585 15.9044 5.12283 15.8614 5.17278L15.1528 5.99979H17.1493C17.3966 5.64726 17.503 5.21887 17.4486 4.79525C17.3941 4.37164 17.1825 3.98202 16.8535 3.69975L13.0535 0.436705C12.8702 0.279506 12.6559 0.160342 12.4237 0.0864924C12.1915 0.0126424 11.9463 -0.014344 11.703 0.00718149C11.4597 0.028707 11.2235 0.0982924 11.0088 0.211688C10.7941 0.325084 10.6053 0.479909 10.4541 0.666709L6.13751 5.99979H8.09913L11.6629 1.59472ZM13.6081 12.9999C13.4038 12.9999 13.2079 13.0789 13.0634 13.2196C12.919 13.3602 12.8378 13.551 12.8378 13.7499C12.8378 13.9488 12.919 14.1396 13.0634 14.2802C13.2079 14.4209 13.4038 14.4999 13.6081 14.4999H15.6622C15.8665 14.4999 16.0624 14.4209 16.2068 14.2802C16.3513 14.1396 16.4324 13.9488 16.4324 13.7499C16.4324 13.551 16.3513 13.3602 16.2068 13.2196C16.0624 13.0789 15.8665 12.9999 15.6622 12.9999H13.6081ZM1.54054 6.24979C1.54054 6.05088 1.62169 5.86011 1.76615 5.71945C1.9106 5.5788 2.10652 5.49978 2.31081 5.49978H5.52335L6.74757 3.99976H2.31081C1.69795 3.99976 1.11018 4.23682 0.676821 4.65878C0.24346 5.08074 0 5.65305 0 6.24979V16.75C0 17.6119 0.351664 18.4386 0.97763 19.0481C1.6036 19.6576 2.45259 20 3.33784 20H15.6622C16.5474 20 17.3964 19.6576 18.0224 19.0481C18.6483 18.4386 19 17.6119 19 16.75V10.2499C19 9.38789 18.6483 8.56122 18.0224 7.95172C17.3964 7.34222 16.5474 6.9998 15.6622 6.9998H2.31081C2.10652 6.9998 1.9106 6.92078 1.76615 6.78013C1.62169 6.63948 1.54054 6.44871 1.54054 6.24979ZM1.54054 16.75V8.37182C1.78189 8.45483 2.0407 8.49983 2.31081 8.49983H15.6622C16.6543 8.49983 17.4595 9.28384 17.4595 10.2499V16.75C17.4595 17.2141 17.2701 17.6592 16.933 17.9874C16.596 18.3156 16.1388 18.5 15.6622 18.5H3.33784C2.86116 18.5 2.40402 18.3156 2.06696 17.9874C1.7299 17.6592 1.54054 17.2141 1.54054 16.75Z" fill="white"/>
</svg>
