<svg width="21" height="22" viewBox="0 0 21 22" fill="none" xmlns="http://www.w3.org/2000/svg">
<mask id="path-1-outside-1_1708_17726" maskUnits="userSpaceOnUse" x="0" y="-0.0588226" width="21" height="22" fill="black">
<rect fill="white" y="-0.0588226" width="21" height="22"/>
<path fill-rule="evenodd" clip-rule="evenodd" d="M9.58788 1.03954C9.51653 1.11548 9.48869 1.22081 9.46428 1.50764C9.42791 1.93476 9.38577 2.07371 9.29262 2.07371C9.25611 2.07371 9.04411 2.15143 8.82147 2.24649C8.49252 2.38687 8.40385 2.40939 8.34795 2.36663C8.31017 2.33771 8.15438 2.21096 8.0018 2.08498C7.57741 1.73463 7.56624 1.73807 6.86255 2.43473C6.40733 2.88541 6.27797 3.03894 6.27797 3.12856C6.27797 3.20659 6.37535 3.36065 6.58053 3.6071L6.88309 3.97056L6.77041 4.18693C6.70843 4.30594 6.61418 4.52087 6.561 4.66457L6.46433 4.92583L6.14026 4.96079C5.60288 5.01875 5.5289 5.03604 5.43983 5.12422C5.36128 5.20198 5.35433 5.27466 5.35433 6.01639C5.35433 6.80305 5.35697 6.82656 5.45637 6.92497C5.53888 7.00666 5.62522 7.03165 5.90719 7.05552C6.48957 7.10481 6.47291 7.09662 6.56171 7.377C6.60503 7.51373 6.68754 7.71799 6.74512 7.83094C6.80265 7.9439 6.84975 8.05554 6.84975 8.07906C6.84975 8.10257 6.75435 8.23547 6.63775 8.37442C6.32904 8.74227 6.26482 8.85231 6.29328 8.96448C6.3293 9.10656 7.4737 10.2164 7.58418 10.2164C7.67976 10.2164 7.7851 10.1451 8.1721 9.81863L8.41687 9.61215L8.67158 9.73934C8.81162 9.80927 9.0314 9.89932 9.15992 9.93943C9.42303 10.0215 9.41555 10.0051 9.46956 10.6201C9.5142 11.129 9.5179 11.1308 10.5283 11.1308C11.5591 11.1308 11.4937 11.1827 11.5807 10.2971C11.6081 10.0192 11.6144 10.0067 11.7403 9.98179C11.8124 9.96751 12.0338 9.88047 12.2324 9.78833L12.5934 9.62086L12.9638 9.92218C13.4583 10.3244 13.4449 10.3278 14.1619 9.61411C14.8508 8.92838 14.8486 8.93818 14.4368 8.44792C14.2796 8.26068 14.1509 8.09155 14.1509 8.07209C14.1509 8.05267 14.2081 7.92461 14.2779 7.78757C14.3477 7.65059 14.4304 7.45403 14.4616 7.35083C14.4928 7.24763 14.5494 7.14713 14.5875 7.12749C14.6256 7.1079 14.8329 7.07764 15.0481 7.06031C15.3755 7.03396 15.4563 7.0121 15.5429 6.92636C15.6441 6.82621 15.6464 6.80623 15.6464 6.01639C15.6464 5.09421 15.6344 5.06082 15.2867 5.01705C15.1821 5.00386 14.9706 4.97795 14.8166 4.95945L14.5367 4.92583L14.4398 4.66457C14.3866 4.52087 14.2923 4.30594 14.2303 4.18693L14.1176 3.97056L14.4202 3.6071C14.6226 3.36391 14.7227 3.20615 14.7227 3.13039C14.7227 3.04343 14.5878 2.88227 14.1421 2.43656C13.4408 1.73546 13.4466 1.73707 12.9887 2.10837C12.8176 2.24719 12.6535 2.37525 12.6242 2.39297C12.5949 2.41069 12.4761 2.37799 12.3603 2.32034C12.2445 2.26269 12.0274 2.17168 11.8778 2.11808L11.6059 2.02067L11.5787 1.7315C11.5005 0.898023 11.5595 0.941567 10.508 0.941567C9.70597 0.941567 9.67712 0.944659 9.58788 1.03954ZM10.9597 1.82333C11.029 2.49417 11.0453 2.52051 11.4529 2.62423C11.5943 2.66016 11.9124 2.78944 12.16 2.91149C12.6792 3.1674 12.6598 3.16936 13.0859 2.81831C13.2341 2.69617 13.3717 2.59623 13.3916 2.59623C13.4115 2.59623 13.5538 2.72216 13.7079 2.87609L13.9881 3.1559L13.7176 3.49132C13.5689 3.67577 13.4473 3.86824 13.4476 3.91905C13.4477 3.96987 13.5456 4.20392 13.6651 4.43927C13.7845 4.67458 13.9061 4.97294 13.9354 5.10227C14.0044 5.40769 14.0944 5.49882 14.3574 5.52952C14.4736 5.54311 14.6727 5.56653 14.7997 5.58156L15.0306 5.60895V6.03511V6.46127L14.6125 6.49232C14.3216 6.51392 14.1692 6.54527 14.1114 6.59547C14.0657 6.63514 13.9851 6.81454 13.9323 6.99416C13.8795 7.17378 13.7487 7.4822 13.6418 7.67954C13.5347 7.87693 13.4472 8.07719 13.4472 8.1246C13.4472 8.17198 13.5743 8.36531 13.7295 8.55421L14.0119 8.89759L13.7097 9.19452L13.4075 9.4914L13.0792 9.22252C12.8607 9.04355 12.7122 8.95364 12.6352 8.95364C12.5715 8.95364 12.3768 9.0304 12.2026 9.12428C12.0284 9.21812 11.712 9.34801 11.4995 9.41289C11.2516 9.48857 11.0972 9.56042 11.0686 9.61328C11.0315 9.68199 10.9417 10.2804 10.9405 10.4668C10.9403 10.5066 10.8242 10.5212 10.508 10.5212H10.0758L10.0315 10.0881C10.0071 9.84985 9.96182 9.62469 9.93081 9.58768C9.89976 9.55067 9.7332 9.47908 9.56061 9.42857C9.38802 9.37806 9.07754 9.25056 8.8706 9.14519C8.66366 9.03985 8.44282 8.95364 8.37979 8.95364C8.30414 8.95364 8.15781 9.04247 7.94933 9.2149C7.7756 9.35859 7.62095 9.47616 7.60565 9.47616C7.56364 9.47616 7.02568 8.93983 7.02568 8.89794C7.02568 8.87791 7.14444 8.72185 7.28958 8.55116C7.60327 8.18221 7.61475 8.1007 7.40222 7.75143C7.31905 7.61471 7.18649 7.30794 7.10767 7.06971C7.01539 6.79081 6.93222 6.61577 6.87407 6.57814C6.82442 6.54601 6.60072 6.50612 6.37693 6.48945L5.97009 6.45914V6.03402V5.60895L6.17901 5.58456C6.29394 5.57119 6.49296 5.54777 6.6213 5.53253C6.90807 5.49847 6.99472 5.41452 7.06531 5.10227C7.09456 4.97294 7.21618 4.67458 7.33563 4.43927C7.45509 4.20392 7.55295 3.96987 7.55313 3.91905C7.55335 3.86824 7.43178 3.67573 7.28303 3.49123L7.01258 3.15582L7.31131 2.85776L7.61009 2.5597L7.95694 2.83925C8.14774 2.99296 8.34557 3.11876 8.39659 3.11876C8.44766 3.11876 8.58524 3.06037 8.70241 2.989C8.9393 2.84469 9.35252 2.6669 9.55471 2.62232C9.9517 2.53479 9.99314 2.47549 10.0391 1.92932L10.0709 1.55118H10.5012H10.9316L10.9597 1.82333ZM9.85842 3.05022C8.97326 3.24939 8.16252 3.87255 7.77793 4.64933C7.52555 5.15909 7.44783 5.48776 7.45008 6.0362C7.45223 6.56791 7.53233 6.916 7.75686 7.36973C8.32059 8.50884 9.59601 9.19356 10.8626 9.03707C11.6051 8.94532 12.1264 8.68985 12.6828 8.14516C12.9813 7.85285 13.0753 7.72487 13.242 7.38314C13.5002 6.85404 13.5998 6.38133 13.5671 5.83964C13.4921 4.59446 12.6484 3.52189 11.4362 3.13043C11.0135 2.99392 10.2754 2.95638 9.85842 3.05022ZM11.0943 3.66493C12.182 3.9454 12.9601 4.92552 12.9627 6.01834C12.9636 6.35058 12.8272 6.88761 12.6675 7.18118C12.478 7.52932 12.0408 7.96158 11.6985 8.13897C11.2714 8.36035 10.9382 8.44469 10.4971 8.44313C9.3209 8.4389 8.34557 7.63709 8.09892 6.47164C7.84214 5.25833 8.68046 3.96207 9.91296 3.66672C10.2593 3.58372 10.7763 3.58294 11.0943 3.66493ZM11.5559 5.02359C11.5197 5.03717 11.1962 5.32926 10.8372 5.67269L10.1844 6.29716L9.82609 5.97071C9.43745 5.6167 9.30071 5.56919 9.13687 5.73139C8.95395 5.91249 9.01064 6.0254 9.54794 6.55023C9.93433 6.92763 10.0737 7.03771 10.1652 7.03771C10.2583 7.03771 10.455 6.87524 11.0922 6.27225C11.5371 5.85122 11.9125 5.47731 11.9264 5.44135C12.0174 5.20656 11.7806 4.9395 11.5559 5.02359ZM14.5248 12.6994C14.2385 12.7401 14.0867 12.8057 13.3058 13.2261L12.6553 13.5762L11.6108 13.5605C10.4627 13.5432 10.5342 13.5568 9.7266 13.2028C9.12187 12.9376 8.75743 12.8622 8.08128 12.8622C7.35644 12.8622 6.98531 12.9473 6.34395 13.2603C6.01786 13.4195 5.78492 13.5769 5.44317 13.869C4.96974 14.2737 4.57987 14.5222 4.52212 14.4559C4.50418 14.4352 4.42325 14.1966 4.34228 13.9256C4.24305 13.5933 4.16582 13.4124 4.10516 13.3704C4.03167 13.3194 3.75743 13.308 2.60389 13.308C1.24433 13.308 1.189 13.3113 1.09628 13.3968C1.03395 13.4543 1 13.5375 1 13.6327C1 13.7661 1.80313 20.4064 1.86031 20.7456C1.87364 20.8247 1.92303 20.9276 1.97009 20.9742C2.05234 21.0556 2.13402 21.0588 4.1257 21.0588C5.45259 21.0588 6.22598 21.0428 6.27986 21.0143C6.47919 20.9086 6.47374 20.8419 6.19009 19.92C6.04227 19.4393 5.92729 19.0403 5.93468 19.0332C6.05036 18.9215 7.59527 18.003 7.72585 17.9682C7.88463 17.9258 8.13296 17.9617 9.85173 18.2752L11.7979 18.6303L12.4136 18.6088C12.9075 18.5917 13.106 18.5647 13.4167 18.4727C14.0556 18.2836 13.6428 18.547 18.8472 15.0073C19.9872 14.2319 20.0435 14.1794 19.9845 13.9467C19.9402 13.7719 19.6228 13.4603 19.3331 13.3071C19.0924 13.1798 19.0032 13.1576 18.669 13.1416C18.3499 13.1263 18.2371 13.1396 18.019 13.2183L17.7553 13.3136L17.584 13.1792C17.154 12.8421 16.5964 12.7545 16.1462 12.9534L15.9204 13.0532L15.6844 12.924C15.2941 12.7104 14.9357 12.641 14.5248 12.6994ZM15.1209 13.3338C15.1948 13.3479 15.2489 13.3781 15.2413 13.4008C15.2336 13.4235 15.0298 13.5469 14.7883 13.6751L14.3493 13.9081L14.0893 13.7782C13.8033 13.6352 13.8011 13.6442 14.1666 13.4556C14.5055 13.2808 14.709 13.2548 15.1209 13.3338ZM8.95373 13.5702C9.12575 13.6174 9.43838 13.7347 9.6484 13.8307C10.3529 14.1529 10.3161 14.1476 12.0178 14.1755L13.5572 14.2007L13.8071 14.3222C13.9445 14.389 14.119 14.5136 14.1949 14.5991C14.3333 14.7552 14.5362 15.1216 14.5001 15.1503C14.4895 15.1587 14.0157 15.146 13.4472 15.1219C12.3672 15.0762 11.3548 15.1208 11.163 15.2224C11.0362 15.2896 10.9863 15.4348 11.0388 15.5839C11.1075 15.7789 11.1868 15.795 11.7984 15.7379C12.233 15.6974 12.6394 15.6979 13.6545 15.7403L14.9541 15.7945L15.0583 15.6976C15.1157 15.6443 15.1626 15.5577 15.1626 15.5051C15.1626 15.4242 15.3977 15.2836 16.691 14.591C18.1299 13.8204 18.2356 13.7713 18.4962 13.7528C18.7807 13.7325 19.1056 13.816 19.2053 13.935C19.2421 13.9789 18.6551 14.3975 16.5547 15.8255C15.0709 16.8343 13.7597 17.7009 13.6411 17.7513C13.2591 17.9135 12.7518 18.0101 12.2817 18.0102C11.7768 18.0103 11.889 18.027 9.66467 17.6212C7.90455 17.3002 7.80221 17.2914 7.4108 17.4271C7.32024 17.4585 6.91753 17.6908 6.51588 17.9434C6.11427 18.196 5.77102 18.4027 5.75317 18.4027C5.73535 18.4027 5.49674 17.6728 5.22299 16.7806C4.94924 15.8885 4.71877 15.139 4.71085 15.1151C4.70289 15.0911 4.82521 15.0146 4.98267 14.9451C5.14866 14.8717 5.40909 14.6979 5.60261 14.5314C6.42562 13.8232 6.92795 13.5719 7.72941 13.4673C8.01055 13.4306 8.63665 13.4832 8.95373 13.5702ZM16.9937 13.5324C17.0631 13.5653 17.1173 13.6116 17.1142 13.6352C17.1111 13.6588 16.8142 13.8355 16.4544 14.0277C16.0947 14.22 15.6292 14.4698 15.42 14.5827L15.0397 14.7882L14.9261 14.5732L14.8125 14.3582L15.1305 14.1864C15.8859 13.7784 16.4207 13.4944 16.4821 13.4687C16.5769 13.4291 16.8466 13.4626 16.9937 13.5324ZM4.69102 17.1292C5.23337 18.8953 5.68574 20.3649 5.69634 20.3948C5.71151 20.4377 5.37056 20.4492 4.0855 20.4492H2.45544L2.43068 20.3077C2.39264 20.0903 1.65975 14.0939 1.65975 14.0001C1.65975 13.9215 1.708 13.9176 2.68235 13.9179L3.70496 13.9181L4.69102 17.1292ZM3.55841 18.8009C3.05172 19.0492 2.96679 19.7645 3.39937 20.1405C4.01482 20.6756 4.96006 20.0785 4.73839 19.2947C4.60006 18.8056 4.03303 18.5683 3.55841 18.8009ZM4.12126 19.4013C4.19313 19.5343 4.17532 19.6143 4.05683 19.6912C3.95496 19.7573 3.93877 19.7573 3.83691 19.6912C3.71908 19.6148 3.69106 19.4571 3.77973 19.3693C3.86334 19.2865 4.06967 19.3058 4.12126 19.4013Z"/>
</mask>
<path fill-rule="evenodd" clip-rule="evenodd" d="M9.58788 1.03954C9.51653 1.11548 9.48869 1.22081 9.46428 1.50764C9.42791 1.93476 9.38577 2.07371 9.29262 2.07371C9.25611 2.07371 9.04411 2.15143 8.82147 2.24649C8.49252 2.38687 8.40385 2.40939 8.34795 2.36663C8.31017 2.33771 8.15438 2.21096 8.0018 2.08498C7.57741 1.73463 7.56624 1.73807 6.86255 2.43473C6.40733 2.88541 6.27797 3.03894 6.27797 3.12856C6.27797 3.20659 6.37535 3.36065 6.58053 3.6071L6.88309 3.97056L6.77041 4.18693C6.70843 4.30594 6.61418 4.52087 6.561 4.66457L6.46433 4.92583L6.14026 4.96079C5.60288 5.01875 5.5289 5.03604 5.43983 5.12422C5.36128 5.20198 5.35433 5.27466 5.35433 6.01639C5.35433 6.80305 5.35697 6.82656 5.45637 6.92497C5.53888 7.00666 5.62522 7.03165 5.90719 7.05552C6.48957 7.10481 6.47291 7.09662 6.56171 7.377C6.60503 7.51373 6.68754 7.71799 6.74512 7.83094C6.80265 7.9439 6.84975 8.05554 6.84975 8.07906C6.84975 8.10257 6.75435 8.23547 6.63775 8.37442C6.32904 8.74227 6.26482 8.85231 6.29328 8.96448C6.3293 9.10656 7.4737 10.2164 7.58418 10.2164C7.67976 10.2164 7.7851 10.1451 8.1721 9.81863L8.41687 9.61215L8.67158 9.73934C8.81162 9.80927 9.0314 9.89932 9.15992 9.93943C9.42303 10.0215 9.41555 10.0051 9.46956 10.6201C9.5142 11.129 9.5179 11.1308 10.5283 11.1308C11.5591 11.1308 11.4937 11.1827 11.5807 10.2971C11.6081 10.0192 11.6144 10.0067 11.7403 9.98179C11.8124 9.96751 12.0338 9.88047 12.2324 9.78833L12.5934 9.62086L12.9638 9.92218C13.4583 10.3244 13.4449 10.3278 14.1619 9.61411C14.8508 8.92838 14.8486 8.93818 14.4368 8.44792C14.2796 8.26068 14.1509 8.09155 14.1509 8.07209C14.1509 8.05267 14.2081 7.92461 14.2779 7.78757C14.3477 7.65059 14.4304 7.45403 14.4616 7.35083C14.4928 7.24763 14.5494 7.14713 14.5875 7.12749C14.6256 7.1079 14.8329 7.07764 15.0481 7.06031C15.3755 7.03396 15.4563 7.0121 15.5429 6.92636C15.6441 6.82621 15.6464 6.80623 15.6464 6.01639C15.6464 5.09421 15.6344 5.06082 15.2867 5.01705C15.1821 5.00386 14.9706 4.97795 14.8166 4.95945L14.5367 4.92583L14.4398 4.66457C14.3866 4.52087 14.2923 4.30594 14.2303 4.18693L14.1176 3.97056L14.4202 3.6071C14.6226 3.36391 14.7227 3.20615 14.7227 3.13039C14.7227 3.04343 14.5878 2.88227 14.1421 2.43656C13.4408 1.73546 13.4466 1.73707 12.9887 2.10837C12.8176 2.24719 12.6535 2.37525 12.6242 2.39297C12.5949 2.41069 12.4761 2.37799 12.3603 2.32034C12.2445 2.26269 12.0274 2.17168 11.8778 2.11808L11.6059 2.02067L11.5787 1.7315C11.5005 0.898023 11.5595 0.941567 10.508 0.941567C9.70597 0.941567 9.67712 0.944659 9.58788 1.03954ZM10.9597 1.82333C11.029 2.49417 11.0453 2.52051 11.4529 2.62423C11.5943 2.66016 11.9124 2.78944 12.16 2.91149C12.6792 3.1674 12.6598 3.16936 13.0859 2.81831C13.2341 2.69617 13.3717 2.59623 13.3916 2.59623C13.4115 2.59623 13.5538 2.72216 13.7079 2.87609L13.9881 3.1559L13.7176 3.49132C13.5689 3.67577 13.4473 3.86824 13.4476 3.91905C13.4477 3.96987 13.5456 4.20392 13.6651 4.43927C13.7845 4.67458 13.9061 4.97294 13.9354 5.10227C14.0044 5.40769 14.0944 5.49882 14.3574 5.52952C14.4736 5.54311 14.6727 5.56653 14.7997 5.58156L15.0306 5.60895V6.03511V6.46127L14.6125 6.49232C14.3216 6.51392 14.1692 6.54527 14.1114 6.59547C14.0657 6.63514 13.9851 6.81454 13.9323 6.99416C13.8795 7.17378 13.7487 7.4822 13.6418 7.67954C13.5347 7.87693 13.4472 8.07719 13.4472 8.1246C13.4472 8.17198 13.5743 8.36531 13.7295 8.55421L14.0119 8.89759L13.7097 9.19452L13.4075 9.4914L13.0792 9.22252C12.8607 9.04355 12.7122 8.95364 12.6352 8.95364C12.5715 8.95364 12.3768 9.0304 12.2026 9.12428C12.0284 9.21812 11.712 9.34801 11.4995 9.41289C11.2516 9.48857 11.0972 9.56042 11.0686 9.61328C11.0315 9.68199 10.9417 10.2804 10.9405 10.4668C10.9403 10.5066 10.8242 10.5212 10.508 10.5212H10.0758L10.0315 10.0881C10.0071 9.84985 9.96182 9.62469 9.93081 9.58768C9.89976 9.55067 9.7332 9.47908 9.56061 9.42857C9.38802 9.37806 9.07754 9.25056 8.8706 9.14519C8.66366 9.03985 8.44282 8.95364 8.37979 8.95364C8.30414 8.95364 8.15781 9.04247 7.94933 9.2149C7.7756 9.35859 7.62095 9.47616 7.60565 9.47616C7.56364 9.47616 7.02568 8.93983 7.02568 8.89794C7.02568 8.87791 7.14444 8.72185 7.28958 8.55116C7.60327 8.18221 7.61475 8.1007 7.40222 7.75143C7.31905 7.61471 7.18649 7.30794 7.10767 7.06971C7.01539 6.79081 6.93222 6.61577 6.87407 6.57814C6.82442 6.54601 6.60072 6.50612 6.37693 6.48945L5.97009 6.45914V6.03402V5.60895L6.17901 5.58456C6.29394 5.57119 6.49296 5.54777 6.6213 5.53253C6.90807 5.49847 6.99472 5.41452 7.06531 5.10227C7.09456 4.97294 7.21618 4.67458 7.33563 4.43927C7.45509 4.20392 7.55295 3.96987 7.55313 3.91905C7.55335 3.86824 7.43178 3.67573 7.28303 3.49123L7.01258 3.15582L7.31131 2.85776L7.61009 2.5597L7.95694 2.83925C8.14774 2.99296 8.34557 3.11876 8.39659 3.11876C8.44766 3.11876 8.58524 3.06037 8.70241 2.989C8.9393 2.84469 9.35252 2.6669 9.55471 2.62232C9.9517 2.53479 9.99314 2.47549 10.0391 1.92932L10.0709 1.55118H10.5012H10.9316L10.9597 1.82333ZM9.85842 3.05022C8.97326 3.24939 8.16252 3.87255 7.77793 4.64933C7.52555 5.15909 7.44783 5.48776 7.45008 6.0362C7.45223 6.56791 7.53233 6.916 7.75686 7.36973C8.32059 8.50884 9.59601 9.19356 10.8626 9.03707C11.6051 8.94532 12.1264 8.68985 12.6828 8.14516C12.9813 7.85285 13.0753 7.72487 13.242 7.38314C13.5002 6.85404 13.5998 6.38133 13.5671 5.83964C13.4921 4.59446 12.6484 3.52189 11.4362 3.13043C11.0135 2.99392 10.2754 2.95638 9.85842 3.05022ZM11.0943 3.66493C12.182 3.9454 12.9601 4.92552 12.9627 6.01834C12.9636 6.35058 12.8272 6.88761 12.6675 7.18118C12.478 7.52932 12.0408 7.96158 11.6985 8.13897C11.2714 8.36035 10.9382 8.44469 10.4971 8.44313C9.3209 8.4389 8.34557 7.63709 8.09892 6.47164C7.84214 5.25833 8.68046 3.96207 9.91296 3.66672C10.2593 3.58372 10.7763 3.58294 11.0943 3.66493ZM11.5559 5.02359C11.5197 5.03717 11.1962 5.32926 10.8372 5.67269L10.1844 6.29716L9.82609 5.97071C9.43745 5.6167 9.30071 5.56919 9.13687 5.73139C8.95395 5.91249 9.01064 6.0254 9.54794 6.55023C9.93433 6.92763 10.0737 7.03771 10.1652 7.03771C10.2583 7.03771 10.455 6.87524 11.0922 6.27225C11.5371 5.85122 11.9125 5.47731 11.9264 5.44135C12.0174 5.20656 11.7806 4.9395 11.5559 5.02359ZM14.5248 12.6994C14.2385 12.7401 14.0867 12.8057 13.3058 13.2261L12.6553 13.5762L11.6108 13.5605C10.4627 13.5432 10.5342 13.5568 9.7266 13.2028C9.12187 12.9376 8.75743 12.8622 8.08128 12.8622C7.35644 12.8622 6.98531 12.9473 6.34395 13.2603C6.01786 13.4195 5.78492 13.5769 5.44317 13.869C4.96974 14.2737 4.57987 14.5222 4.52212 14.4559C4.50418 14.4352 4.42325 14.1966 4.34228 13.9256C4.24305 13.5933 4.16582 13.4124 4.10516 13.3704C4.03167 13.3194 3.75743 13.308 2.60389 13.308C1.24433 13.308 1.189 13.3113 1.09628 13.3968C1.03395 13.4543 1 13.5375 1 13.6327C1 13.7661 1.80313 20.4064 1.86031 20.7456C1.87364 20.8247 1.92303 20.9276 1.97009 20.9742C2.05234 21.0556 2.13402 21.0588 4.1257 21.0588C5.45259 21.0588 6.22598 21.0428 6.27986 21.0143C6.47919 20.9086 6.47374 20.8419 6.19009 19.92C6.04227 19.4393 5.92729 19.0403 5.93468 19.0332C6.05036 18.9215 7.59527 18.003 7.72585 17.9682C7.88463 17.9258 8.13296 17.9617 9.85173 18.2752L11.7979 18.6303L12.4136 18.6088C12.9075 18.5917 13.106 18.5647 13.4167 18.4727C14.0556 18.2836 13.6428 18.547 18.8472 15.0073C19.9872 14.2319 20.0435 14.1794 19.9845 13.9467C19.9402 13.7719 19.6228 13.4603 19.3331 13.3071C19.0924 13.1798 19.0032 13.1576 18.669 13.1416C18.3499 13.1263 18.2371 13.1396 18.019 13.2183L17.7553 13.3136L17.584 13.1792C17.154 12.8421 16.5964 12.7545 16.1462 12.9534L15.9204 13.0532L15.6844 12.924C15.2941 12.7104 14.9357 12.641 14.5248 12.6994ZM15.1209 13.3338C15.1948 13.3479 15.2489 13.3781 15.2413 13.4008C15.2336 13.4235 15.0298 13.5469 14.7883 13.6751L14.3493 13.9081L14.0893 13.7782C13.8033 13.6352 13.8011 13.6442 14.1666 13.4556C14.5055 13.2808 14.709 13.2548 15.1209 13.3338ZM8.95373 13.5702C9.12575 13.6174 9.43838 13.7347 9.6484 13.8307C10.3529 14.1529 10.3161 14.1476 12.0178 14.1755L13.5572 14.2007L13.8071 14.3222C13.9445 14.389 14.119 14.5136 14.1949 14.5991C14.3333 14.7552 14.5362 15.1216 14.5001 15.1503C14.4895 15.1587 14.0157 15.146 13.4472 15.1219C12.3672 15.0762 11.3548 15.1208 11.163 15.2224C11.0362 15.2896 10.9863 15.4348 11.0388 15.5839C11.1075 15.7789 11.1868 15.795 11.7984 15.7379C12.233 15.6974 12.6394 15.6979 13.6545 15.7403L14.9541 15.7945L15.0583 15.6976C15.1157 15.6443 15.1626 15.5577 15.1626 15.5051C15.1626 15.4242 15.3977 15.2836 16.691 14.591C18.1299 13.8204 18.2356 13.7713 18.4962 13.7528C18.7807 13.7325 19.1056 13.816 19.2053 13.935C19.2421 13.9789 18.6551 14.3975 16.5547 15.8255C15.0709 16.8343 13.7597 17.7009 13.6411 17.7513C13.2591 17.9135 12.7518 18.0101 12.2817 18.0102C11.7768 18.0103 11.889 18.027 9.66467 17.6212C7.90455 17.3002 7.80221 17.2914 7.4108 17.4271C7.32024 17.4585 6.91753 17.6908 6.51588 17.9434C6.11427 18.196 5.77102 18.4027 5.75317 18.4027C5.73535 18.4027 5.49674 17.6728 5.22299 16.7806C4.94924 15.8885 4.71877 15.139 4.71085 15.1151C4.70289 15.0911 4.82521 15.0146 4.98267 14.9451C5.14866 14.8717 5.40909 14.6979 5.60261 14.5314C6.42562 13.8232 6.92795 13.5719 7.72941 13.4673C8.01055 13.4306 8.63665 13.4832 8.95373 13.5702ZM16.9937 13.5324C17.0631 13.5653 17.1173 13.6116 17.1142 13.6352C17.1111 13.6588 16.8142 13.8355 16.4544 14.0277C16.0947 14.22 15.6292 14.4698 15.42 14.5827L15.0397 14.7882L14.9261 14.5732L14.8125 14.3582L15.1305 14.1864C15.8859 13.7784 16.4207 13.4944 16.4821 13.4687C16.5769 13.4291 16.8466 13.4626 16.9937 13.5324ZM4.69102 17.1292C5.23337 18.8953 5.68574 20.3649 5.69634 20.3948C5.71151 20.4377 5.37056 20.4492 4.0855 20.4492H2.45544L2.43068 20.3077C2.39264 20.0903 1.65975 14.0939 1.65975 14.0001C1.65975 13.9215 1.708 13.9176 2.68235 13.9179L3.70496 13.9181L4.69102 17.1292ZM3.55841 18.8009C3.05172 19.0492 2.96679 19.7645 3.39937 20.1405C4.01482 20.6756 4.96006 20.0785 4.73839 19.2947C4.60006 18.8056 4.03303 18.5683 3.55841 18.8009ZM4.12126 19.4013C4.19313 19.5343 4.17532 19.6143 4.05683 19.6912C3.95496 19.7573 3.93877 19.7573 3.83691 19.6912C3.71908 19.6148 3.69106 19.4571 3.77973 19.3693C3.86334 19.2865 4.06967 19.3058 4.12126 19.4013Z" fill="#F2F2F2"/>
<path fill-rule="evenodd" clip-rule="evenodd" d="M9.58788 1.03954C9.51653 1.11548 9.48869 1.22081 9.46428 1.50764C9.42791 1.93476 9.38577 2.07371 9.29262 2.07371C9.25611 2.07371 9.04411 2.15143 8.82147 2.24649C8.49252 2.38687 8.40385 2.40939 8.34795 2.36663C8.31017 2.33771 8.15438 2.21096 8.0018 2.08498C7.57741 1.73463 7.56624 1.73807 6.86255 2.43473C6.40733 2.88541 6.27797 3.03894 6.27797 3.12856C6.27797 3.20659 6.37535 3.36065 6.58053 3.6071L6.88309 3.97056L6.77041 4.18693C6.70843 4.30594 6.61418 4.52087 6.561 4.66457L6.46433 4.92583L6.14026 4.96079C5.60288 5.01875 5.5289 5.03604 5.43983 5.12422C5.36128 5.20198 5.35433 5.27466 5.35433 6.01639C5.35433 6.80305 5.35697 6.82656 5.45637 6.92497C5.53888 7.00666 5.62522 7.03165 5.90719 7.05552C6.48957 7.10481 6.47291 7.09662 6.56171 7.377C6.60503 7.51373 6.68754 7.71799 6.74512 7.83094C6.80265 7.9439 6.84975 8.05554 6.84975 8.07906C6.84975 8.10257 6.75435 8.23547 6.63775 8.37442C6.32904 8.74227 6.26482 8.85231 6.29328 8.96448C6.3293 9.10656 7.4737 10.2164 7.58418 10.2164C7.67976 10.2164 7.7851 10.1451 8.1721 9.81863L8.41687 9.61215L8.67158 9.73934C8.81162 9.80927 9.0314 9.89932 9.15992 9.93943C9.42303 10.0215 9.41555 10.0051 9.46956 10.6201C9.5142 11.129 9.5179 11.1308 10.5283 11.1308C11.5591 11.1308 11.4937 11.1827 11.5807 10.2971C11.6081 10.0192 11.6144 10.0067 11.7403 9.98179C11.8124 9.96751 12.0338 9.88047 12.2324 9.78833L12.5934 9.62086L12.9638 9.92218C13.4583 10.3244 13.4449 10.3278 14.1619 9.61411C14.8508 8.92838 14.8486 8.93818 14.4368 8.44792C14.2796 8.26068 14.1509 8.09155 14.1509 8.07209C14.1509 8.05267 14.2081 7.92461 14.2779 7.78757C14.3477 7.65059 14.4304 7.45403 14.4616 7.35083C14.4928 7.24763 14.5494 7.14713 14.5875 7.12749C14.6256 7.1079 14.8329 7.07764 15.0481 7.06031C15.3755 7.03396 15.4563 7.0121 15.5429 6.92636C15.6441 6.82621 15.6464 6.80623 15.6464 6.01639C15.6464 5.09421 15.6344 5.06082 15.2867 5.01705C15.1821 5.00386 14.9706 4.97795 14.8166 4.95945L14.5367 4.92583L14.4398 4.66457C14.3866 4.52087 14.2923 4.30594 14.2303 4.18693L14.1176 3.97056L14.4202 3.6071C14.6226 3.36391 14.7227 3.20615 14.7227 3.13039C14.7227 3.04343 14.5878 2.88227 14.1421 2.43656C13.4408 1.73546 13.4466 1.73707 12.9887 2.10837C12.8176 2.24719 12.6535 2.37525 12.6242 2.39297C12.5949 2.41069 12.4761 2.37799 12.3603 2.32034C12.2445 2.26269 12.0274 2.17168 11.8778 2.11808L11.6059 2.02067L11.5787 1.7315C11.5005 0.898023 11.5595 0.941567 10.508 0.941567C9.70597 0.941567 9.67712 0.944659 9.58788 1.03954ZM10.9597 1.82333C11.029 2.49417 11.0453 2.52051 11.4529 2.62423C11.5943 2.66016 11.9124 2.78944 12.16 2.91149C12.6792 3.1674 12.6598 3.16936 13.0859 2.81831C13.2341 2.69617 13.3717 2.59623 13.3916 2.59623C13.4115 2.59623 13.5538 2.72216 13.7079 2.87609L13.9881 3.1559L13.7176 3.49132C13.5689 3.67577 13.4473 3.86824 13.4476 3.91905C13.4477 3.96987 13.5456 4.20392 13.6651 4.43927C13.7845 4.67458 13.9061 4.97294 13.9354 5.10227C14.0044 5.40769 14.0944 5.49882 14.3574 5.52952C14.4736 5.54311 14.6727 5.56653 14.7997 5.58156L15.0306 5.60895V6.03511V6.46127L14.6125 6.49232C14.3216 6.51392 14.1692 6.54527 14.1114 6.59547C14.0657 6.63514 13.9851 6.81454 13.9323 6.99416C13.8795 7.17378 13.7487 7.4822 13.6418 7.67954C13.5347 7.87693 13.4472 8.07719 13.4472 8.1246C13.4472 8.17198 13.5743 8.36531 13.7295 8.55421L14.0119 8.89759L13.7097 9.19452L13.4075 9.4914L13.0792 9.22252C12.8607 9.04355 12.7122 8.95364 12.6352 8.95364C12.5715 8.95364 12.3768 9.0304 12.2026 9.12428C12.0284 9.21812 11.712 9.34801 11.4995 9.41289C11.2516 9.48857 11.0972 9.56042 11.0686 9.61328C11.0315 9.68199 10.9417 10.2804 10.9405 10.4668C10.9403 10.5066 10.8242 10.5212 10.508 10.5212H10.0758L10.0315 10.0881C10.0071 9.84985 9.96182 9.62469 9.93081 9.58768C9.89976 9.55067 9.7332 9.47908 9.56061 9.42857C9.38802 9.37806 9.07754 9.25056 8.8706 9.14519C8.66366 9.03985 8.44282 8.95364 8.37979 8.95364C8.30414 8.95364 8.15781 9.04247 7.94933 9.2149C7.7756 9.35859 7.62095 9.47616 7.60565 9.47616C7.56364 9.47616 7.02568 8.93983 7.02568 8.89794C7.02568 8.87791 7.14444 8.72185 7.28958 8.55116C7.60327 8.18221 7.61475 8.1007 7.40222 7.75143C7.31905 7.61471 7.18649 7.30794 7.10767 7.06971C7.01539 6.79081 6.93222 6.61577 6.87407 6.57814C6.82442 6.54601 6.60072 6.50612 6.37693 6.48945L5.97009 6.45914V6.03402V5.60895L6.17901 5.58456C6.29394 5.57119 6.49296 5.54777 6.6213 5.53253C6.90807 5.49847 6.99472 5.41452 7.06531 5.10227C7.09456 4.97294 7.21618 4.67458 7.33563 4.43927C7.45509 4.20392 7.55295 3.96987 7.55313 3.91905C7.55335 3.86824 7.43178 3.67573 7.28303 3.49123L7.01258 3.15582L7.31131 2.85776L7.61009 2.5597L7.95694 2.83925C8.14774 2.99296 8.34557 3.11876 8.39659 3.11876C8.44766 3.11876 8.58524 3.06037 8.70241 2.989C8.9393 2.84469 9.35252 2.6669 9.55471 2.62232C9.9517 2.53479 9.99314 2.47549 10.0391 1.92932L10.0709 1.55118H10.5012H10.9316L10.9597 1.82333ZM9.85842 3.05022C8.97326 3.24939 8.16252 3.87255 7.77793 4.64933C7.52555 5.15909 7.44783 5.48776 7.45008 6.0362C7.45223 6.56791 7.53233 6.916 7.75686 7.36973C8.32059 8.50884 9.59601 9.19356 10.8626 9.03707C11.6051 8.94532 12.1264 8.68985 12.6828 8.14516C12.9813 7.85285 13.0753 7.72487 13.242 7.38314C13.5002 6.85404 13.5998 6.38133 13.5671 5.83964C13.4921 4.59446 12.6484 3.52189 11.4362 3.13043C11.0135 2.99392 10.2754 2.95638 9.85842 3.05022ZM11.0943 3.66493C12.182 3.9454 12.9601 4.92552 12.9627 6.01834C12.9636 6.35058 12.8272 6.88761 12.6675 7.18118C12.478 7.52932 12.0408 7.96158 11.6985 8.13897C11.2714 8.36035 10.9382 8.44469 10.4971 8.44313C9.3209 8.4389 8.34557 7.63709 8.09892 6.47164C7.84214 5.25833 8.68046 3.96207 9.91296 3.66672C10.2593 3.58372 10.7763 3.58294 11.0943 3.66493ZM11.5559 5.02359C11.5197 5.03717 11.1962 5.32926 10.8372 5.67269L10.1844 6.29716L9.82609 5.97071C9.43745 5.6167 9.30071 5.56919 9.13687 5.73139C8.95395 5.91249 9.01064 6.0254 9.54794 6.55023C9.93433 6.92763 10.0737 7.03771 10.1652 7.03771C10.2583 7.03771 10.455 6.87524 11.0922 6.27225C11.5371 5.85122 11.9125 5.47731 11.9264 5.44135C12.0174 5.20656 11.7806 4.9395 11.5559 5.02359ZM14.5248 12.6994C14.2385 12.7401 14.0867 12.8057 13.3058 13.2261L12.6553 13.5762L11.6108 13.5605C10.4627 13.5432 10.5342 13.5568 9.7266 13.2028C9.12187 12.9376 8.75743 12.8622 8.08128 12.8622C7.35644 12.8622 6.98531 12.9473 6.34395 13.2603C6.01786 13.4195 5.78492 13.5769 5.44317 13.869C4.96974 14.2737 4.57987 14.5222 4.52212 14.4559C4.50418 14.4352 4.42325 14.1966 4.34228 13.9256C4.24305 13.5933 4.16582 13.4124 4.10516 13.3704C4.03167 13.3194 3.75743 13.308 2.60389 13.308C1.24433 13.308 1.189 13.3113 1.09628 13.3968C1.03395 13.4543 1 13.5375 1 13.6327C1 13.7661 1.80313 20.4064 1.86031 20.7456C1.87364 20.8247 1.92303 20.9276 1.97009 20.9742C2.05234 21.0556 2.13402 21.0588 4.1257 21.0588C5.45259 21.0588 6.22598 21.0428 6.27986 21.0143C6.47919 20.9086 6.47374 20.8419 6.19009 19.92C6.04227 19.4393 5.92729 19.0403 5.93468 19.0332C6.05036 18.9215 7.59527 18.003 7.72585 17.9682C7.88463 17.9258 8.13296 17.9617 9.85173 18.2752L11.7979 18.6303L12.4136 18.6088C12.9075 18.5917 13.106 18.5647 13.4167 18.4727C14.0556 18.2836 13.6428 18.547 18.8472 15.0073C19.9872 14.2319 20.0435 14.1794 19.9845 13.9467C19.9402 13.7719 19.6228 13.4603 19.3331 13.3071C19.0924 13.1798 19.0032 13.1576 18.669 13.1416C18.3499 13.1263 18.2371 13.1396 18.019 13.2183L17.7553 13.3136L17.584 13.1792C17.154 12.8421 16.5964 12.7545 16.1462 12.9534L15.9204 13.0532L15.6844 12.924C15.2941 12.7104 14.9357 12.641 14.5248 12.6994ZM15.1209 13.3338C15.1948 13.3479 15.2489 13.3781 15.2413 13.4008C15.2336 13.4235 15.0298 13.5469 14.7883 13.6751L14.3493 13.9081L14.0893 13.7782C13.8033 13.6352 13.8011 13.6442 14.1666 13.4556C14.5055 13.2808 14.709 13.2548 15.1209 13.3338ZM8.95373 13.5702C9.12575 13.6174 9.43838 13.7347 9.6484 13.8307C10.3529 14.1529 10.3161 14.1476 12.0178 14.1755L13.5572 14.2007L13.8071 14.3222C13.9445 14.389 14.119 14.5136 14.1949 14.5991C14.3333 14.7552 14.5362 15.1216 14.5001 15.1503C14.4895 15.1587 14.0157 15.146 13.4472 15.1219C12.3672 15.0762 11.3548 15.1208 11.163 15.2224C11.0362 15.2896 10.9863 15.4348 11.0388 15.5839C11.1075 15.7789 11.1868 15.795 11.7984 15.7379C12.233 15.6974 12.6394 15.6979 13.6545 15.7403L14.9541 15.7945L15.0583 15.6976C15.1157 15.6443 15.1626 15.5577 15.1626 15.5051C15.1626 15.4242 15.3977 15.2836 16.691 14.591C18.1299 13.8204 18.2356 13.7713 18.4962 13.7528C18.7807 13.7325 19.1056 13.816 19.2053 13.935C19.2421 13.9789 18.6551 14.3975 16.5547 15.8255C15.0709 16.8343 13.7597 17.7009 13.6411 17.7513C13.2591 17.9135 12.7518 18.0101 12.2817 18.0102C11.7768 18.0103 11.889 18.027 9.66467 17.6212C7.90455 17.3002 7.80221 17.2914 7.4108 17.4271C7.32024 17.4585 6.91753 17.6908 6.51588 17.9434C6.11427 18.196 5.77102 18.4027 5.75317 18.4027C5.73535 18.4027 5.49674 17.6728 5.22299 16.7806C4.94924 15.8885 4.71877 15.139 4.71085 15.1151C4.70289 15.0911 4.82521 15.0146 4.98267 14.9451C5.14866 14.8717 5.40909 14.6979 5.60261 14.5314C6.42562 13.8232 6.92795 13.5719 7.72941 13.4673C8.01055 13.4306 8.63665 13.4832 8.95373 13.5702ZM16.9937 13.5324C17.0631 13.5653 17.1173 13.6116 17.1142 13.6352C17.1111 13.6588 16.8142 13.8355 16.4544 14.0277C16.0947 14.22 15.6292 14.4698 15.42 14.5827L15.0397 14.7882L14.9261 14.5732L14.8125 14.3582L15.1305 14.1864C15.8859 13.7784 16.4207 13.4944 16.4821 13.4687C16.5769 13.4291 16.8466 13.4626 16.9937 13.5324ZM4.69102 17.1292C5.23337 18.8953 5.68574 20.3649 5.69634 20.3948C5.71151 20.4377 5.37056 20.4492 4.0855 20.4492H2.45544L2.43068 20.3077C2.39264 20.0903 1.65975 14.0939 1.65975 14.0001C1.65975 13.9215 1.708 13.9176 2.68235 13.9179L3.70496 13.9181L4.69102 17.1292ZM3.55841 18.8009C3.05172 19.0492 2.96679 19.7645 3.39937 20.1405C4.01482 20.6756 4.96006 20.0785 4.73839 19.2947C4.60006 18.8056 4.03303 18.5683 3.55841 18.8009ZM4.12126 19.4013C4.19313 19.5343 4.17532 19.6143 4.05683 19.6912C3.95496 19.7573 3.93877 19.7573 3.83691 19.6912C3.71908 19.6148 3.69106 19.4571 3.77973 19.3693C3.86334 19.2865 4.06967 19.3058 4.12126 19.4013Z" stroke="#F2F2F2" stroke-width="0.4" mask="url(#path-1-outside-1_1708_17726)"/>
</svg>
