<svg width="21" height="20" viewBox="0 0 21 20" fill="none" xmlns="http://www.w3.org/2000/svg">
<path fill-rule="evenodd" clip-rule="evenodd" d="M3.77927 0.0110393C3.73624 0.0209762 3.60499 0.0486352 3.48762 0.0724994C2.64607 0.243383 1.80852 0.94992 1.45302 1.78885C1.3139 2.11715 1.25749 2.36108 1.23042 2.75132C1.17639 3.53125 1.46851 4.34024 2.00769 4.90383L2.23686 5.14341L1.94286 5.32666C0.962237 5.93786 0.246467 7.01057 0.0616559 8.14612C-0.0181132 8.63624 -0.0214777 11.1586 0.0573917 11.3474C0.162668 11.5994 0.289814 11.6605 1.58595 12.082L2.81488 12.4816L2.97642 12.8822L3.13791 13.2828L2.59224 14.3736C1.96453 15.6285 1.92999 15.7195 1.99924 15.9361C2.07005 16.1575 3.78303 17.8796 4.0241 17.9716C4.25753 18.0608 4.31989 18.038 5.61083 17.3922L6.70162 16.8465L7.10219 17.008L7.50272 17.1695L7.89049 18.387C8.10378 19.0566 8.31348 19.6567 8.35651 19.7204C8.39954 19.7842 8.48444 19.8731 8.54519 19.9181C8.65231 19.9975 8.69695 20 10.0192 20C11.3414 20 11.3861 19.9975 11.4932 19.9181C11.5539 19.8731 11.6388 19.7842 11.6819 19.7204C11.7249 19.6567 11.9346 19.0566 12.1479 18.387L12.5356 17.1695L12.9362 17.008L13.3367 16.8465L14.4275 17.3922C15.0275 17.6923 15.592 17.9599 15.682 17.9869C15.9852 18.0777 16.0787 18.0119 17.0878 16.9975C18.0867 15.9935 18.1377 15.9192 18.0383 15.6136C18.0111 15.5301 17.744 14.9716 17.4447 14.3724L16.9005 13.2828L17.0619 12.8822L17.2235 12.4816L18.4524 12.082C19.7485 11.6605 19.8757 11.5994 19.981 11.3474C20.0598 11.1586 20.0565 8.63624 19.9767 8.14612C19.7919 7.01057 19.0761 5.93786 18.0955 5.32666L17.8015 5.14341L18.0307 4.90383C18.8114 4.08775 19.0327 2.84458 18.5853 1.78885C18.2313 0.953363 17.4501 0.290564 16.5525 0.0639709C16.2732 -0.00656549 15.5017 -0.00656549 15.2224 0.0639709C14.171 0.329372 13.3249 1.15957 13.0458 2.19962C13.017 2.30721 12.9931 2.44363 12.9929 2.50282C12.9926 2.56201 12.9748 2.6104 12.9533 2.6104C12.9318 2.6104 12.914 2.56201 12.9137 2.50282C12.9135 2.44363 12.8897 2.30721 12.8608 2.19962C12.5817 1.15957 11.7356 0.329372 10.6842 0.0639709C10.4049 -0.00656549 9.63344 -0.00656549 9.35411 0.0639709C8.45646 0.290564 7.67532 0.953363 7.32127 1.78885C7.2097 2.05213 7.12527 2.35869 7.12465 2.50282C7.12437 2.56201 7.10657 2.6104 7.08505 2.6104C7.06354 2.6104 7.04574 2.56201 7.04546 2.50282C7.04484 2.35869 6.96041 2.05213 6.84884 1.78885C6.50206 0.970577 5.75484 0.323817 4.87468 0.0801281C4.67657 0.0252796 3.92301 -0.0222533 3.77927 0.0110393ZM4.46817 1.20284C5.38666 1.37701 6.0299 2.27798 5.88034 3.18072C5.75316 3.94817 5.17572 4.5256 4.40827 4.65279C3.27703 4.84022 2.23408 3.79727 2.42151 2.66603C2.58532 1.67747 3.50479 1.02014 4.46817 1.20284ZM10.3364 1.20284C11.2549 1.37701 11.8982 2.27798 11.7486 3.18072C11.6214 3.94817 11.044 4.5256 10.2765 4.65279C9.14528 4.84022 8.10234 3.79727 8.28977 2.66603C8.45357 1.67747 9.37305 1.02014 10.3364 1.20284ZM16.2047 1.20284C17.1232 1.37701 17.7664 2.27798 17.6168 3.18072C17.4897 3.94817 16.9122 4.5256 16.1448 4.65279C15.0135 4.84022 13.9706 3.79727 14.158 2.66603C14.3218 1.67747 15.2413 1.02014 16.2047 1.20284ZM7.22331 3.80068C7.33316 4.13873 7.58808 4.58612 7.81147 4.83298L8.02511 5.06908L7.74089 5.20624C7.5846 5.28171 7.33348 5.42352 7.18286 5.52141C7.03224 5.61925 6.89461 5.69972 6.87704 5.70019C6.85944 5.70062 6.75178 5.62621 6.63774 5.53475C6.52374 5.44328 6.34683 5.31926 6.24464 5.25913L6.05885 5.14979L6.29112 4.90704C6.41885 4.77352 6.58962 4.55072 6.67064 4.41192C6.82658 4.14475 7.04593 3.54384 7.04593 3.3838C7.04593 3.2065 7.10442 3.22837 7.13169 3.41588C7.14659 3.5183 7.18783 3.69149 7.22331 3.80068ZM12.9924 3.37961C12.9924 3.54326 13.21 4.14166 13.3677 4.41192C13.4487 4.55072 13.6195 4.77352 13.7472 4.90704L13.9795 5.14979L13.7937 5.25913C13.6915 5.31926 13.5146 5.44328 13.4006 5.53475C13.2866 5.62621 13.1807 5.70101 13.1652 5.70101C13.1498 5.70101 12.9964 5.61072 12.8244 5.5004C12.6524 5.39004 12.3988 5.24861 12.2609 5.18609L12.0102 5.07241L12.231 4.82923C12.5612 4.46559 12.9142 3.69309 12.9142 3.33407C12.9142 3.27582 12.931 3.24214 12.9533 3.25591C12.9748 3.26921 12.9924 3.32488 12.9924 3.37961ZM4.93336 5.96904C5.07322 6.01097 5.25604 6.0747 5.33964 6.11062C5.54327 6.19813 5.98965 6.482 5.98965 6.52402C5.98965 6.54244 5.90264 6.67248 5.79631 6.81301C5.28753 7.4852 4.90582 8.39446 4.79734 9.19262L4.77206 9.37845H2.96949H1.16688L1.18754 8.82097C1.20444 8.36434 1.22658 8.20687 1.31007 7.95051C1.6498 6.90729 2.47249 6.15956 3.54454 5.91974C3.9045 5.83919 4.58056 5.86321 4.93336 5.96904ZM10.6693 5.9172C12.4041 6.21531 13.7636 7.55069 14.0635 9.25131L14.0859 9.37845H10.0192H5.95248L5.9749 9.25131C6.11374 8.46394 6.53117 7.66371 7.10375 7.08706C8.0458 6.13839 9.38999 5.69738 10.6693 5.9172ZM16.4661 5.91947C17.5464 6.14148 18.3841 6.89356 18.7283 7.95051C18.8118 8.20687 18.8339 8.36434 18.8508 8.82097L18.8715 9.37845H17.0689H15.2663L15.241 9.19262C15.1325 8.39446 14.7508 7.4852 14.2421 6.81301C14.1357 6.67248 14.0487 6.54244 14.0487 6.52402C14.0487 6.48184 14.4958 6.1977 14.6987 6.11093C15.2675 5.86755 15.887 5.80046 16.4661 5.91947ZM4.79788 10.7379C5.01129 12.2759 6.00518 13.7329 7.38876 14.5362C8.39101 15.1181 9.59823 15.3531 10.7429 15.1893C11.9162 15.0213 12.8896 14.5327 13.7399 13.6848C14.5585 12.8686 15.0895 11.8258 15.2405 10.7379L15.2663 10.5521H17.0662H18.8661L18.8536 10.6371C18.8426 10.7119 18.698 10.7688 17.6515 11.1097C16.726 11.4113 16.4389 11.5204 16.3578 11.6017C16.3004 11.6592 16.2044 11.8382 16.1443 11.9996C16.0843 12.161 15.9491 12.4899 15.8439 12.7305C15.7387 12.9712 15.6527 13.2209 15.6527 13.2856C15.6527 13.3583 15.8615 13.8221 16.2004 14.502C16.5016 15.1064 16.7481 15.6222 16.7481 15.6482C16.7481 15.7107 15.7657 16.6942 15.7032 16.6942C15.6766 16.6942 15.1603 16.4477 14.5559 16.1465C13.876 15.8076 13.4122 15.5988 13.3395 15.5988C13.2748 15.5988 13.0251 15.6848 12.7844 15.79C12.5438 15.8952 12.2149 16.0303 12.0535 16.0904C11.8921 16.1505 11.7137 16.246 11.657 16.3025C11.5659 16.3934 11.2553 17.2787 10.8058 18.7285L10.7755 18.8263H10.0192H9.26284L9.23252 18.7285C8.78301 17.2787 8.47243 16.3934 8.38135 16.3025C8.32466 16.246 8.14623 16.1505 7.98485 16.0904C7.82348 16.0303 7.49454 15.8952 7.25394 15.79C7.01331 15.6848 6.76351 15.5988 6.69885 15.5988C6.62612 15.5988 6.16237 15.8076 5.48243 16.1465C4.87808 16.4477 4.3623 16.6942 4.33629 16.6942C4.27373 16.6942 3.29025 15.7118 3.29025 15.6493C3.29025 15.6227 3.53672 15.1064 3.83795 14.502C4.17687 13.8221 4.38566 13.3583 4.38566 13.2856C4.38566 13.2209 4.29963 12.9712 4.19443 12.7305C4.08927 12.4899 3.95411 12.161 3.89402 11.9996C3.83396 11.8382 3.73792 11.6592 3.68057 11.6017C3.59951 11.5204 3.31232 11.4113 2.38681 11.1097C1.34035 10.7688 1.19575 10.7119 1.18472 10.6371L1.17224 10.5521H2.97215H4.77206L4.79788 10.7379ZM7.25406 10.8996C7.49411 11.6516 8.1379 12.3541 8.86509 12.6577C9.29864 12.8387 9.51087 12.8784 10.0387 12.8768C10.5034 12.8754 10.5779 12.8647 10.9013 12.7538C11.3971 12.5837 11.7098 12.3891 12.0764 12.0225C12.4421 11.6568 12.6451 11.3312 12.7911 10.8767L12.8946 10.5542L13.4903 10.5532L14.0859 10.5521L14.0618 10.6792C13.8177 11.9679 12.987 13.0687 11.8265 13.6415C9.97411 14.5556 7.75098 13.9528 6.60131 12.2245C6.27887 11.7398 6.12027 11.3429 5.96809 10.6401L5.94904 10.5521L6.54639 10.553L7.14374 10.554L7.25406 10.8996ZM11.6623 10.573C11.6623 10.6627 11.4211 11.0331 11.2539 11.2004C10.5678 11.8864 9.47054 11.8864 8.7845 11.2004C8.61722 11.0331 8.37607 10.6627 8.37607 10.573C8.37607 10.5615 9.11547 10.5521 10.0192 10.5521C10.9229 10.5521 11.6623 10.5615 11.6623 10.573Z" fill="#F2F2F2"/>
</svg>
