<svg width="21" height="24" viewBox="0 0 21 24" fill="none" xmlns="http://www.w3.org/2000/svg">
<mask id="path-1-outside-1_1258_15408" maskUnits="userSpaceOnUse" x="0" y="0" width="21" height="24" fill="black">
<rect fill="white" width="21" height="24"/>
<path fill-rule="evenodd" clip-rule="evenodd" d="M9.7172 1.10235C9.47217 1.22455 9.36081 1.34344 9.24842 1.60283C9.10363 1.93703 9.16399 2.42716 9.37982 2.66924C9.51373 2.81942 9.75596 2.93603 9.99585 2.96576L10.2073 2.99197L9.28509 3.92591L8.36285 4.8599L7.78759 4.54727C7.12069 4.18484 6.96489 4.14423 6.62871 4.24529C6.39259 4.31623 6.37448 4.33419 3.80409 7.04626C2.38124 8.54754 1.17431 9.84993 1.122 9.94055C1.06956 10.0313 1.01671 10.2084 1.00423 10.3351C0.963781 10.7451 1.21743 11.1763 1.5964 11.342C1.7903 11.4267 2.14082 11.4234 2.30951 11.3352C2.38621 11.2951 3.49521 10.1694 4.77392 8.83379L7.09884 6.40531L7.68559 6.72103C8.22418 7.01089 8.29284 7.03685 8.52254 7.03749C8.6898 7.03796 8.82666 7.01025 8.93539 6.95383C9.02606 6.90678 9.65343 6.30945 10.3521 5.60491C11.2792 4.66998 11.6089 4.3616 11.6168 4.42176C11.7223 5.2262 11.995 5.56418 12.5425 5.56882C12.9483 5.57221 13.2734 5.35742 13.4387 4.97673C13.5068 4.81985 13.5138 4.66281 13.5146 3.27551L13.5156 1.74716L13.4026 1.51406C13.3178 1.3391 13.2394 1.24882 13.0877 1.15189L12.8857 1.02277L11.4041 1.01139L9.92251 1L9.7172 1.10235ZM12.835 1.75322C12.8873 1.82575 12.8972 2.06138 12.8983 3.26542L12.8996 4.69168L12.8034 4.80868C12.6715 4.96916 12.4707 4.96916 12.3388 4.80868C12.2476 4.69778 12.2426 4.65971 12.2426 4.07583C12.2426 3.53813 12.2329 3.44734 12.1658 3.36068C12.1109 3.28974 12.0461 3.26138 11.9389 3.26138C11.8097 3.26138 11.7507 3.30035 11.5128 3.54282C9.86211 5.22469 8.68524 6.37742 8.59404 6.40166C8.50702 6.42473 8.34819 6.35598 7.79942 6.05762C7.42221 5.85253 7.06558 5.68474 7.0069 5.68474C6.92042 5.68474 6.4447 6.16486 4.49489 8.21983C2.24972 10.586 2.08017 10.7549 1.94918 10.7549C1.68851 10.7549 1.53497 10.4881 1.66009 10.2527C1.68756 10.201 2.85314 8.95869 4.25028 7.49204C5.90341 5.75663 6.81895 4.8254 6.87188 4.8254C6.91664 4.8254 7.26178 4.98975 7.63882 5.19062C8.01586 5.39149 8.37583 5.55584 8.43873 5.55584C8.55371 5.55584 8.78978 5.3297 10.7979 3.29601C11.2969 2.79054 11.3102 2.77232 11.2839 2.63001C11.2349 2.36529 11.1538 2.33328 10.5321 2.33328C10.0011 2.33328 9.97659 2.32933 9.8796 2.2278C9.77029 2.11346 9.74853 1.92655 9.83144 1.81453C9.95134 1.65259 10.0137 1.64636 11.4093 1.65693C12.7188 1.66686 12.7754 1.67068 12.835 1.75322ZM15.1303 3.4693C14.756 3.5918 14.4472 3.88475 14.2671 4.2883L14.152 4.54611L14.1406 9.59981L14.1292 14.6536L13.8977 14.7022C13.7703 14.729 13.6514 14.7509 13.6335 14.7509C13.6155 14.7509 13.5955 13.1605 13.589 11.2168L13.5771 7.68273L13.4834 7.44009C13.3508 7.09709 13.113 6.83262 12.7854 6.66384C12.5136 6.52381 12.5061 6.52261 11.9149 6.52261C11.3527 6.52261 11.3051 6.52923 11.0817 6.63879C10.7694 6.79193 10.4682 7.11883 10.348 7.43515C10.2562 7.67676 10.2535 7.72604 10.2391 9.47237L10.2242 11.2621L9.98551 11.3952C9.85419 11.4684 9.73769 11.5283 9.7266 11.5283C9.71556 11.5283 9.6988 11.2238 9.68944 10.8516C9.67396 10.2358 9.66291 10.1536 9.56699 9.93853C9.44109 9.65631 9.21988 9.41716 8.96163 9.284C8.78597 9.19343 8.71957 9.18659 8.01307 9.18659C7.26933 9.18659 7.24909 9.189 7.04809 9.30093C6.78195 9.44908 6.60616 9.64506 6.47607 9.93853L6.37136 10.1748L6.37095 11.7862L6.37054 13.3975L5.86078 13.6835C5.37985 13.9533 5.27132 13.9931 3.94107 14.3869C2.30281 14.872 1.96642 15.0178 1.64966 15.3805C1.42443 15.6384 1.23385 16.0227 1.1551 16.3779C1.08225 16.7065 1.12886 17.1025 1.33758 17.9285C1.52627 18.6752 1.58761 18.7898 1.79839 18.7898C1.91185 18.7898 2.09996 18.6144 2.09996 18.5086C2.09996 18.47 2.01525 18.0969 1.91173 17.6795C1.75519 17.0487 1.72711 16.8773 1.74509 16.6629C1.78349 16.2054 2.01521 15.8021 2.36182 15.5896C2.51121 15.498 5.25469 14.6367 5.28023 14.6734C5.2852 14.6806 5.73808 15.9421 6.28657 17.4767L7.28387 20.2671L7.26428 20.553C7.22909 21.0681 6.92876 21.5446 6.50367 21.76C6.21807 21.9046 4.4317 22.3225 4.071 22.3291C3.70077 22.3358 3.40195 22.21 3.15611 21.944C2.9333 21.703 2.86928 21.5349 2.63391 20.573C2.46251 19.8727 2.40465 19.6958 2.32109 19.617C2.14911 19.4548 1.89226 19.525 1.83859 19.7488C1.80607 19.8844 2.23009 21.5667 2.38293 21.9084C2.52049 22.2161 2.85585 22.5826 3.15619 22.7537C3.38635 22.8848 3.80359 22.9991 4.05535 23C4.47954 23.0016 6.46265 22.5222 6.86096 22.3218C7.18014 22.1612 7.55912 21.7565 7.71405 21.4108C7.86405 21.0761 7.89851 20.8951 7.89604 20.4548C7.89502 20.2717 7.90454 20.1218 7.91719 20.1218C7.98884 20.1218 14.6956 18.3881 14.9135 18.3132C15.2522 18.1969 15.6086 18.0088 15.9178 17.7834C16.0533 17.6846 16.9402 16.9346 17.8888 16.1167C19.7217 14.5364 19.8369 14.4163 19.9477 13.9691C20.0246 13.659 20.0178 13.4604 19.9199 13.1564C19.8104 12.8164 19.6848 12.6136 19.4488 12.3963C19.0111 11.9932 18.4089 11.9328 17.8139 12.2323C17.6441 12.3177 17.4944 12.3877 17.4814 12.3877C17.4683 12.3877 17.4576 11.171 17.4576 9.68386V6.98L17.3494 6.89097C17.2086 6.775 17.1186 6.77857 16.9774 6.90558L16.8622 7.00926L16.8508 9.95558L16.8395 12.9019L16.4402 13.2172C15.6943 13.8062 14.8811 14.3642 14.7688 14.3642C14.7561 14.3642 14.7507 12.1745 14.7569 9.49811C14.767 5.06434 14.774 4.62057 14.8359 4.50314C15.0165 4.16056 15.2556 4.05164 15.824 4.05293C16.323 4.05404 16.5204 4.12679 16.7027 4.3769C16.8194 4.53695 16.8215 4.54959 16.8439 5.24656C16.8655 5.91918 16.8712 5.9578 16.9613 6.03416C17.0767 6.13191 17.2437 6.13741 17.3663 6.04752C17.4544 5.98303 17.4576 5.95544 17.4576 5.27574C17.4576 4.67509 17.4454 4.5367 17.3752 4.34021C17.2285 3.92987 16.8879 3.5991 16.478 3.46895C16.2342 3.39153 15.3673 3.39178 15.1303 3.4693ZM12.6155 7.29624C12.7113 7.36701 12.8282 7.50227 12.8754 7.5968C12.9601 7.76643 12.9614 7.8143 12.9726 11.2598L12.984 14.7509H11.9563C11.3911 14.7509 10.9286 14.7347 10.9286 14.715C10.9286 14.6953 11.0961 14.5374 11.3008 14.3643C11.5055 14.1911 11.7657 13.9414 11.8789 13.8093C12.1142 13.5348 12.4102 12.9299 12.5113 12.5166C12.6837 11.8123 12.4204 11.1887 11.8341 10.9122C11.6379 10.8197 11.2156 10.7895 11.0004 10.8524L10.8875 10.8854V9.3146C10.8875 7.83454 10.8922 7.73412 10.9687 7.5772C11.0546 7.40095 11.2286 7.24764 11.4127 7.1859C11.4739 7.16536 11.7304 7.15286 11.9827 7.15806C12.4192 7.16708 12.4498 7.17374 12.6155 7.29624ZM8.75262 9.9063C9.04832 10.1169 9.05883 10.1551 9.07255 11.0694L9.08491 11.8935L8.06075 12.4629C7.49744 12.776 7.02534 13.0322 7.01154 13.0322C6.99778 13.0322 6.98649 12.4067 6.98649 11.6421C6.98649 10.2684 6.9876 10.2503 7.0797 10.106C7.24112 9.85315 7.38144 9.80975 8.03779 9.80971C8.57079 9.80962 8.62767 9.81731 8.75262 9.9063ZM11.5853 11.5117C11.9067 11.6463 12.0134 11.9526 11.8941 12.3985C11.7305 13.0104 11.4879 13.3745 10.9279 13.8492C10.4384 14.2639 10.354 14.3876 10.3538 14.6908C10.3536 14.9449 10.46 15.1433 10.679 15.2977C10.8167 15.3948 10.8258 15.3954 12.305 15.3954C13.7522 15.3954 13.8034 15.3925 14.1981 15.2888C14.8173 15.1261 15.2179 14.8874 16.6569 13.8239C17.3796 13.2897 18.0395 12.8157 18.1233 12.7706C18.4644 12.5867 18.9541 12.7095 19.1799 13.0355C19.4804 13.4696 19.4237 13.8959 19.0112 14.3038C18.8575 14.4557 16.2138 16.7322 15.6919 17.162C15.442 17.3679 15.1686 17.5273 14.8518 17.6521C14.4959 17.7923 7.7152 19.5267 7.678 19.4871C7.66182 19.4699 7.24864 18.3348 6.75978 16.9646C6.27096 15.5944 5.86444 14.4623 5.85643 14.4487C5.84838 14.4351 6.81398 13.8836 8.00223 13.2232C11.0409 11.5343 11.2122 11.4424 11.3218 11.4424C11.3756 11.4424 11.4942 11.4736 11.5853 11.5117ZM4.56979 19.0509C3.67396 19.2351 3.31051 20.4608 3.94789 21.148C4.1732 21.3909 4.40907 21.5058 4.73277 21.5301C5.38104 21.5788 5.9193 21.1226 6.0243 20.4355C6.11521 19.8406 5.68922 19.2074 5.10033 19.0623C4.84508 18.9994 4.82213 18.999 4.56979 19.0509ZM5.07705 19.7351C5.50698 19.9529 5.53396 20.5456 5.12616 20.8137C4.94318 20.934 4.60581 20.9083 4.45687 20.7628C4.28896 20.5986 4.22363 20.4313 4.24609 20.2227C4.27278 19.9751 4.37023 19.8308 4.57723 19.7324C4.79511 19.6289 4.8682 19.6293 5.07705 19.7351Z"/>
</mask>
<path fill-rule="evenodd" clip-rule="evenodd" d="M9.7172 1.10235C9.47217 1.22455 9.36081 1.34344 9.24842 1.60283C9.10363 1.93703 9.16399 2.42716 9.37982 2.66924C9.51373 2.81942 9.75596 2.93603 9.99585 2.96576L10.2073 2.99197L9.28509 3.92591L8.36285 4.8599L7.78759 4.54727C7.12069 4.18484 6.96489 4.14423 6.62871 4.24529C6.39259 4.31623 6.37448 4.33419 3.80409 7.04626C2.38124 8.54754 1.17431 9.84993 1.122 9.94055C1.06956 10.0313 1.01671 10.2084 1.00423 10.3351C0.963781 10.7451 1.21743 11.1763 1.5964 11.342C1.7903 11.4267 2.14082 11.4234 2.30951 11.3352C2.38621 11.2951 3.49521 10.1694 4.77392 8.83379L7.09884 6.40531L7.68559 6.72103C8.22418 7.01089 8.29284 7.03685 8.52254 7.03749C8.6898 7.03796 8.82666 7.01025 8.93539 6.95383C9.02606 6.90678 9.65343 6.30945 10.3521 5.60491C11.2792 4.66998 11.6089 4.3616 11.6168 4.42176C11.7223 5.2262 11.995 5.56418 12.5425 5.56882C12.9483 5.57221 13.2734 5.35742 13.4387 4.97673C13.5068 4.81985 13.5138 4.66281 13.5146 3.27551L13.5156 1.74716L13.4026 1.51406C13.3178 1.3391 13.2394 1.24882 13.0877 1.15189L12.8857 1.02277L11.4041 1.01139L9.92251 1L9.7172 1.10235ZM12.835 1.75322C12.8873 1.82575 12.8972 2.06138 12.8983 3.26542L12.8996 4.69168L12.8034 4.80868C12.6715 4.96916 12.4707 4.96916 12.3388 4.80868C12.2476 4.69778 12.2426 4.65971 12.2426 4.07583C12.2426 3.53813 12.2329 3.44734 12.1658 3.36068C12.1109 3.28974 12.0461 3.26138 11.9389 3.26138C11.8097 3.26138 11.7507 3.30035 11.5128 3.54282C9.86211 5.22469 8.68524 6.37742 8.59404 6.40166C8.50702 6.42473 8.34819 6.35598 7.79942 6.05762C7.42221 5.85253 7.06558 5.68474 7.0069 5.68474C6.92042 5.68474 6.4447 6.16486 4.49489 8.21983C2.24972 10.586 2.08017 10.7549 1.94918 10.7549C1.68851 10.7549 1.53497 10.4881 1.66009 10.2527C1.68756 10.201 2.85314 8.95869 4.25028 7.49204C5.90341 5.75663 6.81895 4.8254 6.87188 4.8254C6.91664 4.8254 7.26178 4.98975 7.63882 5.19062C8.01586 5.39149 8.37583 5.55584 8.43873 5.55584C8.55371 5.55584 8.78978 5.3297 10.7979 3.29601C11.2969 2.79054 11.3102 2.77232 11.2839 2.63001C11.2349 2.36529 11.1538 2.33328 10.5321 2.33328C10.0011 2.33328 9.97659 2.32933 9.8796 2.2278C9.77029 2.11346 9.74853 1.92655 9.83144 1.81453C9.95134 1.65259 10.0137 1.64636 11.4093 1.65693C12.7188 1.66686 12.7754 1.67068 12.835 1.75322ZM15.1303 3.4693C14.756 3.5918 14.4472 3.88475 14.2671 4.2883L14.152 4.54611L14.1406 9.59981L14.1292 14.6536L13.8977 14.7022C13.7703 14.729 13.6514 14.7509 13.6335 14.7509C13.6155 14.7509 13.5955 13.1605 13.589 11.2168L13.5771 7.68273L13.4834 7.44009C13.3508 7.09709 13.113 6.83262 12.7854 6.66384C12.5136 6.52381 12.5061 6.52261 11.9149 6.52261C11.3527 6.52261 11.3051 6.52923 11.0817 6.63879C10.7694 6.79193 10.4682 7.11883 10.348 7.43515C10.2562 7.67676 10.2535 7.72604 10.2391 9.47237L10.2242 11.2621L9.98551 11.3952C9.85419 11.4684 9.73769 11.5283 9.7266 11.5283C9.71556 11.5283 9.6988 11.2238 9.68944 10.8516C9.67396 10.2358 9.66291 10.1536 9.56699 9.93853C9.44109 9.65631 9.21988 9.41716 8.96163 9.284C8.78597 9.19343 8.71957 9.18659 8.01307 9.18659C7.26933 9.18659 7.24909 9.189 7.04809 9.30093C6.78195 9.44908 6.60616 9.64506 6.47607 9.93853L6.37136 10.1748L6.37095 11.7862L6.37054 13.3975L5.86078 13.6835C5.37985 13.9533 5.27132 13.9931 3.94107 14.3869C2.30281 14.872 1.96642 15.0178 1.64966 15.3805C1.42443 15.6384 1.23385 16.0227 1.1551 16.3779C1.08225 16.7065 1.12886 17.1025 1.33758 17.9285C1.52627 18.6752 1.58761 18.7898 1.79839 18.7898C1.91185 18.7898 2.09996 18.6144 2.09996 18.5086C2.09996 18.47 2.01525 18.0969 1.91173 17.6795C1.75519 17.0487 1.72711 16.8773 1.74509 16.6629C1.78349 16.2054 2.01521 15.8021 2.36182 15.5896C2.51121 15.498 5.25469 14.6367 5.28023 14.6734C5.2852 14.6806 5.73808 15.9421 6.28657 17.4767L7.28387 20.2671L7.26428 20.553C7.22909 21.0681 6.92876 21.5446 6.50367 21.76C6.21807 21.9046 4.4317 22.3225 4.071 22.3291C3.70077 22.3358 3.40195 22.21 3.15611 21.944C2.9333 21.703 2.86928 21.5349 2.63391 20.573C2.46251 19.8727 2.40465 19.6958 2.32109 19.617C2.14911 19.4548 1.89226 19.525 1.83859 19.7488C1.80607 19.8844 2.23009 21.5667 2.38293 21.9084C2.52049 22.2161 2.85585 22.5826 3.15619 22.7537C3.38635 22.8848 3.80359 22.9991 4.05535 23C4.47954 23.0016 6.46265 22.5222 6.86096 22.3218C7.18014 22.1612 7.55912 21.7565 7.71405 21.4108C7.86405 21.0761 7.89851 20.8951 7.89604 20.4548C7.89502 20.2717 7.90454 20.1218 7.91719 20.1218C7.98884 20.1218 14.6956 18.3881 14.9135 18.3132C15.2522 18.1969 15.6086 18.0088 15.9178 17.7834C16.0533 17.6846 16.9402 16.9346 17.8888 16.1167C19.7217 14.5364 19.8369 14.4163 19.9477 13.9691C20.0246 13.659 20.0178 13.4604 19.9199 13.1564C19.8104 12.8164 19.6848 12.6136 19.4488 12.3963C19.0111 11.9932 18.4089 11.9328 17.8139 12.2323C17.6441 12.3177 17.4944 12.3877 17.4814 12.3877C17.4683 12.3877 17.4576 11.171 17.4576 9.68386V6.98L17.3494 6.89097C17.2086 6.775 17.1186 6.77857 16.9774 6.90558L16.8622 7.00926L16.8508 9.95558L16.8395 12.9019L16.4402 13.2172C15.6943 13.8062 14.8811 14.3642 14.7688 14.3642C14.7561 14.3642 14.7507 12.1745 14.7569 9.49811C14.767 5.06434 14.774 4.62057 14.8359 4.50314C15.0165 4.16056 15.2556 4.05164 15.824 4.05293C16.323 4.05404 16.5204 4.12679 16.7027 4.3769C16.8194 4.53695 16.8215 4.54959 16.8439 5.24656C16.8655 5.91918 16.8712 5.9578 16.9613 6.03416C17.0767 6.13191 17.2437 6.13741 17.3663 6.04752C17.4544 5.98303 17.4576 5.95544 17.4576 5.27574C17.4576 4.67509 17.4454 4.5367 17.3752 4.34021C17.2285 3.92987 16.8879 3.5991 16.478 3.46895C16.2342 3.39153 15.3673 3.39178 15.1303 3.4693ZM12.6155 7.29624C12.7113 7.36701 12.8282 7.50227 12.8754 7.5968C12.9601 7.76643 12.9614 7.8143 12.9726 11.2598L12.984 14.7509H11.9563C11.3911 14.7509 10.9286 14.7347 10.9286 14.715C10.9286 14.6953 11.0961 14.5374 11.3008 14.3643C11.5055 14.1911 11.7657 13.9414 11.8789 13.8093C12.1142 13.5348 12.4102 12.9299 12.5113 12.5166C12.6837 11.8123 12.4204 11.1887 11.8341 10.9122C11.6379 10.8197 11.2156 10.7895 11.0004 10.8524L10.8875 10.8854V9.3146C10.8875 7.83454 10.8922 7.73412 10.9687 7.5772C11.0546 7.40095 11.2286 7.24764 11.4127 7.1859C11.4739 7.16536 11.7304 7.15286 11.9827 7.15806C12.4192 7.16708 12.4498 7.17374 12.6155 7.29624ZM8.75262 9.9063C9.04832 10.1169 9.05883 10.1551 9.07255 11.0694L9.08491 11.8935L8.06075 12.4629C7.49744 12.776 7.02534 13.0322 7.01154 13.0322C6.99778 13.0322 6.98649 12.4067 6.98649 11.6421C6.98649 10.2684 6.9876 10.2503 7.0797 10.106C7.24112 9.85315 7.38144 9.80975 8.03779 9.80971C8.57079 9.80962 8.62767 9.81731 8.75262 9.9063ZM11.5853 11.5117C11.9067 11.6463 12.0134 11.9526 11.8941 12.3985C11.7305 13.0104 11.4879 13.3745 10.9279 13.8492C10.4384 14.2639 10.354 14.3876 10.3538 14.6908C10.3536 14.9449 10.46 15.1433 10.679 15.2977C10.8167 15.3948 10.8258 15.3954 12.305 15.3954C13.7522 15.3954 13.8034 15.3925 14.1981 15.2888C14.8173 15.1261 15.2179 14.8874 16.6569 13.8239C17.3796 13.2897 18.0395 12.8157 18.1233 12.7706C18.4644 12.5867 18.9541 12.7095 19.1799 13.0355C19.4804 13.4696 19.4237 13.8959 19.0112 14.3038C18.8575 14.4557 16.2138 16.7322 15.6919 17.162C15.442 17.3679 15.1686 17.5273 14.8518 17.6521C14.4959 17.7923 7.7152 19.5267 7.678 19.4871C7.66182 19.4699 7.24864 18.3348 6.75978 16.9646C6.27096 15.5944 5.86444 14.4623 5.85643 14.4487C5.84838 14.4351 6.81398 13.8836 8.00223 13.2232C11.0409 11.5343 11.2122 11.4424 11.3218 11.4424C11.3756 11.4424 11.4942 11.4736 11.5853 11.5117ZM4.56979 19.0509C3.67396 19.2351 3.31051 20.4608 3.94789 21.148C4.1732 21.3909 4.40907 21.5058 4.73277 21.5301C5.38104 21.5788 5.9193 21.1226 6.0243 20.4355C6.11521 19.8406 5.68922 19.2074 5.10033 19.0623C4.84508 18.9994 4.82213 18.999 4.56979 19.0509ZM5.07705 19.7351C5.50698 19.9529 5.53396 20.5456 5.12616 20.8137C4.94318 20.934 4.60581 20.9083 4.45687 20.7628C4.28896 20.5986 4.22363 20.4313 4.24609 20.2227C4.27278 19.9751 4.37023 19.8308 4.57723 19.7324C4.79511 19.6289 4.8682 19.6293 5.07705 19.7351Z" fill="#F2F2F2"/>
<path fill-rule="evenodd" clip-rule="evenodd" d="M9.7172 1.10235C9.47217 1.22455 9.36081 1.34344 9.24842 1.60283C9.10363 1.93703 9.16399 2.42716 9.37982 2.66924C9.51373 2.81942 9.75596 2.93603 9.99585 2.96576L10.2073 2.99197L9.28509 3.92591L8.36285 4.8599L7.78759 4.54727C7.12069 4.18484 6.96489 4.14423 6.62871 4.24529C6.39259 4.31623 6.37448 4.33419 3.80409 7.04626C2.38124 8.54754 1.17431 9.84993 1.122 9.94055C1.06956 10.0313 1.01671 10.2084 1.00423 10.3351C0.963781 10.7451 1.21743 11.1763 1.5964 11.342C1.7903 11.4267 2.14082 11.4234 2.30951 11.3352C2.38621 11.2951 3.49521 10.1694 4.77392 8.83379L7.09884 6.40531L7.68559 6.72103C8.22418 7.01089 8.29284 7.03685 8.52254 7.03749C8.6898 7.03796 8.82666 7.01025 8.93539 6.95383C9.02606 6.90678 9.65343 6.30945 10.3521 5.60491C11.2792 4.66998 11.6089 4.3616 11.6168 4.42176C11.7223 5.2262 11.995 5.56418 12.5425 5.56882C12.9483 5.57221 13.2734 5.35742 13.4387 4.97673C13.5068 4.81985 13.5138 4.66281 13.5146 3.27551L13.5156 1.74716L13.4026 1.51406C13.3178 1.3391 13.2394 1.24882 13.0877 1.15189L12.8857 1.02277L11.4041 1.01139L9.92251 1L9.7172 1.10235ZM12.835 1.75322C12.8873 1.82575 12.8972 2.06138 12.8983 3.26542L12.8996 4.69168L12.8034 4.80868C12.6715 4.96916 12.4707 4.96916 12.3388 4.80868C12.2476 4.69778 12.2426 4.65971 12.2426 4.07583C12.2426 3.53813 12.2329 3.44734 12.1658 3.36068C12.1109 3.28974 12.0461 3.26138 11.9389 3.26138C11.8097 3.26138 11.7507 3.30035 11.5128 3.54282C9.86211 5.22469 8.68524 6.37742 8.59404 6.40166C8.50702 6.42473 8.34819 6.35598 7.79942 6.05762C7.42221 5.85253 7.06558 5.68474 7.0069 5.68474C6.92042 5.68474 6.4447 6.16486 4.49489 8.21983C2.24972 10.586 2.08017 10.7549 1.94918 10.7549C1.68851 10.7549 1.53497 10.4881 1.66009 10.2527C1.68756 10.201 2.85314 8.95869 4.25028 7.49204C5.90341 5.75663 6.81895 4.8254 6.87188 4.8254C6.91664 4.8254 7.26178 4.98975 7.63882 5.19062C8.01586 5.39149 8.37583 5.55584 8.43873 5.55584C8.55371 5.55584 8.78978 5.3297 10.7979 3.29601C11.2969 2.79054 11.3102 2.77232 11.2839 2.63001C11.2349 2.36529 11.1538 2.33328 10.5321 2.33328C10.0011 2.33328 9.97659 2.32933 9.8796 2.2278C9.77029 2.11346 9.74853 1.92655 9.83144 1.81453C9.95134 1.65259 10.0137 1.64636 11.4093 1.65693C12.7188 1.66686 12.7754 1.67068 12.835 1.75322ZM15.1303 3.4693C14.756 3.5918 14.4472 3.88475 14.2671 4.2883L14.152 4.54611L14.1406 9.59981L14.1292 14.6536L13.8977 14.7022C13.7703 14.729 13.6514 14.7509 13.6335 14.7509C13.6155 14.7509 13.5955 13.1605 13.589 11.2168L13.5771 7.68273L13.4834 7.44009C13.3508 7.09709 13.113 6.83262 12.7854 6.66384C12.5136 6.52381 12.5061 6.52261 11.9149 6.52261C11.3527 6.52261 11.3051 6.52923 11.0817 6.63879C10.7694 6.79193 10.4682 7.11883 10.348 7.43515C10.2562 7.67676 10.2535 7.72604 10.2391 9.47237L10.2242 11.2621L9.98551 11.3952C9.85419 11.4684 9.73769 11.5283 9.7266 11.5283C9.71556 11.5283 9.6988 11.2238 9.68944 10.8516C9.67396 10.2358 9.66291 10.1536 9.56699 9.93853C9.44109 9.65631 9.21988 9.41716 8.96163 9.284C8.78597 9.19343 8.71957 9.18659 8.01307 9.18659C7.26933 9.18659 7.24909 9.189 7.04809 9.30093C6.78195 9.44908 6.60616 9.64506 6.47607 9.93853L6.37136 10.1748L6.37095 11.7862L6.37054 13.3975L5.86078 13.6835C5.37985 13.9533 5.27132 13.9931 3.94107 14.3869C2.30281 14.872 1.96642 15.0178 1.64966 15.3805C1.42443 15.6384 1.23385 16.0227 1.1551 16.3779C1.08225 16.7065 1.12886 17.1025 1.33758 17.9285C1.52627 18.6752 1.58761 18.7898 1.79839 18.7898C1.91185 18.7898 2.09996 18.6144 2.09996 18.5086C2.09996 18.47 2.01525 18.0969 1.91173 17.6795C1.75519 17.0487 1.72711 16.8773 1.74509 16.6629C1.78349 16.2054 2.01521 15.8021 2.36182 15.5896C2.51121 15.498 5.25469 14.6367 5.28023 14.6734C5.2852 14.6806 5.73808 15.9421 6.28657 17.4767L7.28387 20.2671L7.26428 20.553C7.22909 21.0681 6.92876 21.5446 6.50367 21.76C6.21807 21.9046 4.4317 22.3225 4.071 22.3291C3.70077 22.3358 3.40195 22.21 3.15611 21.944C2.9333 21.703 2.86928 21.5349 2.63391 20.573C2.46251 19.8727 2.40465 19.6958 2.32109 19.617C2.14911 19.4548 1.89226 19.525 1.83859 19.7488C1.80607 19.8844 2.23009 21.5667 2.38293 21.9084C2.52049 22.2161 2.85585 22.5826 3.15619 22.7537C3.38635 22.8848 3.80359 22.9991 4.05535 23C4.47954 23.0016 6.46265 22.5222 6.86096 22.3218C7.18014 22.1612 7.55912 21.7565 7.71405 21.4108C7.86405 21.0761 7.89851 20.8951 7.89604 20.4548C7.89502 20.2717 7.90454 20.1218 7.91719 20.1218C7.98884 20.1218 14.6956 18.3881 14.9135 18.3132C15.2522 18.1969 15.6086 18.0088 15.9178 17.7834C16.0533 17.6846 16.9402 16.9346 17.8888 16.1167C19.7217 14.5364 19.8369 14.4163 19.9477 13.9691C20.0246 13.659 20.0178 13.4604 19.9199 13.1564C19.8104 12.8164 19.6848 12.6136 19.4488 12.3963C19.0111 11.9932 18.4089 11.9328 17.8139 12.2323C17.6441 12.3177 17.4944 12.3877 17.4814 12.3877C17.4683 12.3877 17.4576 11.171 17.4576 9.68386V6.98L17.3494 6.89097C17.2086 6.775 17.1186 6.77857 16.9774 6.90558L16.8622 7.00926L16.8508 9.95558L16.8395 12.9019L16.4402 13.2172C15.6943 13.8062 14.8811 14.3642 14.7688 14.3642C14.7561 14.3642 14.7507 12.1745 14.7569 9.49811C14.767 5.06434 14.774 4.62057 14.8359 4.50314C15.0165 4.16056 15.2556 4.05164 15.824 4.05293C16.323 4.05404 16.5204 4.12679 16.7027 4.3769C16.8194 4.53695 16.8215 4.54959 16.8439 5.24656C16.8655 5.91918 16.8712 5.9578 16.9613 6.03416C17.0767 6.13191 17.2437 6.13741 17.3663 6.04752C17.4544 5.98303 17.4576 5.95544 17.4576 5.27574C17.4576 4.67509 17.4454 4.5367 17.3752 4.34021C17.2285 3.92987 16.8879 3.5991 16.478 3.46895C16.2342 3.39153 15.3673 3.39178 15.1303 3.4693ZM12.6155 7.29624C12.7113 7.36701 12.8282 7.50227 12.8754 7.5968C12.9601 7.76643 12.9614 7.8143 12.9726 11.2598L12.984 14.7509H11.9563C11.3911 14.7509 10.9286 14.7347 10.9286 14.715C10.9286 14.6953 11.0961 14.5374 11.3008 14.3643C11.5055 14.1911 11.7657 13.9414 11.8789 13.8093C12.1142 13.5348 12.4102 12.9299 12.5113 12.5166C12.6837 11.8123 12.4204 11.1887 11.8341 10.9122C11.6379 10.8197 11.2156 10.7895 11.0004 10.8524L10.8875 10.8854V9.3146C10.8875 7.83454 10.8922 7.73412 10.9687 7.5772C11.0546 7.40095 11.2286 7.24764 11.4127 7.1859C11.4739 7.16536 11.7304 7.15286 11.9827 7.15806C12.4192 7.16708 12.4498 7.17374 12.6155 7.29624ZM8.75262 9.9063C9.04832 10.1169 9.05883 10.1551 9.07255 11.0694L9.08491 11.8935L8.06075 12.4629C7.49744 12.776 7.02534 13.0322 7.01154 13.0322C6.99778 13.0322 6.98649 12.4067 6.98649 11.6421C6.98649 10.2684 6.9876 10.2503 7.0797 10.106C7.24112 9.85315 7.38144 9.80975 8.03779 9.80971C8.57079 9.80962 8.62767 9.81731 8.75262 9.9063ZM11.5853 11.5117C11.9067 11.6463 12.0134 11.9526 11.8941 12.3985C11.7305 13.0104 11.4879 13.3745 10.9279 13.8492C10.4384 14.2639 10.354 14.3876 10.3538 14.6908C10.3536 14.9449 10.46 15.1433 10.679 15.2977C10.8167 15.3948 10.8258 15.3954 12.305 15.3954C13.7522 15.3954 13.8034 15.3925 14.1981 15.2888C14.8173 15.1261 15.2179 14.8874 16.6569 13.8239C17.3796 13.2897 18.0395 12.8157 18.1233 12.7706C18.4644 12.5867 18.9541 12.7095 19.1799 13.0355C19.4804 13.4696 19.4237 13.8959 19.0112 14.3038C18.8575 14.4557 16.2138 16.7322 15.6919 17.162C15.442 17.3679 15.1686 17.5273 14.8518 17.6521C14.4959 17.7923 7.7152 19.5267 7.678 19.4871C7.66182 19.4699 7.24864 18.3348 6.75978 16.9646C6.27096 15.5944 5.86444 14.4623 5.85643 14.4487C5.84838 14.4351 6.81398 13.8836 8.00223 13.2232C11.0409 11.5343 11.2122 11.4424 11.3218 11.4424C11.3756 11.4424 11.4942 11.4736 11.5853 11.5117ZM4.56979 19.0509C3.67396 19.2351 3.31051 20.4608 3.94789 21.148C4.1732 21.3909 4.40907 21.5058 4.73277 21.5301C5.38104 21.5788 5.9193 21.1226 6.0243 20.4355C6.11521 19.8406 5.68922 19.2074 5.10033 19.0623C4.84508 18.9994 4.82213 18.999 4.56979 19.0509ZM5.07705 19.7351C5.50698 19.9529 5.53396 20.5456 5.12616 20.8137C4.94318 20.934 4.60581 20.9083 4.45687 20.7628C4.28896 20.5986 4.22363 20.4313 4.24609 20.2227C4.27278 19.9751 4.37023 19.8308 4.57723 19.7324C4.79511 19.6289 4.8682 19.6293 5.07705 19.7351Z" stroke="#F2F2F2" stroke-width="0.2" mask="url(#path-1-outside-1_1258_15408)"/>
</svg>
