<svg width="23" height="24" viewBox="0 0 23 24" fill="none" xmlns="http://www.w3.org/2000/svg">
<path d="M10.4974 11.1632C9.61286 11.1632 8.7482 10.9009 8.01275 10.4095C7.2773 9.91808 6.70408 9.21961 6.36559 8.40242C6.0271 7.58523 5.93853 6.68601 6.11109 5.81849C6.28365 4.95096 6.70959 4.15409 7.33504 3.52864C7.9605 2.90318 8.75737 2.47725 9.6249 2.30468C10.4924 2.13212 11.3916 2.22069 12.2088 2.55918C13.026 2.89767 13.7245 3.47089 14.2159 4.20634C14.7073 4.94179 14.9696 5.80645 14.9696 6.69097C14.9696 7.87708 14.4984 9.01461 13.6597 9.85331C12.821 10.692 11.6835 11.1632 10.4974 11.1632ZM10.4974 3.54764C9.86558 3.54764 9.24797 3.73499 8.72264 4.086C8.19732 4.43701 7.78788 4.93592 7.5461 5.51962C7.30432 6.10333 7.24106 6.74563 7.36432 7.36529C7.48758 7.98495 7.79182 8.55415 8.23857 9.0009C8.68532 9.44765 9.25452 9.75189 9.87418 9.87515C10.4938 9.99841 11.1361 9.93515 11.7198 9.69337C12.3036 9.45159 12.8025 9.04215 13.1535 8.51682C13.5045 7.9915 13.6918 7.37389 13.6918 6.74209C13.6918 6.32259 13.6092 5.90719 13.4487 5.51962C13.2881 5.13206 13.0528 4.7799 12.7562 4.48327C12.4596 4.18664 12.1074 3.95134 11.7198 3.7908C11.3323 3.63027 10.9169 3.54764 10.4974 3.54764ZM14.056 11.9363C10.5986 11.1583 6.98159 11.533 3.7571 13.0032C3.31365 13.215 2.93949 13.5485 2.67821 13.9647C2.41693 14.381 2.27927 14.8629 2.28127 15.3543V19.1557C2.28127 19.2396 2.2978 19.3227 2.3299 19.4002C2.36201 19.4777 2.40907 19.5481 2.4684 19.6075C2.52772 19.6668 2.59815 19.7138 2.67567 19.746C2.75318 19.7781 2.83626 19.7946 2.92016 19.7946C3.00406 19.7946 3.08714 19.7781 3.16465 19.746C3.24217 19.7138 3.3126 19.6668 3.37192 19.6075C3.43125 19.5481 3.47831 19.4777 3.51042 19.4002C3.54252 19.3227 3.55905 19.2396 3.55905 19.1557V15.3543C3.55349 15.1056 3.62065 14.8607 3.7523 14.6496C3.88395 14.4385 4.07436 14.2704 4.30016 14.166C6.24255 13.2691 8.35795 12.809 10.4974 12.8179C11.6961 12.8164 12.8908 12.9579 14.056 13.2396V11.9363ZM14.1454 18.0121H18.0682V18.9065H14.1454V18.0121Z" fill="#F2F2F2"/>
<path d="M21.1924 14.2167H17.8893V15.4945H20.5535V20.842H11.5004V15.4945H15.5254V15.7628C15.5254 15.9323 15.5927 16.0948 15.7126 16.2146C15.8324 16.3344 15.9949 16.4017 16.1643 16.4017C16.3338 16.4017 16.4963 16.3344 16.6161 16.2146C16.7359 16.0948 16.8032 15.9323 16.8032 15.7628V13.2776C16.8032 13.1081 16.7359 12.9456 16.6161 12.8258C16.4963 12.706 16.3338 12.6387 16.1643 12.6387C15.9949 12.6387 15.8324 12.706 15.7126 12.8258C15.5927 12.9456 15.5254 13.1081 15.5254 13.2776V14.2167H10.8615C10.6921 14.2167 10.5296 14.284 10.4098 14.4039C10.29 14.5237 10.2227 14.6862 10.2227 14.8556V21.4809C10.2227 21.6503 10.29 21.8128 10.4098 21.9327C10.5296 22.0525 10.6921 22.1198 10.8615 22.1198H21.1924C21.3618 22.1198 21.5243 22.0525 21.6441 21.9327C21.764 21.8128 21.8313 21.6503 21.8313 21.4809V14.8556C21.8313 14.6862 21.764 14.5237 21.6441 14.4039C21.5243 14.284 21.3618 14.2167 21.1924 14.2167Z" fill="#F2F2F2"/>
</svg>
