<svg width="20" height="20" viewBox="0 0 20 20" fill="none" xmlns="http://www.w3.org/2000/svg">
<path fill-rule="evenodd" clip-rule="evenodd" d="M3.91691 0.0437222C2.06142 0.36883 0.628546 1.59938 0.108428 3.3145C0.0052821 3.6546 0 6.71233 0 6.71233V16.3706L0.191454 16.8979C0.792403 18.5533 2.207 19.6843 4.00629 19.9481C4.33104 19.9957 6.01988 20.0083 10.2671 19.995C15.4777 19.9786 16.1172 19.9672 16.4104 19.8846C17.0542 19.7034 17.4199 19.5521 17.8538 19.2871C18.8865 18.6566 19.5453 17.7894 19.901 16.5926C19.9917 16.2876 20 15.4537 20 6.68457C20 6.68457 19.9917 3.69956 19.901 3.39454C19.5453 2.19775 18.8865 1.33055 17.8538 0.700043C17.4199 0.435106 17.0545 0.283848 16.4104 0.102505C16.1158 0.0195764 15.4885 0.0094186 10.1484 0.00103697C6.66326 -0.00445828 4.09116 0.0131376 3.91691 0.0437222ZM11.9168 2.77008C11.9655 4.14278 12.1244 4.69819 12.7138 5.55484C13.332 6.45362 14.3399 7.12986 15.491 7.41834C15.8562 7.50987 16.2119 7.54439 17.0475 7.56943L18.1306 7.6019V8.42967C18.1306 14.8506 18.1184 15.9192 18.042 16.1934C17.7739 17.1559 16.9855 17.8957 15.9619 18.1451C15.4372 18.273 4.56279 18.273 4.0381 18.1451C3.01448 17.8957 2.22605 17.1559 1.95798 16.1934C1.82439 15.7138 1.82439 4.27339 1.95798 3.79381C2.22261 2.84352 3.00944 2.09711 4.01258 1.84483C4.27519 1.77878 5.00677 1.76373 8.10659 1.76074L11.8808 1.75707L11.9168 2.77008ZM15.9619 1.84205C16.9855 2.09145 17.7739 2.83125 18.042 3.79381C18.1018 4.00851 18.1306 4.38718 18.1306 4.96041V5.80912L17.4332 5.8074C16.0224 5.80396 15.4216 5.63438 14.7453 5.04872C14.042 4.43975 13.8615 3.9817 13.8145 2.68682L13.7808 1.75707H14.6969C15.3281 1.75707 15.7215 1.78349 15.9619 1.84205ZM6.1641 5.77191C5.65988 5.90857 5.1549 6.38693 5.01092 6.86429C4.91579 7.17958 4.96938 7.74248 5.12059 8.01663C5.28226 8.30977 5.63591 8.62133 5.96439 8.7601C6.36688 8.93017 6.97727 8.91802 7.37644 8.73196C8.24795 8.32575 8.5854 7.3355 8.12297 6.54085C7.75864 5.91478 6.89199 5.57458 6.1641 5.77191ZM12.2789 7.09332C12.1516 7.18169 10.7611 8.4618 9.1889 9.93808C6.72107 12.2552 6.32024 12.6544 6.25668 12.858C6.17056 13.1336 6.23958 13.4268 6.44908 13.676C6.68813 13.9602 7.21917 14.069 7.5549 13.9026C7.64303 13.8589 9.06867 12.5538 10.7229 11.0024C13.9523 7.97378 13.8765 8.05837 13.7693 7.60171C13.6307 7.01178 12.8031 6.72941 12.2789 7.09332ZM12.8974 12.0582C12.4001 12.1889 11.9723 12.5602 11.7817 13.0267C11.5522 13.5881 11.6642 14.1683 12.0888 14.6196C12.5313 15.0898 13.1281 15.2707 13.7472 15.1223C14.5453 14.9311 15.0427 14.3427 15.0439 13.5885C15.0456 12.543 13.9701 11.7763 12.8974 12.0582Z" fill="#F2F2F2"/>
</svg>
