<svg width="20" height="20" viewBox="0 0 20 20" fill="none" xmlns="http://www.w3.org/2000/svg">
<path d="M9.50001 4.5V6V6.5H9.00001H8.00001C7.46958 6.5 6.96087 6.71071 6.5858 7.08579C6.21073 7.46086 6.00001 7.96957 6.00001 8.5C6.00001 9.03043 6.21073 9.53914 6.5858 9.91421C6.96087 10.2893 7.46958 10.5 8.00001 10.5H12H12.0222L12.0443 10.502L12.1343 10.51L12.1568 10.512L12.1791 10.516C12.425 10.5605 12.6453 10.6955 12.7967 10.8943C12.948 11.0932 13.0194 11.3415 12.9968 11.5904C12.9743 11.8392 12.8593 12.0706 12.6747 12.239C12.4901 12.4072 12.2494 12.5003 11.9997 12.5H12V12.0005L11.9991 12.5L9.50001 4.5ZM9.50001 4.5H10.5V6V6.5H11H13V7.5H8.00031L9.50001 4.5ZM10 19.5H9.99928C7.80745 19.5032 5.68325 18.7452 3.98908 17.3568L4.43238 16.422C5.72555 17.5435 7.33211 18.2521 9.04382 18.4462C10.991 18.6668 12.9545 18.208 14.6022 17.1472C16.2499 16.0865 17.4805 14.489 18.0856 12.6252C18.6908 10.7614 18.6334 8.74573 17.9231 6.91938C17.2128 5.09303 15.8934 3.56818 14.188 2.60293C12.4826 1.63769 10.4961 1.29133 8.56466 1.62249C6.63324 1.95365 4.87557 2.94198 3.58914 4.4202C2.30271 5.89841 1.56655 7.77572 1.50526 9.73436L1.50522 9.73436L1.50511 9.74L1.50011 9.99L1.48991 10.5H2.00001H3.71011L1.73108 14.6804C0.924219 13.2581 0.497464 11.646 0.500012 10.0008V10C0.500012 4.75314 4.75315 0.5 10 0.5C15.2469 0.5 19.5 4.75314 19.5 10C19.5 15.2469 15.2469 19.5 10 19.5ZM10.5 15.5H9.50001V14V13.5H9.00001H7.00001V12.5L10.5 15.5Z" fill="white" stroke="#5A6474"/>
</svg>
