<svg width="21" height="20" viewBox="0 0 21 20" fill="none" xmlns="http://www.w3.org/2000/svg">
<mask id="path-1-outside-1_1708_19534" maskUnits="userSpaceOnUse" x="0" y="0.0612793" width="21" height="20" fill="black">
<rect fill="white" y="0.0612793" width="21" height="20"/>
<path fill-rule="evenodd" clip-rule="evenodd" d="M3.59412 1.06681C3.31868 1.10264 2.92593 1.22123 2.70016 1.33676C2.39018 1.49537 2.06775 1.76579 1.8683 2.03443C1.59257 2.40581 1.4749 2.75587 1.39794 3.4337C1.38053 3.58707 1.30606 4.10695 1.23245 4.58897C1.05002 5.78348 1.04021 5.86971 1.01908 6.46127C0.988416 7.32014 0.9924 7.49558 1.048 7.73679C1.17416 8.28405 1.52629 8.68557 2.04204 8.87025C2.29569 8.96108 2.40331 8.97108 3.11799 8.9703C3.75122 8.96959 3.79708 8.96708 3.94393 8.92507C4.1623 8.86256 4.385 8.74405 4.57168 8.59096L4.7315 8.45989L4.82842 8.54921C5.02128 8.72694 5.23748 8.84968 5.46334 8.90965C5.63356 8.95487 6.10475 8.98723 6.41202 8.97484C6.88941 8.95556 7.18373 8.84221 7.52548 8.54596L7.62836 8.45676L7.70038 8.52622C7.88615 8.70541 8.108 8.83862 8.32055 8.89862C8.50653 8.95112 9.00449 8.98927 9.32326 8.97544C9.78524 8.9554 10.0818 8.83976 10.4208 8.54751L10.5234 8.45908L10.6054 8.53648C10.7972 8.71746 11.0862 8.87216 11.3482 8.93423C11.5704 8.98686 12.3623 8.98668 12.592 8.93393C12.7961 8.88706 13.0579 8.75486 13.261 8.59607L13.4247 8.46806L13.5451 8.57271C13.6986 8.70618 13.8994 8.82747 14.0543 8.88025C14.2568 8.94927 14.4534 8.96915 14.9337 8.96915C15.3772 8.96913 15.3955 8.96753 15.5644 8.91423C15.7957 8.84123 16.0089 8.72499 16.1774 8.58004L16.3155 8.46119L16.4135 8.55156C16.5584 8.68505 16.7805 8.81972 16.9608 8.8834C17.2019 8.96857 17.4157 8.98604 18.0944 8.97614C18.627 8.96835 18.7109 8.96269 18.8438 8.92547C19.2966 8.79863 19.7081 8.46405 19.889 8.07556C20.006 7.82421 20.0255 7.69345 20.0242 7.17021C20.0216 6.15158 20.0015 5.85467 19.8829 5.08693C19.786 4.45946 19.7466 4.18463 19.6167 3.23161C19.5312 2.60409 19.341 2.18571 18.9662 1.80074C18.6227 1.44785 18.2402 1.24312 17.6709 1.10742L17.4893 1.06412L10.5708 1.06167C6.76571 1.06031 3.62618 1.06262 3.59412 1.06681ZM17.4279 2.0704C17.6358 2.1135 17.8567 2.20094 18.0375 2.31167C18.2567 2.44588 18.4848 2.72255 18.5842 2.97474C18.6352 3.10411 18.6325 3.08929 18.8601 4.49934C19.0123 5.4419 19.0168 5.47953 19.0448 6.04683C19.0606 6.36664 19.0756 6.79688 19.0782 7.00291C19.0826 7.35788 19.0804 7.38378 19.0363 7.49606C18.9525 7.70924 18.763 7.8712 18.5193 7.93805C18.4488 7.95737 18.2666 7.96476 17.8557 7.96492C17.3428 7.96514 17.2774 7.96137 17.1628 7.9251C16.938 7.85393 16.752 7.68146 16.6691 7.46719C16.6371 7.38445 16.6344 7.27879 16.6343 6.09282C16.6342 4.66432 16.6399 4.7292 16.5022 4.60527C16.3663 4.48293 16.1493 4.47675 15.9788 4.59037C15.8307 4.68914 15.8386 4.61112 15.8277 6.09282L15.818 7.4174L15.7723 7.52101C15.7123 7.6569 15.5516 7.81091 15.3857 7.89144C15.255 7.95492 15.2528 7.95522 14.8973 7.96179C14.692 7.96559 14.4856 7.95896 14.4115 7.94619C14.1351 7.89855 13.9128 7.72627 13.8242 7.49114C13.7818 7.37866 13.7814 7.36497 13.7778 6.08286C13.7739 4.67849 13.7777 4.72884 13.6675 4.62616C13.5179 4.48667 13.297 4.47197 13.1221 4.58985C12.9739 4.6897 12.9818 4.61118 12.9709 6.09282C12.9613 7.40883 12.9609 7.41802 12.9181 7.51219C12.8222 7.72311 12.6048 7.89192 12.3588 7.94649C12.185 7.98501 11.672 7.98055 11.5081 7.93908C11.2591 7.87606 11.0883 7.74693 10.9948 7.55101C10.944 7.44473 10.941 7.42118 10.925 7.00044C10.9157 6.75869 10.9118 6.17996 10.9163 5.71437C10.9211 5.21589 10.9169 4.83917 10.9061 4.79812C10.8496 4.58381 10.6199 4.46161 10.398 4.52776C10.2678 4.56654 10.1966 4.62393 10.151 4.72683C10.1172 4.80316 10.115 4.88486 10.1146 6.07838C10.1142 7.28815 10.1123 7.35398 10.0761 7.4597C10.005 7.66712 9.84323 7.83206 9.63509 7.90946C9.53831 7.94546 9.46538 7.95311 9.1441 7.96087C8.73327 7.97083 8.61814 7.95595 8.45568 7.8719C8.32063 7.80204 8.19923 7.67923 8.13716 7.5497L8.08332 7.43732L8.07361 6.11274C8.06303 4.67108 8.06813 4.73426 7.95372 4.62479C7.78577 4.46404 7.45736 4.4896 7.32002 4.67408L7.2671 4.74517L7.25739 6.09125L7.24767 7.43732L7.19625 7.53691C7.13641 7.65283 7.00864 7.78934 6.89786 7.8557C6.73542 7.95303 6.6308 7.96852 6.18315 7.96159L5.76967 7.9552L5.64067 7.89004C5.47721 7.8075 5.33692 7.67871 5.27491 7.55426L5.22656 7.45723L5.21682 6.13266C5.20636 4.7105 5.20903 4.74593 5.10385 4.63202C4.96671 4.48344 4.73585 4.46582 4.55178 4.58985C4.40359 4.6897 4.41148 4.61118 4.40062 6.09282L4.3909 7.4174L4.33614 7.53171C4.23217 7.7487 4.03647 7.89783 3.78846 7.94904C3.71451 7.96432 3.48342 7.973 3.15686 7.97283C2.57499 7.97249 2.47736 7.95711 2.28115 7.83495C2.15505 7.75643 2.06971 7.66524 2.0064 7.54133C1.94213 7.41559 1.94073 7.15159 1.99917 6.18245C2.05518 5.25321 2.05589 5.2463 2.1759 4.48938C2.22277 4.19359 2.28813 3.77261 2.32111 3.55389C2.35409 3.33516 2.40149 3.09606 2.42644 3.02254C2.56061 2.6271 2.94223 2.2755 3.40643 2.11964C3.67341 2.03 3.42089 2.03313 10.5095 2.03124C17.2176 2.02945 17.2309 2.02953 17.4279 2.0704ZM15.1335 10.0378C14.9827 10.0875 14.8105 10.2432 14.7333 10.3997C14.6777 10.5122 14.6425 10.6808 14.6423 10.8353C14.6423 10.8979 14.6315 10.9362 14.6082 10.9563C14.5791 10.9815 14.1933 11.1521 14.1653 11.1521C14.1599 11.1521 14.1087 11.1048 14.0513 11.047C13.7993 10.7927 13.4997 10.7322 13.202 10.8754C13.0969 10.9259 13.0254 10.9896 12.737 11.2898C12.4865 11.5505 12.3783 11.6783 12.3289 11.7718C12.2637 11.895 12.2616 11.906 12.2616 12.1182C12.2616 12.3174 12.2665 12.3475 12.3155 12.4499C12.3452 12.5118 12.4177 12.6179 12.4767 12.6856C12.5465 12.7658 12.5802 12.8202 12.5733 12.8419C12.5675 12.8601 12.5248 12.9692 12.4784 13.0842L12.3941 13.2934L12.2084 13.3059C12.0694 13.3153 11.9954 13.3312 11.9144 13.3692C11.7629 13.4403 11.623 13.5812 11.5472 13.739L11.4842 13.8702V14.4681V15.0661L11.5394 15.1813C11.6081 15.3245 11.7569 15.4771 11.8962 15.547C11.975 15.5865 12.0405 15.6022 12.1513 15.6081C12.365 15.6194 12.3854 15.6264 12.4168 15.699C12.5173 15.9312 12.5628 16.0548 12.5628 16.0953C12.5628 16.1237 12.5256 16.1822 12.4676 16.2452C12.2876 16.4407 12.2077 16.6891 12.2498 16.9229C12.2908 17.1513 12.3418 17.2248 12.745 17.6375C13.1893 18.0922 13.2201 18.1117 13.4956 18.1129C13.6625 18.1135 13.6924 18.1077 13.8066 18.0522C13.8761 18.0183 13.9822 17.9444 14.0425 17.8878C14.1028 17.8313 14.1652 17.785 14.1811 17.785C14.2145 17.785 14.5825 17.9389 14.6156 17.9667C14.6279 17.977 14.6411 18.0661 14.6455 18.1689C14.6521 18.323 14.6632 18.3742 14.7143 18.4861C14.826 18.7306 15.0262 18.8805 15.2933 18.9195C15.4687 18.9452 16.0509 18.9453 16.2239 18.9196C16.4772 18.8821 16.6802 18.7268 16.7925 18.4846C16.8333 18.3967 16.847 18.3311 16.856 18.18C16.8622 18.0741 16.873 17.9817 16.8798 17.9748C16.901 17.9531 17.2886 17.785 17.3175 17.785C17.3324 17.785 17.4028 17.8355 17.4738 17.8972C17.6694 18.0673 17.7809 18.1136 17.995 18.1136C18.155 18.1136 18.1821 18.1077 18.3059 18.0457C18.4225 17.9872 18.4887 17.9286 18.7777 17.6274C19.0641 17.3289 19.1246 17.2551 19.1858 17.1287C19.2529 16.9904 19.2578 16.9681 19.2577 16.8C19.2576 16.6401 19.2508 16.6052 19.1977 16.4903C19.1647 16.4191 19.0926 16.3102 19.0375 16.2485C18.9823 16.1867 18.9371 16.1219 18.9371 16.1044C18.9371 16.0682 19.0904 15.6739 19.1162 15.6439C19.1255 15.633 19.2143 15.6187 19.3134 15.6121C19.6132 15.5922 19.8266 15.4576 19.9459 15.2128C20.0374 15.0251 20.0489 14.9248 20.0417 14.3811L20.0351 13.8887L19.9618 13.7367C19.8228 13.4486 19.5802 13.3033 19.238 13.3033C19.1793 13.3033 19.1284 13.2928 19.1178 13.2784C19.0916 13.2429 18.9371 12.8496 18.9371 12.8184C18.9371 12.8041 18.9771 12.7482 19.0259 12.6943C19.274 12.4203 19.3323 12.1054 19.1918 11.7978C19.1384 11.6808 19.0817 11.6132 18.7664 11.2908C18.3809 10.8966 18.3124 10.8463 18.1178 10.8148C17.9798 10.7924 17.7926 10.8216 17.6721 10.8842C17.6183 10.9121 17.5225 10.9838 17.4591 11.0435C17.3957 11.1032 17.3392 11.1521 17.3334 11.1521C17.2921 11.1521 16.8922 10.9617 16.8789 10.9358C16.8698 10.9178 16.8586 10.8217 16.8542 10.7223C16.8475 10.5739 16.8359 10.5202 16.7899 10.4237C16.7181 10.2735 16.5875 10.1398 16.4396 10.0654L16.3233 10.0068L15.7888 10.0024C15.3004 9.9983 15.244 10.0013 15.1335 10.0378ZM16.1714 10.9144C16.2492 10.9446 16.313 11.0101 16.3545 11.1023C16.3827 11.1647 16.3906 11.2316 16.3911 11.4111C16.3915 11.537 16.3989 11.6514 16.4074 11.6653C16.416 11.6791 16.4924 11.7131 16.5772 11.7409C16.662 11.7687 16.8303 11.8412 16.9513 11.9022L17.1712 12.0131L17.3303 11.8543C17.4177 11.767 17.5189 11.68 17.555 11.661C17.6351 11.6188 17.7877 11.6171 17.8622 11.6575C17.9519 11.7062 18.4078 12.1903 18.4408 12.2719C18.4796 12.3679 18.4788 12.4921 18.439 12.5723C18.4217 12.6074 18.3378 12.7145 18.2528 12.8103L18.0981 12.9846L18.1964 13.1888C18.2505 13.3011 18.318 13.4691 18.3466 13.5623C18.3751 13.6554 18.406 13.7415 18.4152 13.7536C18.4249 13.7664 18.5326 13.78 18.6736 13.7863C18.9681 13.7993 19.0563 13.837 19.1266 13.9798C19.1675 14.063 19.1703 14.0936 19.1703 14.4636C19.1703 14.8177 19.1663 14.8665 19.1319 14.9358C19.0568 15.0865 18.9346 15.1355 18.6334 15.1357C18.4994 15.1358 18.4303 15.1438 18.417 15.1607C18.4063 15.1744 18.375 15.2618 18.3475 15.3549C18.32 15.448 18.2534 15.6167 18.1994 15.7297C18.127 15.8816 18.1061 15.9439 18.1195 15.9687C18.1294 15.9872 18.1957 16.0605 18.2667 16.1317C18.3378 16.2029 18.4128 16.2945 18.4333 16.3351C18.4791 16.4257 18.4817 16.5696 18.439 16.6556C18.3901 16.7542 17.928 17.2267 17.8391 17.269C17.6769 17.3463 17.5828 17.311 17.353 17.0865L17.1708 16.9086L16.9515 17.0189C16.831 17.0796 16.6608 17.152 16.5733 17.18C16.4495 17.2196 16.4118 17.2403 16.4031 17.2738C16.3969 17.2975 16.3917 17.4136 16.3915 17.5318C16.3912 17.7727 16.3636 17.8577 16.2555 17.951C16.1722 18.0228 16.0993 18.034 15.7111 18.034C15.3842 18.034 15.3677 18.032 15.2849 17.9842C15.1474 17.9046 15.1086 17.8079 15.1086 17.5441C15.1086 17.247 15.106 17.242 14.9106 17.1784C14.8218 17.1495 14.661 17.0814 14.5533 17.0271C14.4456 16.9729 14.3459 16.9285 14.3318 16.9285C14.3176 16.9285 14.2297 17.0039 14.1363 17.0962C13.9114 17.3185 13.8177 17.3489 13.6403 17.2572C13.526 17.1981 13.102 16.7498 13.0578 16.6413C12.9878 16.4697 13.0309 16.3488 13.2423 16.1225C13.3282 16.0306 13.3985 15.9508 13.3985 15.9452C13.3985 15.9396 13.3544 15.8426 13.3004 15.7296C13.2465 15.6167 13.1796 15.448 13.1517 15.3549C13.1238 15.2618 13.0926 15.1744 13.0822 15.1607C13.0694 15.1438 13.0005 15.1357 12.8665 15.1353C12.5723 15.1346 12.4766 15.1023 12.3812 14.9712C12.3284 14.8987 12.3006 14.5371 12.3245 14.2325C12.353 13.869 12.4239 13.8064 12.832 13.7845C13.1123 13.7695 13.0899 13.7865 13.1649 13.5324C13.1876 13.4557 13.2496 13.3006 13.3029 13.1877L13.3997 12.9825L13.3617 12.9288C13.3408 12.8992 13.274 12.8258 13.2131 12.7655C13.0393 12.5933 12.9911 12.4394 13.059 12.273C13.0956 12.1831 13.5539 11.7039 13.6461 11.6591C13.7319 11.6174 13.8627 11.6179 13.9453 11.6604C13.9812 11.6789 14.0828 11.7669 14.1711 11.856L14.3315 12.0179L14.5014 11.9253C14.5949 11.8743 14.7629 11.8001 14.8748 11.7604C14.9867 11.7207 15.0849 11.6774 15.0931 11.6642C15.1013 11.651 15.1082 11.546 15.1084 11.431C15.1087 11.3159 15.1179 11.1885 15.1289 11.1478C15.154 11.0551 15.2341 10.9558 15.3117 10.9212C15.3863 10.8879 16.0889 10.8824 16.1714 10.9144ZM3.19854 11.0141C3.06838 11.0675 2.97813 11.189 2.92579 11.3812C2.91022 11.4383 2.90416 12.377 2.90432 14.705L2.90453 17.9491L2.1416 17.9417C1.39907 17.9346 1.37633 17.9355 1.29121 17.9762C1.12358 18.0565 1.02612 18.2056 1.00517 18.4137C0.983014 18.6337 1.10461 18.8008 1.3487 18.8859L1.47584 18.9303L6.10108 18.936C9.09913 18.9398 10.7783 18.9348 10.8741 18.9219C11.307 18.8637 11.5218 18.6337 11.4534 18.3017C11.4115 18.0981 11.2227 17.9739 10.8966 17.9352C10.8406 17.9285 10.6001 17.9376 10.3621 17.9553C9.97715 17.9839 9.70875 17.9827 9.60402 17.9517C9.57185 17.9422 9.56999 17.8047 9.56968 15.4283C9.56939 13.3478 9.56465 12.8922 9.54206 12.783C9.46802 12.425 9.18639 12.1071 8.8661 12.02C8.75606 11.99 8.58849 11.9874 7.15979 11.9927L5.57553 11.9987L5.44797 12.063C5.29693 12.1392 5.0919 12.3255 4.99805 12.4717C4.96113 12.5292 4.90561 12.639 4.87469 12.7157L4.81845 12.8551L4.80873 15.3948L4.79901 17.9344L4.32774 17.9397L3.85647 17.945L3.85632 14.8324C3.85624 12.8265 3.84917 11.6738 3.83646 11.5903C3.7939 11.3108 3.68336 11.0957 3.54454 11.0221C3.48257 10.9893 3.27097 10.9843 3.19854 11.0141ZM8.4362 13.0553C8.47727 13.0888 8.53273 13.1605 8.55945 13.2147L8.60804 13.3133L8.61336 15.6188L8.61869 17.9244H7.18984H5.76099L5.7611 15.6388C5.76116 14.169 5.76818 13.3274 5.78073 13.281C5.80967 13.1743 5.87862 13.0806 5.96562 13.0298L6.04278 12.9848L7.20216 12.9897L8.36154 12.9946L8.4362 13.0553ZM15.4046 13.0248C15.1609 13.0902 14.9666 13.2083 14.7675 13.4121C14.6193 13.5637 14.5772 13.622 14.5008 13.7814C14.3824 14.028 14.3447 14.1935 14.3441 14.4685C14.3434 14.8271 14.4608 15.1574 14.6861 15.4306C15.1104 15.9451 15.8345 16.0921 16.4121 15.781C16.686 15.6335 16.8999 15.4077 17.0326 15.1259C17.1301 14.9188 17.1676 14.771 17.1817 14.5375C17.2249 13.8254 16.7559 13.179 16.0771 13.0149C15.9027 12.9728 15.5805 12.9775 15.4046 13.0248ZM15.954 14.0177C16.1296 14.0997 16.2537 14.3329 16.2252 14.5274C16.2042 14.6708 16.1079 14.8131 15.9832 14.885C15.7403 15.025 15.4496 14.9303 15.3169 14.668C15.2612 14.5577 15.2613 14.359 15.3172 14.2494C15.368 14.1499 15.4668 14.0516 15.5556 14.0123C15.6511 13.9699 15.8577 13.9727 15.954 14.0177ZM7.03567 15.0066C6.84599 15.0809 6.72813 15.2548 6.72723 15.4618C6.72661 15.6069 6.76173 15.7001 6.85833 15.8097C7.03856 16.0141 7.3676 16.0095 7.54757 15.7999C7.64579 15.6855 7.67152 15.6037 7.66223 15.4354C7.64799 15.1767 7.47981 14.9996 7.23413 14.9844C7.15565 14.9796 7.08433 14.9875 7.03567 15.0066Z"/>
</mask>
<path fill-rule="evenodd" clip-rule="evenodd" d="M3.59412 1.06681C3.31868 1.10264 2.92593 1.22123 2.70016 1.33676C2.39018 1.49537 2.06775 1.76579 1.8683 2.03443C1.59257 2.40581 1.4749 2.75587 1.39794 3.4337C1.38053 3.58707 1.30606 4.10695 1.23245 4.58897C1.05002 5.78348 1.04021 5.86971 1.01908 6.46127C0.988416 7.32014 0.9924 7.49558 1.048 7.73679C1.17416 8.28405 1.52629 8.68557 2.04204 8.87025C2.29569 8.96108 2.40331 8.97108 3.11799 8.9703C3.75122 8.96959 3.79708 8.96708 3.94393 8.92507C4.1623 8.86256 4.385 8.74405 4.57168 8.59096L4.7315 8.45989L4.82842 8.54921C5.02128 8.72694 5.23748 8.84968 5.46334 8.90965C5.63356 8.95487 6.10475 8.98723 6.41202 8.97484C6.88941 8.95556 7.18373 8.84221 7.52548 8.54596L7.62836 8.45676L7.70038 8.52622C7.88615 8.70541 8.108 8.83862 8.32055 8.89862C8.50653 8.95112 9.00449 8.98927 9.32326 8.97544C9.78524 8.9554 10.0818 8.83976 10.4208 8.54751L10.5234 8.45908L10.6054 8.53648C10.7972 8.71746 11.0862 8.87216 11.3482 8.93423C11.5704 8.98686 12.3623 8.98668 12.592 8.93393C12.7961 8.88706 13.0579 8.75486 13.261 8.59607L13.4247 8.46806L13.5451 8.57271C13.6986 8.70618 13.8994 8.82747 14.0543 8.88025C14.2568 8.94927 14.4534 8.96915 14.9337 8.96915C15.3772 8.96913 15.3955 8.96753 15.5644 8.91423C15.7957 8.84123 16.0089 8.72499 16.1774 8.58004L16.3155 8.46119L16.4135 8.55156C16.5584 8.68505 16.7805 8.81972 16.9608 8.8834C17.2019 8.96857 17.4157 8.98604 18.0944 8.97614C18.627 8.96835 18.7109 8.96269 18.8438 8.92547C19.2966 8.79863 19.7081 8.46405 19.889 8.07556C20.006 7.82421 20.0255 7.69345 20.0242 7.17021C20.0216 6.15158 20.0015 5.85467 19.8829 5.08693C19.786 4.45946 19.7466 4.18463 19.6167 3.23161C19.5312 2.60409 19.341 2.18571 18.9662 1.80074C18.6227 1.44785 18.2402 1.24312 17.6709 1.10742L17.4893 1.06412L10.5708 1.06167C6.76571 1.06031 3.62618 1.06262 3.59412 1.06681ZM17.4279 2.0704C17.6358 2.1135 17.8567 2.20094 18.0375 2.31167C18.2567 2.44588 18.4848 2.72255 18.5842 2.97474C18.6352 3.10411 18.6325 3.08929 18.8601 4.49934C19.0123 5.4419 19.0168 5.47953 19.0448 6.04683C19.0606 6.36664 19.0756 6.79688 19.0782 7.00291C19.0826 7.35788 19.0804 7.38378 19.0363 7.49606C18.9525 7.70924 18.763 7.8712 18.5193 7.93805C18.4488 7.95737 18.2666 7.96476 17.8557 7.96492C17.3428 7.96514 17.2774 7.96137 17.1628 7.9251C16.938 7.85393 16.752 7.68146 16.6691 7.46719C16.6371 7.38445 16.6344 7.27879 16.6343 6.09282C16.6342 4.66432 16.6399 4.7292 16.5022 4.60527C16.3663 4.48293 16.1493 4.47675 15.9788 4.59037C15.8307 4.68914 15.8386 4.61112 15.8277 6.09282L15.818 7.4174L15.7723 7.52101C15.7123 7.6569 15.5516 7.81091 15.3857 7.89144C15.255 7.95492 15.2528 7.95522 14.8973 7.96179C14.692 7.96559 14.4856 7.95896 14.4115 7.94619C14.1351 7.89855 13.9128 7.72627 13.8242 7.49114C13.7818 7.37866 13.7814 7.36497 13.7778 6.08286C13.7739 4.67849 13.7777 4.72884 13.6675 4.62616C13.5179 4.48667 13.297 4.47197 13.1221 4.58985C12.9739 4.6897 12.9818 4.61118 12.9709 6.09282C12.9613 7.40883 12.9609 7.41802 12.9181 7.51219C12.8222 7.72311 12.6048 7.89192 12.3588 7.94649C12.185 7.98501 11.672 7.98055 11.5081 7.93908C11.2591 7.87606 11.0883 7.74693 10.9948 7.55101C10.944 7.44473 10.941 7.42118 10.925 7.00044C10.9157 6.75869 10.9118 6.17996 10.9163 5.71437C10.9211 5.21589 10.9169 4.83917 10.9061 4.79812C10.8496 4.58381 10.6199 4.46161 10.398 4.52776C10.2678 4.56654 10.1966 4.62393 10.151 4.72683C10.1172 4.80316 10.115 4.88486 10.1146 6.07838C10.1142 7.28815 10.1123 7.35398 10.0761 7.4597C10.005 7.66712 9.84323 7.83206 9.63509 7.90946C9.53831 7.94546 9.46538 7.95311 9.1441 7.96087C8.73327 7.97083 8.61814 7.95595 8.45568 7.8719C8.32063 7.80204 8.19923 7.67923 8.13716 7.5497L8.08332 7.43732L8.07361 6.11274C8.06303 4.67108 8.06813 4.73426 7.95372 4.62479C7.78577 4.46404 7.45736 4.4896 7.32002 4.67408L7.2671 4.74517L7.25739 6.09125L7.24767 7.43732L7.19625 7.53691C7.13641 7.65283 7.00864 7.78934 6.89786 7.8557C6.73542 7.95303 6.6308 7.96852 6.18315 7.96159L5.76967 7.9552L5.64067 7.89004C5.47721 7.8075 5.33692 7.67871 5.27491 7.55426L5.22656 7.45723L5.21682 6.13266C5.20636 4.7105 5.20903 4.74593 5.10385 4.63202C4.96671 4.48344 4.73585 4.46582 4.55178 4.58985C4.40359 4.6897 4.41148 4.61118 4.40062 6.09282L4.3909 7.4174L4.33614 7.53171C4.23217 7.7487 4.03647 7.89783 3.78846 7.94904C3.71451 7.96432 3.48342 7.973 3.15686 7.97283C2.57499 7.97249 2.47736 7.95711 2.28115 7.83495C2.15505 7.75643 2.06971 7.66524 2.0064 7.54133C1.94213 7.41559 1.94073 7.15159 1.99917 6.18245C2.05518 5.25321 2.05589 5.2463 2.1759 4.48938C2.22277 4.19359 2.28813 3.77261 2.32111 3.55389C2.35409 3.33516 2.40149 3.09606 2.42644 3.02254C2.56061 2.6271 2.94223 2.2755 3.40643 2.11964C3.67341 2.03 3.42089 2.03313 10.5095 2.03124C17.2176 2.02945 17.2309 2.02953 17.4279 2.0704ZM15.1335 10.0378C14.9827 10.0875 14.8105 10.2432 14.7333 10.3997C14.6777 10.5122 14.6425 10.6808 14.6423 10.8353C14.6423 10.8979 14.6315 10.9362 14.6082 10.9563C14.5791 10.9815 14.1933 11.1521 14.1653 11.1521C14.1599 11.1521 14.1087 11.1048 14.0513 11.047C13.7993 10.7927 13.4997 10.7322 13.202 10.8754C13.0969 10.9259 13.0254 10.9896 12.737 11.2898C12.4865 11.5505 12.3783 11.6783 12.3289 11.7718C12.2637 11.895 12.2616 11.906 12.2616 12.1182C12.2616 12.3174 12.2665 12.3475 12.3155 12.4499C12.3452 12.5118 12.4177 12.6179 12.4767 12.6856C12.5465 12.7658 12.5802 12.8202 12.5733 12.8419C12.5675 12.8601 12.5248 12.9692 12.4784 13.0842L12.3941 13.2934L12.2084 13.3059C12.0694 13.3153 11.9954 13.3312 11.9144 13.3692C11.7629 13.4403 11.623 13.5812 11.5472 13.739L11.4842 13.8702V14.4681V15.0661L11.5394 15.1813C11.6081 15.3245 11.7569 15.4771 11.8962 15.547C11.975 15.5865 12.0405 15.6022 12.1513 15.6081C12.365 15.6194 12.3854 15.6264 12.4168 15.699C12.5173 15.9312 12.5628 16.0548 12.5628 16.0953C12.5628 16.1237 12.5256 16.1822 12.4676 16.2452C12.2876 16.4407 12.2077 16.6891 12.2498 16.9229C12.2908 17.1513 12.3418 17.2248 12.745 17.6375C13.1893 18.0922 13.2201 18.1117 13.4956 18.1129C13.6625 18.1135 13.6924 18.1077 13.8066 18.0522C13.8761 18.0183 13.9822 17.9444 14.0425 17.8878C14.1028 17.8313 14.1652 17.785 14.1811 17.785C14.2145 17.785 14.5825 17.9389 14.6156 17.9667C14.6279 17.977 14.6411 18.0661 14.6455 18.1689C14.6521 18.323 14.6632 18.3742 14.7143 18.4861C14.826 18.7306 15.0262 18.8805 15.2933 18.9195C15.4687 18.9452 16.0509 18.9453 16.2239 18.9196C16.4772 18.8821 16.6802 18.7268 16.7925 18.4846C16.8333 18.3967 16.847 18.3311 16.856 18.18C16.8622 18.0741 16.873 17.9817 16.8798 17.9748C16.901 17.9531 17.2886 17.785 17.3175 17.785C17.3324 17.785 17.4028 17.8355 17.4738 17.8972C17.6694 18.0673 17.7809 18.1136 17.995 18.1136C18.155 18.1136 18.1821 18.1077 18.3059 18.0457C18.4225 17.9872 18.4887 17.9286 18.7777 17.6274C19.0641 17.3289 19.1246 17.2551 19.1858 17.1287C19.2529 16.9904 19.2578 16.9681 19.2577 16.8C19.2576 16.6401 19.2508 16.6052 19.1977 16.4903C19.1647 16.4191 19.0926 16.3102 19.0375 16.2485C18.9823 16.1867 18.9371 16.1219 18.9371 16.1044C18.9371 16.0682 19.0904 15.6739 19.1162 15.6439C19.1255 15.633 19.2143 15.6187 19.3134 15.6121C19.6132 15.5922 19.8266 15.4576 19.9459 15.2128C20.0374 15.0251 20.0489 14.9248 20.0417 14.3811L20.0351 13.8887L19.9618 13.7367C19.8228 13.4486 19.5802 13.3033 19.238 13.3033C19.1793 13.3033 19.1284 13.2928 19.1178 13.2784C19.0916 13.2429 18.9371 12.8496 18.9371 12.8184C18.9371 12.8041 18.9771 12.7482 19.0259 12.6943C19.274 12.4203 19.3323 12.1054 19.1918 11.7978C19.1384 11.6808 19.0817 11.6132 18.7664 11.2908C18.3809 10.8966 18.3124 10.8463 18.1178 10.8148C17.9798 10.7924 17.7926 10.8216 17.6721 10.8842C17.6183 10.9121 17.5225 10.9838 17.4591 11.0435C17.3957 11.1032 17.3392 11.1521 17.3334 11.1521C17.2921 11.1521 16.8922 10.9617 16.8789 10.9358C16.8698 10.9178 16.8586 10.8217 16.8542 10.7223C16.8475 10.5739 16.8359 10.5202 16.7899 10.4237C16.7181 10.2735 16.5875 10.1398 16.4396 10.0654L16.3233 10.0068L15.7888 10.0024C15.3004 9.9983 15.244 10.0013 15.1335 10.0378ZM16.1714 10.9144C16.2492 10.9446 16.313 11.0101 16.3545 11.1023C16.3827 11.1647 16.3906 11.2316 16.3911 11.4111C16.3915 11.537 16.3989 11.6514 16.4074 11.6653C16.416 11.6791 16.4924 11.7131 16.5772 11.7409C16.662 11.7687 16.8303 11.8412 16.9513 11.9022L17.1712 12.0131L17.3303 11.8543C17.4177 11.767 17.5189 11.68 17.555 11.661C17.6351 11.6188 17.7877 11.6171 17.8622 11.6575C17.9519 11.7062 18.4078 12.1903 18.4408 12.2719C18.4796 12.3679 18.4788 12.4921 18.439 12.5723C18.4217 12.6074 18.3378 12.7145 18.2528 12.8103L18.0981 12.9846L18.1964 13.1888C18.2505 13.3011 18.318 13.4691 18.3466 13.5623C18.3751 13.6554 18.406 13.7415 18.4152 13.7536C18.4249 13.7664 18.5326 13.78 18.6736 13.7863C18.9681 13.7993 19.0563 13.837 19.1266 13.9798C19.1675 14.063 19.1703 14.0936 19.1703 14.4636C19.1703 14.8177 19.1663 14.8665 19.1319 14.9358C19.0568 15.0865 18.9346 15.1355 18.6334 15.1357C18.4994 15.1358 18.4303 15.1438 18.417 15.1607C18.4063 15.1744 18.375 15.2618 18.3475 15.3549C18.32 15.448 18.2534 15.6167 18.1994 15.7297C18.127 15.8816 18.1061 15.9439 18.1195 15.9687C18.1294 15.9872 18.1957 16.0605 18.2667 16.1317C18.3378 16.2029 18.4128 16.2945 18.4333 16.3351C18.4791 16.4257 18.4817 16.5696 18.439 16.6556C18.3901 16.7542 17.928 17.2267 17.8391 17.269C17.6769 17.3463 17.5828 17.311 17.353 17.0865L17.1708 16.9086L16.9515 17.0189C16.831 17.0796 16.6608 17.152 16.5733 17.18C16.4495 17.2196 16.4118 17.2403 16.4031 17.2738C16.3969 17.2975 16.3917 17.4136 16.3915 17.5318C16.3912 17.7727 16.3636 17.8577 16.2555 17.951C16.1722 18.0228 16.0993 18.034 15.7111 18.034C15.3842 18.034 15.3677 18.032 15.2849 17.9842C15.1474 17.9046 15.1086 17.8079 15.1086 17.5441C15.1086 17.247 15.106 17.242 14.9106 17.1784C14.8218 17.1495 14.661 17.0814 14.5533 17.0271C14.4456 16.9729 14.3459 16.9285 14.3318 16.9285C14.3176 16.9285 14.2297 17.0039 14.1363 17.0962C13.9114 17.3185 13.8177 17.3489 13.6403 17.2572C13.526 17.1981 13.102 16.7498 13.0578 16.6413C12.9878 16.4697 13.0309 16.3488 13.2423 16.1225C13.3282 16.0306 13.3985 15.9508 13.3985 15.9452C13.3985 15.9396 13.3544 15.8426 13.3004 15.7296C13.2465 15.6167 13.1796 15.448 13.1517 15.3549C13.1238 15.2618 13.0926 15.1744 13.0822 15.1607C13.0694 15.1438 13.0005 15.1357 12.8665 15.1353C12.5723 15.1346 12.4766 15.1023 12.3812 14.9712C12.3284 14.8987 12.3006 14.5371 12.3245 14.2325C12.353 13.869 12.4239 13.8064 12.832 13.7845C13.1123 13.7695 13.0899 13.7865 13.1649 13.5324C13.1876 13.4557 13.2496 13.3006 13.3029 13.1877L13.3997 12.9825L13.3617 12.9288C13.3408 12.8992 13.274 12.8258 13.2131 12.7655C13.0393 12.5933 12.9911 12.4394 13.059 12.273C13.0956 12.1831 13.5539 11.7039 13.6461 11.6591C13.7319 11.6174 13.8627 11.6179 13.9453 11.6604C13.9812 11.6789 14.0828 11.7669 14.1711 11.856L14.3315 12.0179L14.5014 11.9253C14.5949 11.8743 14.7629 11.8001 14.8748 11.7604C14.9867 11.7207 15.0849 11.6774 15.0931 11.6642C15.1013 11.651 15.1082 11.546 15.1084 11.431C15.1087 11.3159 15.1179 11.1885 15.1289 11.1478C15.154 11.0551 15.2341 10.9558 15.3117 10.9212C15.3863 10.8879 16.0889 10.8824 16.1714 10.9144ZM3.19854 11.0141C3.06838 11.0675 2.97813 11.189 2.92579 11.3812C2.91022 11.4383 2.90416 12.377 2.90432 14.705L2.90453 17.9491L2.1416 17.9417C1.39907 17.9346 1.37633 17.9355 1.29121 17.9762C1.12358 18.0565 1.02612 18.2056 1.00517 18.4137C0.983014 18.6337 1.10461 18.8008 1.3487 18.8859L1.47584 18.9303L6.10108 18.936C9.09913 18.9398 10.7783 18.9348 10.8741 18.9219C11.307 18.8637 11.5218 18.6337 11.4534 18.3017C11.4115 18.0981 11.2227 17.9739 10.8966 17.9352C10.8406 17.9285 10.6001 17.9376 10.3621 17.9553C9.97715 17.9839 9.70875 17.9827 9.60402 17.9517C9.57185 17.9422 9.56999 17.8047 9.56968 15.4283C9.56939 13.3478 9.56465 12.8922 9.54206 12.783C9.46802 12.425 9.18639 12.1071 8.8661 12.02C8.75606 11.99 8.58849 11.9874 7.15979 11.9927L5.57553 11.9987L5.44797 12.063C5.29693 12.1392 5.0919 12.3255 4.99805 12.4717C4.96113 12.5292 4.90561 12.639 4.87469 12.7157L4.81845 12.8551L4.80873 15.3948L4.79901 17.9344L4.32774 17.9397L3.85647 17.945L3.85632 14.8324C3.85624 12.8265 3.84917 11.6738 3.83646 11.5903C3.7939 11.3108 3.68336 11.0957 3.54454 11.0221C3.48257 10.9893 3.27097 10.9843 3.19854 11.0141ZM8.4362 13.0553C8.47727 13.0888 8.53273 13.1605 8.55945 13.2147L8.60804 13.3133L8.61336 15.6188L8.61869 17.9244H7.18984H5.76099L5.7611 15.6388C5.76116 14.169 5.76818 13.3274 5.78073 13.281C5.80967 13.1743 5.87862 13.0806 5.96562 13.0298L6.04278 12.9848L7.20216 12.9897L8.36154 12.9946L8.4362 13.0553ZM15.4046 13.0248C15.1609 13.0902 14.9666 13.2083 14.7675 13.4121C14.6193 13.5637 14.5772 13.622 14.5008 13.7814C14.3824 14.028 14.3447 14.1935 14.3441 14.4685C14.3434 14.8271 14.4608 15.1574 14.6861 15.4306C15.1104 15.9451 15.8345 16.0921 16.4121 15.781C16.686 15.6335 16.8999 15.4077 17.0326 15.1259C17.1301 14.9188 17.1676 14.771 17.1817 14.5375C17.2249 13.8254 16.7559 13.179 16.0771 13.0149C15.9027 12.9728 15.5805 12.9775 15.4046 13.0248ZM15.954 14.0177C16.1296 14.0997 16.2537 14.3329 16.2252 14.5274C16.2042 14.6708 16.1079 14.8131 15.9832 14.885C15.7403 15.025 15.4496 14.9303 15.3169 14.668C15.2612 14.5577 15.2613 14.359 15.3172 14.2494C15.368 14.1499 15.4668 14.0516 15.5556 14.0123C15.6511 13.9699 15.8577 13.9727 15.954 14.0177ZM7.03567 15.0066C6.84599 15.0809 6.72813 15.2548 6.72723 15.4618C6.72661 15.6069 6.76173 15.7001 6.85833 15.8097C7.03856 16.0141 7.3676 16.0095 7.54757 15.7999C7.64579 15.6855 7.67152 15.6037 7.66223 15.4354C7.64799 15.1767 7.47981 14.9996 7.23413 14.9844C7.15565 14.9796 7.08433 14.9875 7.03567 15.0066Z" fill="#F2F2F2"/>
<path fill-rule="evenodd" clip-rule="evenodd" d="M3.59412 1.06681C3.31868 1.10264 2.92593 1.22123 2.70016 1.33676C2.39018 1.49537 2.06775 1.76579 1.8683 2.03443C1.59257 2.40581 1.4749 2.75587 1.39794 3.4337C1.38053 3.58707 1.30606 4.10695 1.23245 4.58897C1.05002 5.78348 1.04021 5.86971 1.01908 6.46127C0.988416 7.32014 0.9924 7.49558 1.048 7.73679C1.17416 8.28405 1.52629 8.68557 2.04204 8.87025C2.29569 8.96108 2.40331 8.97108 3.11799 8.9703C3.75122 8.96959 3.79708 8.96708 3.94393 8.92507C4.1623 8.86256 4.385 8.74405 4.57168 8.59096L4.7315 8.45989L4.82842 8.54921C5.02128 8.72694 5.23748 8.84968 5.46334 8.90965C5.63356 8.95487 6.10475 8.98723 6.41202 8.97484C6.88941 8.95556 7.18373 8.84221 7.52548 8.54596L7.62836 8.45676L7.70038 8.52622C7.88615 8.70541 8.108 8.83862 8.32055 8.89862C8.50653 8.95112 9.00449 8.98927 9.32326 8.97544C9.78524 8.9554 10.0818 8.83976 10.4208 8.54751L10.5234 8.45908L10.6054 8.53648C10.7972 8.71746 11.0862 8.87216 11.3482 8.93423C11.5704 8.98686 12.3623 8.98668 12.592 8.93393C12.7961 8.88706 13.0579 8.75486 13.261 8.59607L13.4247 8.46806L13.5451 8.57271C13.6986 8.70618 13.8994 8.82747 14.0543 8.88025C14.2568 8.94927 14.4534 8.96915 14.9337 8.96915C15.3772 8.96913 15.3955 8.96753 15.5644 8.91423C15.7957 8.84123 16.0089 8.72499 16.1774 8.58004L16.3155 8.46119L16.4135 8.55156C16.5584 8.68505 16.7805 8.81972 16.9608 8.8834C17.2019 8.96857 17.4157 8.98604 18.0944 8.97614C18.627 8.96835 18.7109 8.96269 18.8438 8.92547C19.2966 8.79863 19.7081 8.46405 19.889 8.07556C20.006 7.82421 20.0255 7.69345 20.0242 7.17021C20.0216 6.15158 20.0015 5.85467 19.8829 5.08693C19.786 4.45946 19.7466 4.18463 19.6167 3.23161C19.5312 2.60409 19.341 2.18571 18.9662 1.80074C18.6227 1.44785 18.2402 1.24312 17.6709 1.10742L17.4893 1.06412L10.5708 1.06167C6.76571 1.06031 3.62618 1.06262 3.59412 1.06681ZM17.4279 2.0704C17.6358 2.1135 17.8567 2.20094 18.0375 2.31167C18.2567 2.44588 18.4848 2.72255 18.5842 2.97474C18.6352 3.10411 18.6325 3.08929 18.8601 4.49934C19.0123 5.4419 19.0168 5.47953 19.0448 6.04683C19.0606 6.36664 19.0756 6.79688 19.0782 7.00291C19.0826 7.35788 19.0804 7.38378 19.0363 7.49606C18.9525 7.70924 18.763 7.8712 18.5193 7.93805C18.4488 7.95737 18.2666 7.96476 17.8557 7.96492C17.3428 7.96514 17.2774 7.96137 17.1628 7.9251C16.938 7.85393 16.752 7.68146 16.6691 7.46719C16.6371 7.38445 16.6344 7.27879 16.6343 6.09282C16.6342 4.66432 16.6399 4.7292 16.5022 4.60527C16.3663 4.48293 16.1493 4.47675 15.9788 4.59037C15.8307 4.68914 15.8386 4.61112 15.8277 6.09282L15.818 7.4174L15.7723 7.52101C15.7123 7.6569 15.5516 7.81091 15.3857 7.89144C15.255 7.95492 15.2528 7.95522 14.8973 7.96179C14.692 7.96559 14.4856 7.95896 14.4115 7.94619C14.1351 7.89855 13.9128 7.72627 13.8242 7.49114C13.7818 7.37866 13.7814 7.36497 13.7778 6.08286C13.7739 4.67849 13.7777 4.72884 13.6675 4.62616C13.5179 4.48667 13.297 4.47197 13.1221 4.58985C12.9739 4.6897 12.9818 4.61118 12.9709 6.09282C12.9613 7.40883 12.9609 7.41802 12.9181 7.51219C12.8222 7.72311 12.6048 7.89192 12.3588 7.94649C12.185 7.98501 11.672 7.98055 11.5081 7.93908C11.2591 7.87606 11.0883 7.74693 10.9948 7.55101C10.944 7.44473 10.941 7.42118 10.925 7.00044C10.9157 6.75869 10.9118 6.17996 10.9163 5.71437C10.9211 5.21589 10.9169 4.83917 10.9061 4.79812C10.8496 4.58381 10.6199 4.46161 10.398 4.52776C10.2678 4.56654 10.1966 4.62393 10.151 4.72683C10.1172 4.80316 10.115 4.88486 10.1146 6.07838C10.1142 7.28815 10.1123 7.35398 10.0761 7.4597C10.005 7.66712 9.84323 7.83206 9.63509 7.90946C9.53831 7.94546 9.46538 7.95311 9.1441 7.96087C8.73327 7.97083 8.61814 7.95595 8.45568 7.8719C8.32063 7.80204 8.19923 7.67923 8.13716 7.5497L8.08332 7.43732L8.07361 6.11274C8.06303 4.67108 8.06813 4.73426 7.95372 4.62479C7.78577 4.46404 7.45736 4.4896 7.32002 4.67408L7.2671 4.74517L7.25739 6.09125L7.24767 7.43732L7.19625 7.53691C7.13641 7.65283 7.00864 7.78934 6.89786 7.8557C6.73542 7.95303 6.6308 7.96852 6.18315 7.96159L5.76967 7.9552L5.64067 7.89004C5.47721 7.8075 5.33692 7.67871 5.27491 7.55426L5.22656 7.45723L5.21682 6.13266C5.20636 4.7105 5.20903 4.74593 5.10385 4.63202C4.96671 4.48344 4.73585 4.46582 4.55178 4.58985C4.40359 4.6897 4.41148 4.61118 4.40062 6.09282L4.3909 7.4174L4.33614 7.53171C4.23217 7.7487 4.03647 7.89783 3.78846 7.94904C3.71451 7.96432 3.48342 7.973 3.15686 7.97283C2.57499 7.97249 2.47736 7.95711 2.28115 7.83495C2.15505 7.75643 2.06971 7.66524 2.0064 7.54133C1.94213 7.41559 1.94073 7.15159 1.99917 6.18245C2.05518 5.25321 2.05589 5.2463 2.1759 4.48938C2.22277 4.19359 2.28813 3.77261 2.32111 3.55389C2.35409 3.33516 2.40149 3.09606 2.42644 3.02254C2.56061 2.6271 2.94223 2.2755 3.40643 2.11964C3.67341 2.03 3.42089 2.03313 10.5095 2.03124C17.2176 2.02945 17.2309 2.02953 17.4279 2.0704ZM15.1335 10.0378C14.9827 10.0875 14.8105 10.2432 14.7333 10.3997C14.6777 10.5122 14.6425 10.6808 14.6423 10.8353C14.6423 10.8979 14.6315 10.9362 14.6082 10.9563C14.5791 10.9815 14.1933 11.1521 14.1653 11.1521C14.1599 11.1521 14.1087 11.1048 14.0513 11.047C13.7993 10.7927 13.4997 10.7322 13.202 10.8754C13.0969 10.9259 13.0254 10.9896 12.737 11.2898C12.4865 11.5505 12.3783 11.6783 12.3289 11.7718C12.2637 11.895 12.2616 11.906 12.2616 12.1182C12.2616 12.3174 12.2665 12.3475 12.3155 12.4499C12.3452 12.5118 12.4177 12.6179 12.4767 12.6856C12.5465 12.7658 12.5802 12.8202 12.5733 12.8419C12.5675 12.8601 12.5248 12.9692 12.4784 13.0842L12.3941 13.2934L12.2084 13.3059C12.0694 13.3153 11.9954 13.3312 11.9144 13.3692C11.7629 13.4403 11.623 13.5812 11.5472 13.739L11.4842 13.8702V14.4681V15.0661L11.5394 15.1813C11.6081 15.3245 11.7569 15.4771 11.8962 15.547C11.975 15.5865 12.0405 15.6022 12.1513 15.6081C12.365 15.6194 12.3854 15.6264 12.4168 15.699C12.5173 15.9312 12.5628 16.0548 12.5628 16.0953C12.5628 16.1237 12.5256 16.1822 12.4676 16.2452C12.2876 16.4407 12.2077 16.6891 12.2498 16.9229C12.2908 17.1513 12.3418 17.2248 12.745 17.6375C13.1893 18.0922 13.2201 18.1117 13.4956 18.1129C13.6625 18.1135 13.6924 18.1077 13.8066 18.0522C13.8761 18.0183 13.9822 17.9444 14.0425 17.8878C14.1028 17.8313 14.1652 17.785 14.1811 17.785C14.2145 17.785 14.5825 17.9389 14.6156 17.9667C14.6279 17.977 14.6411 18.0661 14.6455 18.1689C14.6521 18.323 14.6632 18.3742 14.7143 18.4861C14.826 18.7306 15.0262 18.8805 15.2933 18.9195C15.4687 18.9452 16.0509 18.9453 16.2239 18.9196C16.4772 18.8821 16.6802 18.7268 16.7925 18.4846C16.8333 18.3967 16.847 18.3311 16.856 18.18C16.8622 18.0741 16.873 17.9817 16.8798 17.9748C16.901 17.9531 17.2886 17.785 17.3175 17.785C17.3324 17.785 17.4028 17.8355 17.4738 17.8972C17.6694 18.0673 17.7809 18.1136 17.995 18.1136C18.155 18.1136 18.1821 18.1077 18.3059 18.0457C18.4225 17.9872 18.4887 17.9286 18.7777 17.6274C19.0641 17.3289 19.1246 17.2551 19.1858 17.1287C19.2529 16.9904 19.2578 16.9681 19.2577 16.8C19.2576 16.6401 19.2508 16.6052 19.1977 16.4903C19.1647 16.4191 19.0926 16.3102 19.0375 16.2485C18.9823 16.1867 18.9371 16.1219 18.9371 16.1044C18.9371 16.0682 19.0904 15.6739 19.1162 15.6439C19.1255 15.633 19.2143 15.6187 19.3134 15.6121C19.6132 15.5922 19.8266 15.4576 19.9459 15.2128C20.0374 15.0251 20.0489 14.9248 20.0417 14.3811L20.0351 13.8887L19.9618 13.7367C19.8228 13.4486 19.5802 13.3033 19.238 13.3033C19.1793 13.3033 19.1284 13.2928 19.1178 13.2784C19.0916 13.2429 18.9371 12.8496 18.9371 12.8184C18.9371 12.8041 18.9771 12.7482 19.0259 12.6943C19.274 12.4203 19.3323 12.1054 19.1918 11.7978C19.1384 11.6808 19.0817 11.6132 18.7664 11.2908C18.3809 10.8966 18.3124 10.8463 18.1178 10.8148C17.9798 10.7924 17.7926 10.8216 17.6721 10.8842C17.6183 10.9121 17.5225 10.9838 17.4591 11.0435C17.3957 11.1032 17.3392 11.1521 17.3334 11.1521C17.2921 11.1521 16.8922 10.9617 16.8789 10.9358C16.8698 10.9178 16.8586 10.8217 16.8542 10.7223C16.8475 10.5739 16.8359 10.5202 16.7899 10.4237C16.7181 10.2735 16.5875 10.1398 16.4396 10.0654L16.3233 10.0068L15.7888 10.0024C15.3004 9.9983 15.244 10.0013 15.1335 10.0378ZM16.1714 10.9144C16.2492 10.9446 16.313 11.0101 16.3545 11.1023C16.3827 11.1647 16.3906 11.2316 16.3911 11.4111C16.3915 11.537 16.3989 11.6514 16.4074 11.6653C16.416 11.6791 16.4924 11.7131 16.5772 11.7409C16.662 11.7687 16.8303 11.8412 16.9513 11.9022L17.1712 12.0131L17.3303 11.8543C17.4177 11.767 17.5189 11.68 17.555 11.661C17.6351 11.6188 17.7877 11.6171 17.8622 11.6575C17.9519 11.7062 18.4078 12.1903 18.4408 12.2719C18.4796 12.3679 18.4788 12.4921 18.439 12.5723C18.4217 12.6074 18.3378 12.7145 18.2528 12.8103L18.0981 12.9846L18.1964 13.1888C18.2505 13.3011 18.318 13.4691 18.3466 13.5623C18.3751 13.6554 18.406 13.7415 18.4152 13.7536C18.4249 13.7664 18.5326 13.78 18.6736 13.7863C18.9681 13.7993 19.0563 13.837 19.1266 13.9798C19.1675 14.063 19.1703 14.0936 19.1703 14.4636C19.1703 14.8177 19.1663 14.8665 19.1319 14.9358C19.0568 15.0865 18.9346 15.1355 18.6334 15.1357C18.4994 15.1358 18.4303 15.1438 18.417 15.1607C18.4063 15.1744 18.375 15.2618 18.3475 15.3549C18.32 15.448 18.2534 15.6167 18.1994 15.7297C18.127 15.8816 18.1061 15.9439 18.1195 15.9687C18.1294 15.9872 18.1957 16.0605 18.2667 16.1317C18.3378 16.2029 18.4128 16.2945 18.4333 16.3351C18.4791 16.4257 18.4817 16.5696 18.439 16.6556C18.3901 16.7542 17.928 17.2267 17.8391 17.269C17.6769 17.3463 17.5828 17.311 17.353 17.0865L17.1708 16.9086L16.9515 17.0189C16.831 17.0796 16.6608 17.152 16.5733 17.18C16.4495 17.2196 16.4118 17.2403 16.4031 17.2738C16.3969 17.2975 16.3917 17.4136 16.3915 17.5318C16.3912 17.7727 16.3636 17.8577 16.2555 17.951C16.1722 18.0228 16.0993 18.034 15.7111 18.034C15.3842 18.034 15.3677 18.032 15.2849 17.9842C15.1474 17.9046 15.1086 17.8079 15.1086 17.5441C15.1086 17.247 15.106 17.242 14.9106 17.1784C14.8218 17.1495 14.661 17.0814 14.5533 17.0271C14.4456 16.9729 14.3459 16.9285 14.3318 16.9285C14.3176 16.9285 14.2297 17.0039 14.1363 17.0962C13.9114 17.3185 13.8177 17.3489 13.6403 17.2572C13.526 17.1981 13.102 16.7498 13.0578 16.6413C12.9878 16.4697 13.0309 16.3488 13.2423 16.1225C13.3282 16.0306 13.3985 15.9508 13.3985 15.9452C13.3985 15.9396 13.3544 15.8426 13.3004 15.7296C13.2465 15.6167 13.1796 15.448 13.1517 15.3549C13.1238 15.2618 13.0926 15.1744 13.0822 15.1607C13.0694 15.1438 13.0005 15.1357 12.8665 15.1353C12.5723 15.1346 12.4766 15.1023 12.3812 14.9712C12.3284 14.8987 12.3006 14.5371 12.3245 14.2325C12.353 13.869 12.4239 13.8064 12.832 13.7845C13.1123 13.7695 13.0899 13.7865 13.1649 13.5324C13.1876 13.4557 13.2496 13.3006 13.3029 13.1877L13.3997 12.9825L13.3617 12.9288C13.3408 12.8992 13.274 12.8258 13.2131 12.7655C13.0393 12.5933 12.9911 12.4394 13.059 12.273C13.0956 12.1831 13.5539 11.7039 13.6461 11.6591C13.7319 11.6174 13.8627 11.6179 13.9453 11.6604C13.9812 11.6789 14.0828 11.7669 14.1711 11.856L14.3315 12.0179L14.5014 11.9253C14.5949 11.8743 14.7629 11.8001 14.8748 11.7604C14.9867 11.7207 15.0849 11.6774 15.0931 11.6642C15.1013 11.651 15.1082 11.546 15.1084 11.431C15.1087 11.3159 15.1179 11.1885 15.1289 11.1478C15.154 11.0551 15.2341 10.9558 15.3117 10.9212C15.3863 10.8879 16.0889 10.8824 16.1714 10.9144ZM3.19854 11.0141C3.06838 11.0675 2.97813 11.189 2.92579 11.3812C2.91022 11.4383 2.90416 12.377 2.90432 14.705L2.90453 17.9491L2.1416 17.9417C1.39907 17.9346 1.37633 17.9355 1.29121 17.9762C1.12358 18.0565 1.02612 18.2056 1.00517 18.4137C0.983014 18.6337 1.10461 18.8008 1.3487 18.8859L1.47584 18.9303L6.10108 18.936C9.09913 18.9398 10.7783 18.9348 10.8741 18.9219C11.307 18.8637 11.5218 18.6337 11.4534 18.3017C11.4115 18.0981 11.2227 17.9739 10.8966 17.9352C10.8406 17.9285 10.6001 17.9376 10.3621 17.9553C9.97715 17.9839 9.70875 17.9827 9.60402 17.9517C9.57185 17.9422 9.56999 17.8047 9.56968 15.4283C9.56939 13.3478 9.56465 12.8922 9.54206 12.783C9.46802 12.425 9.18639 12.1071 8.8661 12.02C8.75606 11.99 8.58849 11.9874 7.15979 11.9927L5.57553 11.9987L5.44797 12.063C5.29693 12.1392 5.0919 12.3255 4.99805 12.4717C4.96113 12.5292 4.90561 12.639 4.87469 12.7157L4.81845 12.8551L4.80873 15.3948L4.79901 17.9344L4.32774 17.9397L3.85647 17.945L3.85632 14.8324C3.85624 12.8265 3.84917 11.6738 3.83646 11.5903C3.7939 11.3108 3.68336 11.0957 3.54454 11.0221C3.48257 10.9893 3.27097 10.9843 3.19854 11.0141ZM8.4362 13.0553C8.47727 13.0888 8.53273 13.1605 8.55945 13.2147L8.60804 13.3133L8.61336 15.6188L8.61869 17.9244H7.18984H5.76099L5.7611 15.6388C5.76116 14.169 5.76818 13.3274 5.78073 13.281C5.80967 13.1743 5.87862 13.0806 5.96562 13.0298L6.04278 12.9848L7.20216 12.9897L8.36154 12.9946L8.4362 13.0553ZM15.4046 13.0248C15.1609 13.0902 14.9666 13.2083 14.7675 13.4121C14.6193 13.5637 14.5772 13.622 14.5008 13.7814C14.3824 14.028 14.3447 14.1935 14.3441 14.4685C14.3434 14.8271 14.4608 15.1574 14.6861 15.4306C15.1104 15.9451 15.8345 16.0921 16.4121 15.781C16.686 15.6335 16.8999 15.4077 17.0326 15.1259C17.1301 14.9188 17.1676 14.771 17.1817 14.5375C17.2249 13.8254 16.7559 13.179 16.0771 13.0149C15.9027 12.9728 15.5805 12.9775 15.4046 13.0248ZM15.954 14.0177C16.1296 14.0997 16.2537 14.3329 16.2252 14.5274C16.2042 14.6708 16.1079 14.8131 15.9832 14.885C15.7403 15.025 15.4496 14.9303 15.3169 14.668C15.2612 14.5577 15.2613 14.359 15.3172 14.2494C15.368 14.1499 15.4668 14.0516 15.5556 14.0123C15.6511 13.9699 15.8577 13.9727 15.954 14.0177ZM7.03567 15.0066C6.84599 15.0809 6.72813 15.2548 6.72723 15.4618C6.72661 15.6069 6.76173 15.7001 6.85833 15.8097C7.03856 16.0141 7.3676 16.0095 7.54757 15.7999C7.64579 15.6855 7.67152 15.6037 7.66223 15.4354C7.64799 15.1767 7.47981 14.9996 7.23413 14.9844C7.15565 14.9796 7.08433 14.9875 7.03567 15.0066Z" stroke="#F2F2F2" stroke-width="0.4" mask="url(#path-1-outside-1_1708_19534)"/>
</svg>
