<svg width="13" height="18" viewBox="0 0 13 18" fill="none" xmlns="http://www.w3.org/2000/svg">
<path d="M2.94153 0.354932L0.151534 3.14493C-0.168466 3.45493 0.0515344 3.99493 0.501534 3.99493H2.29153V10.0049C2.29153 10.5549 2.74153 11.0049 3.29153 11.0049C3.84153 11.0049 4.29153 10.5549 4.29153 10.0049V3.99493H6.08153C6.53153 3.99493 6.75153 3.45493 6.43153 3.14493L3.64153 0.354932C3.54795 0.263555 3.42233 0.212402 3.29153 0.212402C3.16074 0.212402 3.03512 0.263555 2.94153 0.354932ZM10.2915 14.0149V8.00493C10.2915 7.45493 9.84153 7.00493 9.29153 7.00493C8.74153 7.00493 8.29153 7.45493 8.29153 8.00493V14.0149H6.50153C6.05153 14.0149 5.83153 14.5549 6.15153 14.8649L8.94153 17.6449C9.14153 17.8349 9.45153 17.8349 9.65153 17.6449L12.4415 14.8649C12.7615 14.5549 12.5315 14.0149 12.0915 14.0149H10.2915Z" fill="#F2F2F2"/>
</svg>
