<svg width="22" height="22" viewBox="0 0 22 22" fill="none" xmlns="http://www.w3.org/2000/svg">
<path fill-rule="evenodd" clip-rule="evenodd" d="M10.8447 0.0364776C10.7948 0.0566548 10.7117 0.126996 10.6599 0.192733C10.5682 0.309451 10.5663 0.337502 10.5788 1.37854L10.5916 2.44476L10.7098 2.56298C10.8749 2.72801 11.1252 2.72801 11.2902 2.56294L11.4084 2.44463V1.34499V0.245392L11.268 0.119854C11.1258 -0.00727566 11.0096 -0.0301633 10.8447 0.0364776ZM15.6644 1.82081C15.5935 1.85226 15.1244 2.2925 14.6219 2.79913C13.7565 3.67174 13.7084 3.72883 13.7084 3.88263C13.7084 4.11934 13.8946 4.2965 14.1434 4.2965C14.3249 4.2965 14.3377 4.28592 15.2247 3.4038C15.7184 2.91283 16.1498 2.45882 16.1835 2.39494C16.2758 2.21988 16.2578 2.07455 16.1265 1.93512C15.9821 1.78166 15.8349 1.74526 15.6644 1.82081ZM5.97315 1.96257C5.84878 2.07808 5.82617 2.14343 5.83627 2.35807C5.8425 2.49032 7.46821 4.14623 7.68273 4.23885C7.96913 4.3625 8.24865 4.16382 8.24865 3.83664C8.24865 3.68344 8.20046 3.6267 7.33399 2.75959C6.472 1.89692 6.41019 1.84426 6.25994 1.84426C6.14554 1.84426 6.0645 1.87768 5.97315 1.96257ZM10.7204 3.45388C10.5848 3.58952 10.5474 3.75068 10.6142 3.91184C10.685 4.08303 10.8124 4.16744 11 4.16744C11.1876 4.16744 11.315 4.08303 11.3858 3.91184C11.4989 3.6387 11.3007 3.35002 11 3.35002C10.8714 3.35002 10.7962 3.37794 10.7204 3.45388ZM10.6178 5.12183C9.34644 5.22896 8.16009 6.06449 7.59047 7.25404C7.50931 7.42346 7.43193 7.60424 7.41847 7.65574C7.39538 7.74402 7.38103 7.73808 7.16835 7.55192C6.67517 7.12016 6.1522 6.92101 5.4286 6.88943C4.74325 6.85949 4.41838 6.91817 3.91148 7.16344C3.17219 7.52121 2.63348 8.20861 2.46646 9.0074C2.37541 9.44304 2.37619 11.5665 2.46758 12.0054C2.59746 12.6291 2.98105 13.2369 3.46955 13.5931L3.72985 13.7828L3.73226 14.0315C3.73389 14.1948 3.71622 14.286 3.68097 14.2969C3.65144 14.306 3.25967 14.4015 2.81043 14.5092C1.72962 14.7681 1.40977 14.9226 0.894497 15.4349C0.581143 15.7463 0.490908 15.8695 0.323892 16.2136C0.03917 16.8 -0.0137936 17.1215 0.00271456 18.1639L0.0160844 19.0082L0.135252 19.1274L0.25442 19.2466L2.08566 19.2587L3.91686 19.2708L3.89029 19.4039C3.87563 19.4771 3.86368 19.9017 3.86368 20.3473V21.1576L2.48891 21.1701L1.11417 21.1826L0.995996 21.3009C0.831087 21.466 0.831087 21.7166 0.996039 21.8817L1.11426 22H11H20.8857L21.004 21.8817C21.1689 21.7166 21.1689 21.466 21.004 21.3009L20.8858 21.1826L19.5111 21.1701L18.1363 21.1576V20.3473C18.1363 19.9017 18.1244 19.4771 18.1097 19.4039L18.0831 19.2708L19.9143 19.2587L21.7456 19.2466L21.8647 19.1274L21.9839 19.0082L21.9973 18.1639C22.0138 17.1215 21.9608 16.8 21.6761 16.2136C21.5091 15.8695 21.4189 15.7463 21.1055 15.4349C20.5902 14.9226 20.2704 14.7681 19.1896 14.5092C18.7403 14.4015 18.3486 14.306 18.319 14.2969C18.2838 14.286 18.2661 14.1948 18.2677 14.0315L18.2701 13.7828L18.5305 13.5931C19.0119 13.2421 19.4074 12.6159 19.5331 12.0054C19.6238 11.5652 19.6241 9.44058 19.5335 9.0074C19.3665 8.20861 18.8278 7.52121 18.0885 7.16344C17.5816 6.91817 17.2567 6.85949 16.5714 6.88943C15.8478 6.92101 15.3248 7.12016 14.8316 7.55192C14.619 7.73808 14.6046 7.74402 14.5815 7.65574C14.5681 7.60424 14.4907 7.42346 14.4095 7.25404C14.0064 6.41223 13.2392 5.69252 12.3979 5.36697C11.8053 5.13767 11.2832 5.06578 10.6178 5.12183ZM11.6813 6.04526C12.4726 6.21033 13.2183 6.8033 13.5951 7.56711C13.8031 7.98877 13.9213 8.42703 13.9226 8.78153L13.9233 8.98589H13.7377C13.4899 8.98589 13.1601 8.88401 12.982 8.75254C12.9022 8.69368 12.7622 8.54594 12.6709 8.42428L12.5048 8.20302L12.681 8.00292C12.7779 7.89283 12.8855 7.74815 12.9201 7.68133C13.0765 7.37941 12.7769 7.02603 12.437 7.11138C12.3762 7.12665 12.1434 7.32322 11.9197 7.54818C10.9734 8.49983 9.82358 8.98567 8.51733 8.98584L8.07669 8.98589L8.07742 8.78153C8.07871 8.42776 8.19676 7.98907 8.40333 7.57029C8.84062 6.68374 9.69711 6.08522 10.6776 5.98102C11.0365 5.94291 11.2585 5.9571 11.6813 6.04526ZM5.84293 7.7996C6.32068 7.92445 6.77508 8.27921 6.98281 8.68942C7.10748 8.93564 7.21689 9.33165 7.21689 9.53674V9.68232L6.99119 9.65479C6.43714 9.58725 6.235 9.52521 5.70261 9.25925C5.49631 9.15625 5.28785 9.07193 5.23936 9.07193C5.19086 9.07193 4.9824 9.15625 4.7761 9.25925C4.24371 9.52521 4.04157 9.58725 3.48752 9.65479L3.26182 9.68232V9.53674C3.26182 9.33165 3.37123 8.93564 3.4959 8.68942C3.6992 8.2879 4.15395 7.92772 4.616 7.80227C4.9018 7.7247 5.55086 7.72328 5.84293 7.7996ZM17.3642 7.7996C17.842 7.92445 18.2964 8.27921 18.5041 8.68942C18.6288 8.93564 18.7382 9.33165 18.7382 9.53674V9.68232L18.5125 9.65479C17.9584 9.58725 17.7563 9.52521 17.2239 9.25925C17.0176 9.15625 16.8091 9.07193 16.7606 9.07193C16.7122 9.07193 16.5037 9.15625 16.2974 9.25925C15.765 9.52521 15.5629 9.58725 15.0088 9.65479L14.7831 9.68232V9.53674C14.7831 9.33165 14.8925 8.93564 15.0172 8.68942C15.2205 8.2879 15.6752 7.92772 16.1373 7.80227C16.4231 7.7247 17.0721 7.72328 17.3642 7.7996ZM12.2462 9.24402C12.6372 9.63448 13.1412 9.84632 13.6792 9.84632H13.9329L13.9117 10.7605C13.8881 11.7823 13.8564 11.9377 13.5542 12.5173C13.4407 12.7347 13.2844 12.9392 13.0633 13.159C12.698 13.5224 12.3993 13.7144 11.9387 13.8823C11.6513 13.987 11.5682 13.9972 11 13.9972C10.4318 13.9972 10.3487 13.987 10.0613 13.8823C9.16218 13.5547 8.49365 12.8579 8.19444 11.9365C8.12445 11.721 8.10571 11.5141 8.08838 10.7665L8.06727 9.85833L8.7061 9.83518C9.37541 9.81096 9.7566 9.74647 10.3052 9.56466C10.7031 9.4328 11.3295 9.12859 11.6234 8.92458L11.8383 8.77534L11.9238 8.89137C11.9708 8.95517 12.1159 9.11388 12.2462 9.24402ZM5.48797 10.1209C5.88945 10.324 6.74202 10.5347 7.16203 10.5347C7.23099 10.5347 7.2389 11.4393 7.173 11.787C7.04059 12.4857 6.51934 13.0499 5.84293 13.2267C5.53788 13.3064 4.95205 13.3051 4.63913 13.224C3.9552 13.0466 3.43898 12.4903 3.30571 11.787C3.23981 11.4393 3.24772 10.5347 3.31668 10.5347C3.73368 10.5347 4.67567 10.2978 5.02441 10.1051C5.21881 9.99776 5.24623 9.99871 5.48797 10.1209ZM17.0093 10.1209C17.4107 10.324 18.2633 10.5347 18.6833 10.5347C18.7523 10.5347 18.7602 11.4393 18.6943 11.787C18.5622 12.484 18.0395 13.048 17.3628 13.2235C17.0482 13.3051 16.4628 13.3066 16.1571 13.2267C15.5057 13.0565 15.0244 12.5622 14.8473 11.8816C14.7635 11.5599 14.7565 10.5347 14.838 10.5347C15.255 10.5347 16.197 10.2978 16.5457 10.1051C16.7401 9.99776 16.7675 9.99871 17.0093 10.1209ZM8.2575 13.6994C8.4041 13.8562 8.64583 14.0715 8.79475 14.1779L9.06545 14.3712V14.6686C9.06545 14.8321 9.05797 14.9659 9.04877 14.9659C9.03962 14.9659 8.90386 14.9059 8.74711 14.8325C8.59037 14.7591 8.14809 14.6224 7.76428 14.5289C7.38047 14.4353 6.9939 14.3397 6.90521 14.3165L6.744 14.2743V14.0178C6.744 13.8767 6.75956 13.7613 6.77861 13.7613C6.85672 13.7613 7.39203 13.2774 7.52023 13.091L7.65814 12.8904L7.82455 13.1523C7.91608 13.2964 8.11091 13.5426 8.2575 13.6994ZM14.6401 13.2868C14.7151 13.372 14.8834 13.5185 15.0142 13.6123L15.2519 13.7828L15.2539 14.0285L15.256 14.2743L15.0948 14.3165C15.0061 14.3397 14.6195 14.4353 14.2357 14.5289C13.8519 14.6224 13.4096 14.7591 13.2529 14.8325C13.0961 14.9059 12.9604 14.9659 12.9512 14.9659C12.942 14.9659 12.9345 14.8321 12.9345 14.6686V14.3712L13.208 14.1759C13.5415 13.9377 13.9893 13.4611 14.186 13.135L14.3317 12.8933L14.4177 13.0126C14.465 13.0782 14.5651 13.2016 14.6401 13.2868ZM5.8842 14.3583C5.8842 14.7025 5.37684 16.6433 5.2624 16.7369C5.21425 16.7762 5.17113 16.8048 5.16657 16.8002C5.16202 16.7958 5.03141 16.2977 4.87639 15.6934C4.69841 14.9997 4.59451 14.5085 4.59451 14.3609V14.127H5.23936H5.8842V14.3583ZM17.4055 14.3609C17.4055 14.5085 17.3016 14.9997 17.1236 15.6934C16.9686 16.2977 16.8377 16.7961 16.8328 16.801C16.8279 16.806 16.7837 16.7774 16.7347 16.7377C16.6193 16.644 16.1158 14.7084 16.1158 14.3583V14.127H16.7606H17.4055V14.3609ZM10.2477 14.8145C10.396 14.8503 10.7157 14.8768 11 14.8768C11.2843 14.8768 11.604 14.8503 11.7523 14.8145C11.8942 14.7802 12.0247 14.7518 12.0425 14.7515C12.0603 14.7511 12.0748 14.9589 12.0748 15.2133C12.0749 15.6643 12.0618 15.7266 11.5485 17.7301C11.2589 18.8599 11.0123 19.7842 11.0003 19.784C10.9883 19.7838 10.7409 18.8496 10.4504 17.7082C9.94137 15.7079 9.92229 15.6168 9.92375 15.1918C9.92456 14.9493 9.93978 14.7511 9.9575 14.7515C9.97521 14.7518 10.1058 14.7802 10.2477 14.8145ZM4.1561 16.3534C4.32681 17.0219 4.46631 17.5865 4.46601 17.6082C4.46575 17.6298 4.38334 17.8182 4.28283 18.0269L4.10012 18.4062L2.47201 18.4069L0.843941 18.4077L0.864103 17.7516C0.881772 17.1761 0.898022 17.0598 0.996512 16.8047C1.20076 16.2756 1.54063 15.8948 2.02921 15.6474C2.21368 15.554 3.47385 15.1987 3.82241 15.1418C3.83522 15.1397 3.98534 15.6849 4.1561 16.3534ZM7.42307 15.3313C8.01478 15.4709 8.30879 15.5549 8.24865 15.5672C8.18545 15.5801 6.57793 15.9977 6.49191 16.0235C6.40593 16.0494 6.39406 16.0415 6.41487 15.9725C6.42837 15.9276 6.48146 15.721 6.53279 15.5133C6.6079 15.2096 6.63979 15.1397 6.69581 15.156C6.73416 15.1671 7.0614 15.246 7.42307 15.3313ZM15.4845 15.578C15.5452 15.82 15.5888 16.0239 15.5816 16.0311C15.5743 16.0385 15.4062 15.9977 15.208 15.9405C15.0098 15.8834 14.6154 15.7836 14.3317 15.7189C14.048 15.654 13.8003 15.5867 13.7812 15.5694C13.7622 15.5519 13.8299 15.5152 13.9317 15.4878C14.1327 15.4335 15.3035 15.1472 15.3474 15.1415C15.3622 15.1396 15.4239 15.336 15.4845 15.578ZM19.0047 15.3491C19.7883 15.5376 20.1073 15.6736 20.4266 15.9556C20.6919 16.1896 20.8637 16.4427 21.0035 16.8047C21.102 17.0598 21.1182 17.1761 21.1359 17.7516L21.1561 18.4077L19.528 18.4069L17.8999 18.4062L17.7172 18.0269C17.6167 17.8182 17.534 17.6298 17.5335 17.6082C17.5329 17.5865 17.6725 17.0219 17.8437 16.3534C18.0956 15.3699 18.1675 15.1418 18.2209 15.1573C18.2571 15.1679 18.6099 15.2542 19.0047 15.3491ZM9.23299 16.4179C9.25603 16.5067 9.47055 17.344 9.7097 18.2786C9.94881 19.2133 10.1551 20.0167 10.168 20.064C10.1809 20.1113 9.44527 19.4052 8.5332 18.4949C7.62112 17.5846 6.88939 16.8252 6.90711 16.8075C6.94085 16.7737 8.99014 16.2663 9.11752 16.2601C9.16768 16.2577 9.20444 16.3079 9.23299 16.4179ZM13.9756 16.5169C14.5734 16.6601 15.0766 16.7913 15.0938 16.8085C15.111 16.8257 14.3812 17.584 13.4719 18.4937L11.8187 20.1477L12.1852 18.7077C12.7422 16.5189 12.8137 16.2566 12.8526 16.2566C12.8725 16.2566 13.3778 16.3737 13.9756 16.5169ZM7.99071 19.2036L9.9464 21.1611H7.33494H4.72348V20.3474C4.72348 19.2216 4.82304 18.7586 5.2026 18.1193C5.33591 17.8948 5.93076 17.2461 6.00329 17.2461C6.02074 17.2461 6.9151 18.127 7.99071 19.2036ZM16.3408 17.5613C16.6744 17.8978 16.8774 18.2031 17.047 18.6233C17.2234 19.0603 17.2765 19.4595 17.2765 20.3474V21.1611H14.6651H12.0536L14.0093 19.2036C15.0849 18.127 15.9793 17.2461 15.9967 17.2461C16.0142 17.2461 16.169 17.3879 16.3408 17.5613Z" fill="#F2F2F2"/>
</svg>
