<svg width="23" height="24" viewBox="0 0 23 24" fill="none" xmlns="http://www.w3.org/2000/svg">
<mask id="path-1-outside-1_1717_19654" maskUnits="userSpaceOnUse" x="0" y="0" width="23" height="24" fill="black">
<rect fill="white" width="23" height="24"/>
<path fill-rule="evenodd" clip-rule="evenodd" d="M10.8466 1.09245C10.7715 1.14915 10.6886 1.29797 10.632 1.47756C10.5813 1.63848 10.5156 1.78481 10.4861 1.80271C10.4014 1.85396 9.64063 2.14671 9.58973 2.14762C9.56452 2.14805 9.3907 2.08058 9.20342 1.9977C8.95314 1.88683 8.83729 1.85831 8.76586 1.89004C8.60613 1.96086 7.86798 2.67968 7.8383 2.79338C7.82166 2.85707 7.87351 3.03335 7.96949 3.23969L8.12823 3.58068L7.9546 3.99746L7.78102 4.4143L7.40039 4.52866C6.90864 4.67648 6.87124 4.73931 6.87124 5.41741C6.87124 6.03369 6.91083 6.09499 7.41748 6.26338L7.77654 6.38272L7.97109 6.77438L8.16568 7.166L7.98503 7.55101C7.88572 7.76275 7.76817 7.94689 7.72384 7.96014C7.62707 7.98914 6.03861 8.38707 4.82913 8.68538C3.5843 8.99239 3.22952 9.08504 3.06804 9.14533C2.94626 9.19083 2.8464 9.35497 2.37836 10.2792C1.44218 12.1279 1.39242 12.2317 1.39242 12.3376C1.39242 12.5246 1.60445 12.6576 2.20588 12.8478L2.78703 13.0315L2.78723 13.5355C2.78733 13.8127 2.79291 15.4333 2.79968 17.1369L2.81193 20.2341L2.93645 20.3496C3.028 20.4345 3.50944 20.6006 4.75442 20.977C6.41944 21.4803 6.87627 21.6198 8.41527 22.0947C10.7332 22.8098 11.4714 23.0197 11.595 22.9986C11.6678 22.9861 12.5119 22.7349 13.4707 22.4404C15.1113 21.9366 18.7529 20.8231 19.6591 20.5482C19.9941 20.4466 20.0833 20.3988 20.1426 20.2885C20.2044 20.1736 20.215 19.6461 20.213 16.7682C20.2118 14.9063 20.2295 13.3668 20.2525 13.3472C20.2755 13.3275 20.5624 13.2211 20.89 13.1107C21.2176 13.0004 21.5132 12.8882 21.5467 12.8614C21.7333 12.7126 21.6889 12.5874 20.9002 11.0371C20.4483 10.149 20.0926 9.50685 20.0364 9.47794C19.9413 9.42904 18.4307 8.99048 16.3737 8.41459L15.292 8.11174L15.0882 7.70356C14.976 7.47909 14.8951 7.26242 14.9084 7.22218C14.9216 7.18189 14.9973 6.99967 15.0766 6.81726L15.2209 6.4856L15.5661 6.37497C16.0839 6.20897 16.1354 6.13169 16.1354 5.52153C16.1354 5.24792 16.1107 4.97186 16.0804 4.90813C16.0446 4.83243 15.8873 4.72787 15.6274 4.60681L15.2294 4.42138L15.0582 4.00517L14.8869 3.58896L15.038 3.26883C15.1211 3.09274 15.1891 2.90645 15.1891 2.85487C15.1891 2.80118 15.0021 2.57891 14.752 2.3351C14.2463 1.84228 14.1991 1.82936 13.7402 2.05876L13.4411 2.20835L13.1033 2.05876C12.9175 1.97651 12.7308 1.90918 12.6884 1.90918C12.5814 1.90918 12.533 1.83664 12.4014 1.47851C12.2328 1.01986 12.1965 1 11.5294 1C11.0509 1 10.951 1.01354 10.8466 1.09245ZM11.8515 2.02029C11.9763 2.32386 12.0775 2.41124 12.3618 2.4611C12.4641 2.47909 12.7214 2.57757 12.9336 2.67997C13.3879 2.89923 13.5131 2.90779 13.852 2.74285L14.1054 2.61944L14.2675 2.77036L14.4295 2.92124L14.2877 3.24065C14.2097 3.41631 14.1452 3.59025 14.1445 3.62719C14.1437 3.66413 14.2076 3.82563 14.2863 3.98608C14.3651 4.14652 14.4702 4.40195 14.5198 4.55364C14.6295 4.88918 14.6917 4.94655 15.0964 5.08647L15.4132 5.196V5.42669V5.65739L15.1081 5.75716C14.7246 5.88257 14.655 5.93985 14.5877 6.18547C14.5578 6.29429 14.446 6.55714 14.3392 6.76965C14.1266 7.19265 14.1264 7.24467 14.3357 7.63887C14.4734 7.89822 14.4701 7.94258 14.3005 8.09858L14.1591 8.22878L13.8398 8.08365C13.4697 7.91545 13.2678 7.902 13.0377 8.03034C12.9471 8.08092 12.7097 8.16935 12.5101 8.22696C12.3105 8.28458 12.1155 8.36209 12.0768 8.39923C12.0381 8.43636 11.9558 8.61805 11.8938 8.80295L11.7811 9.13916L11.555 9.12499C11.3293 9.11083 11.3287 9.11035 11.1298 8.75792L10.9305 8.40502L10.5819 8.29941C10.3901 8.24137 10.1325 8.14404 10.0094 8.08312C9.72839 7.94421 9.58659 7.94794 9.26887 8.1026C8.9509 8.2574 8.91284 8.25634 8.74499 8.088L8.60782 7.95048L8.76058 7.62681C8.84461 7.4488 8.91334 7.26275 8.91334 7.21337C8.91334 7.16394 8.8478 7.01082 8.7677 6.87305C8.68756 6.73529 8.58357 6.49359 8.5366 6.33602C8.40077 5.8808 8.39848 5.87884 7.83003 5.73816C7.61865 5.68581 7.61835 5.68547 7.6185 5.46029L7.6187 5.23486L8.00376 5.0913L8.38882 4.94775L8.57121 4.46048C8.67153 4.19246 8.78957 3.92387 8.8335 3.86362C8.94268 3.7138 8.93615 3.66303 8.76008 3.29611L8.60683 2.97665L8.76731 2.82247L8.92779 2.66829L9.2227 2.79118C9.38487 2.85874 9.55576 2.91406 9.60243 2.91406C9.64905 2.91406 9.86611 2.8275 10.0848 2.7217C10.3034 2.6159 10.5689 2.51589 10.6747 2.49938C10.941 2.45794 11.0834 2.31496 11.1762 1.99565C11.2554 1.72328 11.2555 1.72323 11.4665 1.70854C11.5827 1.70045 11.691 1.70461 11.7072 1.71777C11.7235 1.73093 11.7884 1.86707 11.8515 2.02029ZM2.41064 2.56785C2.2914 2.64757 1.03919 4.23093 1.0114 4.33716C0.945501 4.58944 1.17471 4.78328 1.45802 4.71495C1.52416 4.69902 1.71024 4.51804 1.89383 4.29108L2.21424 3.89502L2.23915 6.09618C2.25285 7.30683 2.28039 8.32147 2.30036 8.35095C2.32028 8.38042 2.40575 8.43205 2.49028 8.46565C2.62595 8.51967 2.65962 8.5156 2.77777 8.43086L2.91155 8.33492L2.9245 6.1269C2.93162 4.91253 2.95403 3.9198 2.97431 3.92085C2.99458 3.92191 3.14395 4.0924 3.30627 4.29979C3.4686 4.50718 3.65343 4.69964 3.71698 4.72744C3.96453 4.83578 4.2555 4.597 4.18084 4.34688C4.1406 4.21213 3.02003 2.78108 2.82468 2.61499C2.72412 2.52952 2.50537 2.50459 2.41064 2.56785ZM20.1876 2.56785C20.1563 2.58719 19.8259 2.97986 19.4535 3.44043C18.7362 4.32759 18.6781 4.4477 18.8748 4.63671C18.9316 4.69122 19.0408 4.73242 19.1288 4.73242C19.3014 4.73242 19.424 4.62504 19.7465 4.19141C19.856 4.04407 19.9625 3.92248 19.983 3.92124C20.0036 3.91999 20.0204 4.8997 20.0204 6.09848V8.27797L20.1522 8.39535C20.3132 8.53867 20.4152 8.54293 20.5865 8.41349L20.7177 8.31434V6.11662C20.7177 4.90789 20.7345 3.9199 20.7551 3.92109C20.7756 3.92224 20.9259 4.09508 21.0892 4.3051C21.4809 4.80931 21.7259 4.88262 21.9451 4.5613C22.0098 4.46641 22.0154 4.41727 21.9721 4.32597C21.9058 4.1861 20.7458 2.73285 20.6065 2.61499C20.5051 2.52929 20.2894 2.50503 20.1876 2.56785ZM10.8564 3.87889C10.4765 4.02216 10.0602 4.42818 9.91761 4.79438C9.53175 5.7852 10.1634 6.86075 11.225 7.02072C12.0261 7.1414 12.8183 6.70399 13.0988 5.98622C13.2436 5.61542 13.2207 5.05455 13.0465 4.70849C12.8928 4.40325 12.5444 4.06733 12.2255 3.91712C11.8723 3.75069 11.2429 3.73313 10.8564 3.87889ZM11.8411 4.51962C12.452 4.76476 12.6823 5.44579 12.3209 5.93866C11.9151 6.49215 11.0916 6.49215 10.6857 5.93866C10.3312 5.45497 10.5386 4.79228 11.1245 4.53661C11.3753 4.42722 11.5977 4.42191 11.8411 4.51962ZM8.36815 8.73208C8.46253 8.82645 8.60334 8.93564 8.68104 8.97469C8.81437 9.04178 8.84336 9.03618 9.19675 8.87492C9.4027 8.78099 9.5975 8.70409 9.62972 8.70409C9.6619 8.70409 9.84449 8.76711 10.0355 8.8441L10.3827 8.98416L10.5375 9.37817C10.6227 9.59484 10.7334 9.80099 10.7836 9.83626C10.8931 9.9132 11.9564 9.92689 12.0997 9.85324C12.1501 9.82731 12.2508 9.64964 12.3236 9.45847C12.5052 8.98081 12.4891 9 12.8232 8.8643C13.2692 8.68318 13.2928 8.68323 13.688 8.86521C14.1011 9.05542 14.2061 9.04604 14.4603 8.79649C14.5389 8.71935 14.6205 8.65624 14.6417 8.65624C14.6756 8.65624 15.6749 8.9356 17.667 9.50192C18.0026 9.59729 18.2766 9.6883 18.2761 9.70414C18.2755 9.71993 16.7514 10.0964 14.8893 10.5408L11.5037 11.3486L11.1922 11.2659C11.0209 11.2204 10.2083 11.0009 9.38651 10.7781C6.79653 10.0762 6.36883 9.96053 5.52644 9.73428C5.07444 9.61284 4.671 9.50149 4.6299 9.4868C4.57287 9.46641 6.23694 9.0191 7.95022 8.59432C8.14317 8.54647 8.20174 8.5658 8.36815 8.73208ZM6.14903 10.5925C7.57352 10.9801 9.2209 11.427 9.80987 11.5855C10.3988 11.744 10.897 11.8879 10.9169 11.9052C10.9369 11.9225 10.8583 12.076 10.7423 12.2464C10.6263 12.4167 10.2764 12.9491 9.96488 13.4294C9.65333 13.9098 9.39383 14.3027 9.38826 14.3027C9.38263 14.3027 9.24546 14.2619 9.08343 14.212C8.92141 14.1621 8.36297 13.9913 7.84248 13.8325C7.32199 13.6736 6.11167 13.303 5.15288 13.0089C4.19409 12.7149 3.15187 12.3978 2.83684 12.3044C2.52181 12.2111 2.25474 12.1272 2.24328 12.1181C2.21903 12.0987 2.41283 11.7059 2.97983 10.6252C3.30328 10.0088 3.40828 9.84755 3.47472 9.86525C3.52109 9.8776 4.72454 10.2049 6.14903 10.5925ZM20.1918 11.2717C20.5089 11.8943 20.7626 12.4082 20.7555 12.4135C20.7345 12.4295 18.9442 13.0299 16.7829 13.7458C16.0296 13.9954 15.0244 14.3304 14.5492 14.4904C14.0739 14.6504 13.6783 14.7812 13.6698 14.7812C13.65 14.7812 13.4067 14.3684 13.0213 13.6806C12.8516 13.378 12.5626 12.8643 12.3789 12.5392C12.1952 12.2141 12.052 11.943 12.0605 11.9368C12.0691 11.9307 12.883 11.7364 13.8692 11.5052C15.469 11.1301 19.5828 10.1537 19.6061 10.1436C19.6111 10.1414 19.8747 10.6491 20.1918 11.2717ZM11.1305 22.1417C11.1169 22.1548 10.506 21.981 9.77297 21.7554C9.0399 21.5299 7.72294 21.1261 6.84633 20.8582C5.96972 20.5903 4.86584 20.2523 4.39332 20.1072L3.53414 19.8432V16.5415C3.53414 13.9202 3.54699 13.2443 3.5964 13.2619C4.12296 13.4492 9.43831 15.0683 9.52687 15.0683C9.71644 15.0683 9.81137 14.9593 10.3601 14.1113C10.6412 13.6771 10.9292 13.2356 11.0004 13.1304L11.1298 12.9389L11.1425 17.5285C11.1494 20.0527 11.1441 22.1287 11.1305 22.1417ZM12.5886 14.3458C13.155 15.3386 13.3141 15.5469 13.5063 15.5469C13.5639 15.5469 14.42 15.2758 15.4087 14.9446C16.3974 14.6134 17.7162 14.1738 18.3394 13.9679L19.4725 13.5936V16.7396V19.8857L18.7379 20.1041C18.0443 20.3103 14.7727 21.2967 12.8378 21.8831C12.3528 22.0301 11.9325 22.1504 11.9039 22.1504C11.8682 22.1504 11.8528 20.7419 11.8546 17.6404C11.8571 13.3846 11.862 13.1368 11.9417 13.2452C11.9883 13.3085 12.2793 13.8037 12.5886 14.3458Z"/>
</mask>
<path fill-rule="evenodd" clip-rule="evenodd" d="M10.8466 1.09245C10.7715 1.14915 10.6886 1.29797 10.632 1.47756C10.5813 1.63848 10.5156 1.78481 10.4861 1.80271C10.4014 1.85396 9.64063 2.14671 9.58973 2.14762C9.56452 2.14805 9.3907 2.08058 9.20342 1.9977C8.95314 1.88683 8.83729 1.85831 8.76586 1.89004C8.60613 1.96086 7.86798 2.67968 7.8383 2.79338C7.82166 2.85707 7.87351 3.03335 7.96949 3.23969L8.12823 3.58068L7.9546 3.99746L7.78102 4.4143L7.40039 4.52866C6.90864 4.67648 6.87124 4.73931 6.87124 5.41741C6.87124 6.03369 6.91083 6.09499 7.41748 6.26338L7.77654 6.38272L7.97109 6.77438L8.16568 7.166L7.98503 7.55101C7.88572 7.76275 7.76817 7.94689 7.72384 7.96014C7.62707 7.98914 6.03861 8.38707 4.82913 8.68538C3.5843 8.99239 3.22952 9.08504 3.06804 9.14533C2.94626 9.19083 2.8464 9.35497 2.37836 10.2792C1.44218 12.1279 1.39242 12.2317 1.39242 12.3376C1.39242 12.5246 1.60445 12.6576 2.20588 12.8478L2.78703 13.0315L2.78723 13.5355C2.78733 13.8127 2.79291 15.4333 2.79968 17.1369L2.81193 20.2341L2.93645 20.3496C3.028 20.4345 3.50944 20.6006 4.75442 20.977C6.41944 21.4803 6.87627 21.6198 8.41527 22.0947C10.7332 22.8098 11.4714 23.0197 11.595 22.9986C11.6678 22.9861 12.5119 22.7349 13.4707 22.4404C15.1113 21.9366 18.7529 20.8231 19.6591 20.5482C19.9941 20.4466 20.0833 20.3988 20.1426 20.2885C20.2044 20.1736 20.215 19.6461 20.213 16.7682C20.2118 14.9063 20.2295 13.3668 20.2525 13.3472C20.2755 13.3275 20.5624 13.2211 20.89 13.1107C21.2176 13.0004 21.5132 12.8882 21.5467 12.8614C21.7333 12.7126 21.6889 12.5874 20.9002 11.0371C20.4483 10.149 20.0926 9.50685 20.0364 9.47794C19.9413 9.42904 18.4307 8.99048 16.3737 8.41459L15.292 8.11174L15.0882 7.70356C14.976 7.47909 14.8951 7.26242 14.9084 7.22218C14.9216 7.18189 14.9973 6.99967 15.0766 6.81726L15.2209 6.4856L15.5661 6.37497C16.0839 6.20897 16.1354 6.13169 16.1354 5.52153C16.1354 5.24792 16.1107 4.97186 16.0804 4.90813C16.0446 4.83243 15.8873 4.72787 15.6274 4.60681L15.2294 4.42138L15.0582 4.00517L14.8869 3.58896L15.038 3.26883C15.1211 3.09274 15.1891 2.90645 15.1891 2.85487C15.1891 2.80118 15.0021 2.57891 14.752 2.3351C14.2463 1.84228 14.1991 1.82936 13.7402 2.05876L13.4411 2.20835L13.1033 2.05876C12.9175 1.97651 12.7308 1.90918 12.6884 1.90918C12.5814 1.90918 12.533 1.83664 12.4014 1.47851C12.2328 1.01986 12.1965 1 11.5294 1C11.0509 1 10.951 1.01354 10.8466 1.09245ZM11.8515 2.02029C11.9763 2.32386 12.0775 2.41124 12.3618 2.4611C12.4641 2.47909 12.7214 2.57757 12.9336 2.67997C13.3879 2.89923 13.5131 2.90779 13.852 2.74285L14.1054 2.61944L14.2675 2.77036L14.4295 2.92124L14.2877 3.24065C14.2097 3.41631 14.1452 3.59025 14.1445 3.62719C14.1437 3.66413 14.2076 3.82563 14.2863 3.98608C14.3651 4.14652 14.4702 4.40195 14.5198 4.55364C14.6295 4.88918 14.6917 4.94655 15.0964 5.08647L15.4132 5.196V5.42669V5.65739L15.1081 5.75716C14.7246 5.88257 14.655 5.93985 14.5877 6.18547C14.5578 6.29429 14.446 6.55714 14.3392 6.76965C14.1266 7.19265 14.1264 7.24467 14.3357 7.63887C14.4734 7.89822 14.4701 7.94258 14.3005 8.09858L14.1591 8.22878L13.8398 8.08365C13.4697 7.91545 13.2678 7.902 13.0377 8.03034C12.9471 8.08092 12.7097 8.16935 12.5101 8.22696C12.3105 8.28458 12.1155 8.36209 12.0768 8.39923C12.0381 8.43636 11.9558 8.61805 11.8938 8.80295L11.7811 9.13916L11.555 9.12499C11.3293 9.11083 11.3287 9.11035 11.1298 8.75792L10.9305 8.40502L10.5819 8.29941C10.3901 8.24137 10.1325 8.14404 10.0094 8.08312C9.72839 7.94421 9.58659 7.94794 9.26887 8.1026C8.9509 8.2574 8.91284 8.25634 8.74499 8.088L8.60782 7.95048L8.76058 7.62681C8.84461 7.4488 8.91334 7.26275 8.91334 7.21337C8.91334 7.16394 8.8478 7.01082 8.7677 6.87305C8.68756 6.73529 8.58357 6.49359 8.5366 6.33602C8.40077 5.8808 8.39848 5.87884 7.83003 5.73816C7.61865 5.68581 7.61835 5.68547 7.6185 5.46029L7.6187 5.23486L8.00376 5.0913L8.38882 4.94775L8.57121 4.46048C8.67153 4.19246 8.78957 3.92387 8.8335 3.86362C8.94268 3.7138 8.93615 3.66303 8.76008 3.29611L8.60683 2.97665L8.76731 2.82247L8.92779 2.66829L9.2227 2.79118C9.38487 2.85874 9.55576 2.91406 9.60243 2.91406C9.64905 2.91406 9.86611 2.8275 10.0848 2.7217C10.3034 2.6159 10.5689 2.51589 10.6747 2.49938C10.941 2.45794 11.0834 2.31496 11.1762 1.99565C11.2554 1.72328 11.2555 1.72323 11.4665 1.70854C11.5827 1.70045 11.691 1.70461 11.7072 1.71777C11.7235 1.73093 11.7884 1.86707 11.8515 2.02029ZM2.41064 2.56785C2.2914 2.64757 1.03919 4.23093 1.0114 4.33716C0.945501 4.58944 1.17471 4.78328 1.45802 4.71495C1.52416 4.69902 1.71024 4.51804 1.89383 4.29108L2.21424 3.89502L2.23915 6.09618C2.25285 7.30683 2.28039 8.32147 2.30036 8.35095C2.32028 8.38042 2.40575 8.43205 2.49028 8.46565C2.62595 8.51967 2.65962 8.5156 2.77777 8.43086L2.91155 8.33492L2.9245 6.1269C2.93162 4.91253 2.95403 3.9198 2.97431 3.92085C2.99458 3.92191 3.14395 4.0924 3.30627 4.29979C3.4686 4.50718 3.65343 4.69964 3.71698 4.72744C3.96453 4.83578 4.2555 4.597 4.18084 4.34688C4.1406 4.21213 3.02003 2.78108 2.82468 2.61499C2.72412 2.52952 2.50537 2.50459 2.41064 2.56785ZM20.1876 2.56785C20.1563 2.58719 19.8259 2.97986 19.4535 3.44043C18.7362 4.32759 18.6781 4.4477 18.8748 4.63671C18.9316 4.69122 19.0408 4.73242 19.1288 4.73242C19.3014 4.73242 19.424 4.62504 19.7465 4.19141C19.856 4.04407 19.9625 3.92248 19.983 3.92124C20.0036 3.91999 20.0204 4.8997 20.0204 6.09848V8.27797L20.1522 8.39535C20.3132 8.53867 20.4152 8.54293 20.5865 8.41349L20.7177 8.31434V6.11662C20.7177 4.90789 20.7345 3.9199 20.7551 3.92109C20.7756 3.92224 20.9259 4.09508 21.0892 4.3051C21.4809 4.80931 21.7259 4.88262 21.9451 4.5613C22.0098 4.46641 22.0154 4.41727 21.9721 4.32597C21.9058 4.1861 20.7458 2.73285 20.6065 2.61499C20.5051 2.52929 20.2894 2.50503 20.1876 2.56785ZM10.8564 3.87889C10.4765 4.02216 10.0602 4.42818 9.91761 4.79438C9.53175 5.7852 10.1634 6.86075 11.225 7.02072C12.0261 7.1414 12.8183 6.70399 13.0988 5.98622C13.2436 5.61542 13.2207 5.05455 13.0465 4.70849C12.8928 4.40325 12.5444 4.06733 12.2255 3.91712C11.8723 3.75069 11.2429 3.73313 10.8564 3.87889ZM11.8411 4.51962C12.452 4.76476 12.6823 5.44579 12.3209 5.93866C11.9151 6.49215 11.0916 6.49215 10.6857 5.93866C10.3312 5.45497 10.5386 4.79228 11.1245 4.53661C11.3753 4.42722 11.5977 4.42191 11.8411 4.51962ZM8.36815 8.73208C8.46253 8.82645 8.60334 8.93564 8.68104 8.97469C8.81437 9.04178 8.84336 9.03618 9.19675 8.87492C9.4027 8.78099 9.5975 8.70409 9.62972 8.70409C9.6619 8.70409 9.84449 8.76711 10.0355 8.8441L10.3827 8.98416L10.5375 9.37817C10.6227 9.59484 10.7334 9.80099 10.7836 9.83626C10.8931 9.9132 11.9564 9.92689 12.0997 9.85324C12.1501 9.82731 12.2508 9.64964 12.3236 9.45847C12.5052 8.98081 12.4891 9 12.8232 8.8643C13.2692 8.68318 13.2928 8.68323 13.688 8.86521C14.1011 9.05542 14.2061 9.04604 14.4603 8.79649C14.5389 8.71935 14.6205 8.65624 14.6417 8.65624C14.6756 8.65624 15.6749 8.9356 17.667 9.50192C18.0026 9.59729 18.2766 9.6883 18.2761 9.70414C18.2755 9.71993 16.7514 10.0964 14.8893 10.5408L11.5037 11.3486L11.1922 11.2659C11.0209 11.2204 10.2083 11.0009 9.38651 10.7781C6.79653 10.0762 6.36883 9.96053 5.52644 9.73428C5.07444 9.61284 4.671 9.50149 4.6299 9.4868C4.57287 9.46641 6.23694 9.0191 7.95022 8.59432C8.14317 8.54647 8.20174 8.5658 8.36815 8.73208ZM6.14903 10.5925C7.57352 10.9801 9.2209 11.427 9.80987 11.5855C10.3988 11.744 10.897 11.8879 10.9169 11.9052C10.9369 11.9225 10.8583 12.076 10.7423 12.2464C10.6263 12.4167 10.2764 12.9491 9.96488 13.4294C9.65333 13.9098 9.39383 14.3027 9.38826 14.3027C9.38263 14.3027 9.24546 14.2619 9.08343 14.212C8.92141 14.1621 8.36297 13.9913 7.84248 13.8325C7.32199 13.6736 6.11167 13.303 5.15288 13.0089C4.19409 12.7149 3.15187 12.3978 2.83684 12.3044C2.52181 12.2111 2.25474 12.1272 2.24328 12.1181C2.21903 12.0987 2.41283 11.7059 2.97983 10.6252C3.30328 10.0088 3.40828 9.84755 3.47472 9.86525C3.52109 9.8776 4.72454 10.2049 6.14903 10.5925ZM20.1918 11.2717C20.5089 11.8943 20.7626 12.4082 20.7555 12.4135C20.7345 12.4295 18.9442 13.0299 16.7829 13.7458C16.0296 13.9954 15.0244 14.3304 14.5492 14.4904C14.0739 14.6504 13.6783 14.7812 13.6698 14.7812C13.65 14.7812 13.4067 14.3684 13.0213 13.6806C12.8516 13.378 12.5626 12.8643 12.3789 12.5392C12.1952 12.2141 12.052 11.943 12.0605 11.9368C12.0691 11.9307 12.883 11.7364 13.8692 11.5052C15.469 11.1301 19.5828 10.1537 19.6061 10.1436C19.6111 10.1414 19.8747 10.6491 20.1918 11.2717ZM11.1305 22.1417C11.1169 22.1548 10.506 21.981 9.77297 21.7554C9.0399 21.5299 7.72294 21.1261 6.84633 20.8582C5.96972 20.5903 4.86584 20.2523 4.39332 20.1072L3.53414 19.8432V16.5415C3.53414 13.9202 3.54699 13.2443 3.5964 13.2619C4.12296 13.4492 9.43831 15.0683 9.52687 15.0683C9.71644 15.0683 9.81137 14.9593 10.3601 14.1113C10.6412 13.6771 10.9292 13.2356 11.0004 13.1304L11.1298 12.9389L11.1425 17.5285C11.1494 20.0527 11.1441 22.1287 11.1305 22.1417ZM12.5886 14.3458C13.155 15.3386 13.3141 15.5469 13.5063 15.5469C13.5639 15.5469 14.42 15.2758 15.4087 14.9446C16.3974 14.6134 17.7162 14.1738 18.3394 13.9679L19.4725 13.5936V16.7396V19.8857L18.7379 20.1041C18.0443 20.3103 14.7727 21.2967 12.8378 21.8831C12.3528 22.0301 11.9325 22.1504 11.9039 22.1504C11.8682 22.1504 11.8528 20.7419 11.8546 17.6404C11.8571 13.3846 11.862 13.1368 11.9417 13.2452C11.9883 13.3085 12.2793 13.8037 12.5886 14.3458Z" fill="#F2F2F2"/>
<path fill-rule="evenodd" clip-rule="evenodd" d="M10.8466 1.09245C10.7715 1.14915 10.6886 1.29797 10.632 1.47756C10.5813 1.63848 10.5156 1.78481 10.4861 1.80271C10.4014 1.85396 9.64063 2.14671 9.58973 2.14762C9.56452 2.14805 9.3907 2.08058 9.20342 1.9977C8.95314 1.88683 8.83729 1.85831 8.76586 1.89004C8.60613 1.96086 7.86798 2.67968 7.8383 2.79338C7.82166 2.85707 7.87351 3.03335 7.96949 3.23969L8.12823 3.58068L7.9546 3.99746L7.78102 4.4143L7.40039 4.52866C6.90864 4.67648 6.87124 4.73931 6.87124 5.41741C6.87124 6.03369 6.91083 6.09499 7.41748 6.26338L7.77654 6.38272L7.97109 6.77438L8.16568 7.166L7.98503 7.55101C7.88572 7.76275 7.76817 7.94689 7.72384 7.96014C7.62707 7.98914 6.03861 8.38707 4.82913 8.68538C3.5843 8.99239 3.22952 9.08504 3.06804 9.14533C2.94626 9.19083 2.8464 9.35497 2.37836 10.2792C1.44218 12.1279 1.39242 12.2317 1.39242 12.3376C1.39242 12.5246 1.60445 12.6576 2.20588 12.8478L2.78703 13.0315L2.78723 13.5355C2.78733 13.8127 2.79291 15.4333 2.79968 17.1369L2.81193 20.2341L2.93645 20.3496C3.028 20.4345 3.50944 20.6006 4.75442 20.977C6.41944 21.4803 6.87627 21.6198 8.41527 22.0947C10.7332 22.8098 11.4714 23.0197 11.595 22.9986C11.6678 22.9861 12.5119 22.7349 13.4707 22.4404C15.1113 21.9366 18.7529 20.8231 19.6591 20.5482C19.9941 20.4466 20.0833 20.3988 20.1426 20.2885C20.2044 20.1736 20.215 19.6461 20.213 16.7682C20.2118 14.9063 20.2295 13.3668 20.2525 13.3472C20.2755 13.3275 20.5624 13.2211 20.89 13.1107C21.2176 13.0004 21.5132 12.8882 21.5467 12.8614C21.7333 12.7126 21.6889 12.5874 20.9002 11.0371C20.4483 10.149 20.0926 9.50685 20.0364 9.47794C19.9413 9.42904 18.4307 8.99048 16.3737 8.41459L15.292 8.11174L15.0882 7.70356C14.976 7.47909 14.8951 7.26242 14.9084 7.22218C14.9216 7.18189 14.9973 6.99967 15.0766 6.81726L15.2209 6.4856L15.5661 6.37497C16.0839 6.20897 16.1354 6.13169 16.1354 5.52153C16.1354 5.24792 16.1107 4.97186 16.0804 4.90813C16.0446 4.83243 15.8873 4.72787 15.6274 4.60681L15.2294 4.42138L15.0582 4.00517L14.8869 3.58896L15.038 3.26883C15.1211 3.09274 15.1891 2.90645 15.1891 2.85487C15.1891 2.80118 15.0021 2.57891 14.752 2.3351C14.2463 1.84228 14.1991 1.82936 13.7402 2.05876L13.4411 2.20835L13.1033 2.05876C12.9175 1.97651 12.7308 1.90918 12.6884 1.90918C12.5814 1.90918 12.533 1.83664 12.4014 1.47851C12.2328 1.01986 12.1965 1 11.5294 1C11.0509 1 10.951 1.01354 10.8466 1.09245ZM11.8515 2.02029C11.9763 2.32386 12.0775 2.41124 12.3618 2.4611C12.4641 2.47909 12.7214 2.57757 12.9336 2.67997C13.3879 2.89923 13.5131 2.90779 13.852 2.74285L14.1054 2.61944L14.2675 2.77036L14.4295 2.92124L14.2877 3.24065C14.2097 3.41631 14.1452 3.59025 14.1445 3.62719C14.1437 3.66413 14.2076 3.82563 14.2863 3.98608C14.3651 4.14652 14.4702 4.40195 14.5198 4.55364C14.6295 4.88918 14.6917 4.94655 15.0964 5.08647L15.4132 5.196V5.42669V5.65739L15.1081 5.75716C14.7246 5.88257 14.655 5.93985 14.5877 6.18547C14.5578 6.29429 14.446 6.55714 14.3392 6.76965C14.1266 7.19265 14.1264 7.24467 14.3357 7.63887C14.4734 7.89822 14.4701 7.94258 14.3005 8.09858L14.1591 8.22878L13.8398 8.08365C13.4697 7.91545 13.2678 7.902 13.0377 8.03034C12.9471 8.08092 12.7097 8.16935 12.5101 8.22696C12.3105 8.28458 12.1155 8.36209 12.0768 8.39923C12.0381 8.43636 11.9558 8.61805 11.8938 8.80295L11.7811 9.13916L11.555 9.12499C11.3293 9.11083 11.3287 9.11035 11.1298 8.75792L10.9305 8.40502L10.5819 8.29941C10.3901 8.24137 10.1325 8.14404 10.0094 8.08312C9.72839 7.94421 9.58659 7.94794 9.26887 8.1026C8.9509 8.2574 8.91284 8.25634 8.74499 8.088L8.60782 7.95048L8.76058 7.62681C8.84461 7.4488 8.91334 7.26275 8.91334 7.21337C8.91334 7.16394 8.8478 7.01082 8.7677 6.87305C8.68756 6.73529 8.58357 6.49359 8.5366 6.33602C8.40077 5.8808 8.39848 5.87884 7.83003 5.73816C7.61865 5.68581 7.61835 5.68547 7.6185 5.46029L7.6187 5.23486L8.00376 5.0913L8.38882 4.94775L8.57121 4.46048C8.67153 4.19246 8.78957 3.92387 8.8335 3.86362C8.94268 3.7138 8.93615 3.66303 8.76008 3.29611L8.60683 2.97665L8.76731 2.82247L8.92779 2.66829L9.2227 2.79118C9.38487 2.85874 9.55576 2.91406 9.60243 2.91406C9.64905 2.91406 9.86611 2.8275 10.0848 2.7217C10.3034 2.6159 10.5689 2.51589 10.6747 2.49938C10.941 2.45794 11.0834 2.31496 11.1762 1.99565C11.2554 1.72328 11.2555 1.72323 11.4665 1.70854C11.5827 1.70045 11.691 1.70461 11.7072 1.71777C11.7235 1.73093 11.7884 1.86707 11.8515 2.02029ZM2.41064 2.56785C2.2914 2.64757 1.03919 4.23093 1.0114 4.33716C0.945501 4.58944 1.17471 4.78328 1.45802 4.71495C1.52416 4.69902 1.71024 4.51804 1.89383 4.29108L2.21424 3.89502L2.23915 6.09618C2.25285 7.30683 2.28039 8.32147 2.30036 8.35095C2.32028 8.38042 2.40575 8.43205 2.49028 8.46565C2.62595 8.51967 2.65962 8.5156 2.77777 8.43086L2.91155 8.33492L2.9245 6.1269C2.93162 4.91253 2.95403 3.9198 2.97431 3.92085C2.99458 3.92191 3.14395 4.0924 3.30627 4.29979C3.4686 4.50718 3.65343 4.69964 3.71698 4.72744C3.96453 4.83578 4.2555 4.597 4.18084 4.34688C4.1406 4.21213 3.02003 2.78108 2.82468 2.61499C2.72412 2.52952 2.50537 2.50459 2.41064 2.56785ZM20.1876 2.56785C20.1563 2.58719 19.8259 2.97986 19.4535 3.44043C18.7362 4.32759 18.6781 4.4477 18.8748 4.63671C18.9316 4.69122 19.0408 4.73242 19.1288 4.73242C19.3014 4.73242 19.424 4.62504 19.7465 4.19141C19.856 4.04407 19.9625 3.92248 19.983 3.92124C20.0036 3.91999 20.0204 4.8997 20.0204 6.09848V8.27797L20.1522 8.39535C20.3132 8.53867 20.4152 8.54293 20.5865 8.41349L20.7177 8.31434V6.11662C20.7177 4.90789 20.7345 3.9199 20.7551 3.92109C20.7756 3.92224 20.9259 4.09508 21.0892 4.3051C21.4809 4.80931 21.7259 4.88262 21.9451 4.5613C22.0098 4.46641 22.0154 4.41727 21.9721 4.32597C21.9058 4.1861 20.7458 2.73285 20.6065 2.61499C20.5051 2.52929 20.2894 2.50503 20.1876 2.56785ZM10.8564 3.87889C10.4765 4.02216 10.0602 4.42818 9.91761 4.79438C9.53175 5.7852 10.1634 6.86075 11.225 7.02072C12.0261 7.1414 12.8183 6.70399 13.0988 5.98622C13.2436 5.61542 13.2207 5.05455 13.0465 4.70849C12.8928 4.40325 12.5444 4.06733 12.2255 3.91712C11.8723 3.75069 11.2429 3.73313 10.8564 3.87889ZM11.8411 4.51962C12.452 4.76476 12.6823 5.44579 12.3209 5.93866C11.9151 6.49215 11.0916 6.49215 10.6857 5.93866C10.3312 5.45497 10.5386 4.79228 11.1245 4.53661C11.3753 4.42722 11.5977 4.42191 11.8411 4.51962ZM8.36815 8.73208C8.46253 8.82645 8.60334 8.93564 8.68104 8.97469C8.81437 9.04178 8.84336 9.03618 9.19675 8.87492C9.4027 8.78099 9.5975 8.70409 9.62972 8.70409C9.6619 8.70409 9.84449 8.76711 10.0355 8.8441L10.3827 8.98416L10.5375 9.37817C10.6227 9.59484 10.7334 9.80099 10.7836 9.83626C10.8931 9.9132 11.9564 9.92689 12.0997 9.85324C12.1501 9.82731 12.2508 9.64964 12.3236 9.45847C12.5052 8.98081 12.4891 9 12.8232 8.8643C13.2692 8.68318 13.2928 8.68323 13.688 8.86521C14.1011 9.05542 14.2061 9.04604 14.4603 8.79649C14.5389 8.71935 14.6205 8.65624 14.6417 8.65624C14.6756 8.65624 15.6749 8.9356 17.667 9.50192C18.0026 9.59729 18.2766 9.6883 18.2761 9.70414C18.2755 9.71993 16.7514 10.0964 14.8893 10.5408L11.5037 11.3486L11.1922 11.2659C11.0209 11.2204 10.2083 11.0009 9.38651 10.7781C6.79653 10.0762 6.36883 9.96053 5.52644 9.73428C5.07444 9.61284 4.671 9.50149 4.6299 9.4868C4.57287 9.46641 6.23694 9.0191 7.95022 8.59432C8.14317 8.54647 8.20174 8.5658 8.36815 8.73208ZM6.14903 10.5925C7.57352 10.9801 9.2209 11.427 9.80987 11.5855C10.3988 11.744 10.897 11.8879 10.9169 11.9052C10.9369 11.9225 10.8583 12.076 10.7423 12.2464C10.6263 12.4167 10.2764 12.9491 9.96488 13.4294C9.65333 13.9098 9.39383 14.3027 9.38826 14.3027C9.38263 14.3027 9.24546 14.2619 9.08343 14.212C8.92141 14.1621 8.36297 13.9913 7.84248 13.8325C7.32199 13.6736 6.11167 13.303 5.15288 13.0089C4.19409 12.7149 3.15187 12.3978 2.83684 12.3044C2.52181 12.2111 2.25474 12.1272 2.24328 12.1181C2.21903 12.0987 2.41283 11.7059 2.97983 10.6252C3.30328 10.0088 3.40828 9.84755 3.47472 9.86525C3.52109 9.8776 4.72454 10.2049 6.14903 10.5925ZM20.1918 11.2717C20.5089 11.8943 20.7626 12.4082 20.7555 12.4135C20.7345 12.4295 18.9442 13.0299 16.7829 13.7458C16.0296 13.9954 15.0244 14.3304 14.5492 14.4904C14.0739 14.6504 13.6783 14.7812 13.6698 14.7812C13.65 14.7812 13.4067 14.3684 13.0213 13.6806C12.8516 13.378 12.5626 12.8643 12.3789 12.5392C12.1952 12.2141 12.052 11.943 12.0605 11.9368C12.0691 11.9307 12.883 11.7364 13.8692 11.5052C15.469 11.1301 19.5828 10.1537 19.6061 10.1436C19.6111 10.1414 19.8747 10.6491 20.1918 11.2717ZM11.1305 22.1417C11.1169 22.1548 10.506 21.981 9.77297 21.7554C9.0399 21.5299 7.72294 21.1261 6.84633 20.8582C5.96972 20.5903 4.86584 20.2523 4.39332 20.1072L3.53414 19.8432V16.5415C3.53414 13.9202 3.54699 13.2443 3.5964 13.2619C4.12296 13.4492 9.43831 15.0683 9.52687 15.0683C9.71644 15.0683 9.81137 14.9593 10.3601 14.1113C10.6412 13.6771 10.9292 13.2356 11.0004 13.1304L11.1298 12.9389L11.1425 17.5285C11.1494 20.0527 11.1441 22.1287 11.1305 22.1417ZM12.5886 14.3458C13.155 15.3386 13.3141 15.5469 13.5063 15.5469C13.5639 15.5469 14.42 15.2758 15.4087 14.9446C16.3974 14.6134 17.7162 14.1738 18.3394 13.9679L19.4725 13.5936V16.7396V19.8857L18.7379 20.1041C18.0443 20.3103 14.7727 21.2967 12.8378 21.8831C12.3528 22.0301 11.9325 22.1504 11.9039 22.1504C11.8682 22.1504 11.8528 20.7419 11.8546 17.6404C11.8571 13.3846 11.862 13.1368 11.9417 13.2452C11.9883 13.3085 12.2793 13.8037 12.5886 14.3458Z" stroke="#F2F2F2" stroke-width="0.6" mask="url(#path-1-outside-1_1717_19654)"/>
</svg>
